<svg xmlns="http://www.w3.org/2000/svg" xmlns:xlink="http://www.w3.org/1999/xlink" width="500" zoomAndPan="magnify" viewBox="0 0 375 374.999991" height="500" preserveAspectRatio="xMidYMid meet" version="1.0"><defs><clipPath id="52f82cc6d2"><path d="M 16 301 L 77 301 L 77 361.902344 L 16 361.902344 Z M 16 301 " clip-rule="nonzero"/></clipPath><clipPath id="4c01714762"><path d="M 16 301 L 77 301 L 77 361.902344 L 16 361.902344 Z M 16 301 " clip-rule="nonzero"/></clipPath></defs><path fill="#ffffff" d="M 155.042969 198.902344 L 155.042969 171.746094 C 155.042969 168.757812 152.601562 166.3125 149.613281 166.3125 L 111.59375 166.3125 C 108.605469 166.3125 106.160156 168.757812 106.160156 171.746094 L 106.160156 198.902344 C 106.160156 201.890625 108.605469 204.332031 111.59375 204.332031 L 149.613281 204.332031 C 152.601562 204.332031 155.042969 201.890625 155.042969 198.902344 Z M 144.179688 193.46875 L 117.023438 193.46875 L 144.179688 177.175781 Z M 144.179688 193.46875 " fill-opacity="1" fill-rule="nonzero"/><path fill="#ffffff" d="M 168.621094 128.292969 L 212.074219 128.292969 C 215.058594 128.292969 217.234375 126.121094 217.503906 123.136719 C 216.417969 121.234375 215.058594 119.332031 213.429688 117.703125 C 213.160156 117.433594 212.617188 117.433594 212.074219 117.433594 L 168.621094 117.433594 C 165.636719 117.433594 163.191406 119.875 163.191406 122.863281 C 163.191406 125.851562 165.636719 128.292969 168.621094 128.292969 Z M 168.621094 128.292969 " fill-opacity="1" fill-rule="nonzero"/><path fill="#ffffff" d="M 194.421875 27 L 225.921875 55.515625 C 240.859375 59.316406 252.265625 65.5625 260.683594 72.351562 L 201.753906 18.851562 C 195.234375 13.152344 184.917969 13.152344 178.128906 18.851562 L 26.320312 155.722656 C 24.148438 157.625 23.878906 161.152344 26.050781 163.328125 C 27.949219 165.5 31.480469 165.769531 33.652344 163.597656 L 46.417969 152.191406 L 46.417969 289.605469 L 57.28125 282 L 57.28125 144.589844 C 57.28125 144.046875 57.28125 143.503906 57.007812 142.960938 L 185.1875 27 C 187.632812 24.828125 191.976562 24.828125 194.421875 27 Z M 194.421875 27 " fill-opacity="1" fill-rule="nonzero"/><path fill="#ffffff" d="M 87.152344 220.628906 L 87.152344 261.363281 L 98.015625 253.757812 L 98.015625 226.058594 L 137.664062 226.058594 L 153.144531 215.195312 L 92.582031 215.195312 C 89.597656 215.195312 87.152344 217.640625 87.152344 220.628906 Z M 87.152344 220.628906 " fill-opacity="1" fill-rule="nonzero"/><path fill="#ffffff" d="M 323.414062 296.664062 L 174.054688 296.664062 L 174.054688 287.160156 L 163.191406 294.765625 L 163.191406 329.253906 L 113.222656 329.253906 L 97.472656 340.117188 L 328.847656 340.117188 C 331.832031 340.117188 334.277344 337.671875 334.277344 334.683594 L 334.277344 270.050781 L 323.414062 277.65625 Z M 323.414062 329.253906 L 174.054688 329.253906 L 174.054688 307.527344 L 323.414062 307.527344 Z M 323.414062 329.253906 " fill-opacity="1" fill-rule="nonzero"/><path fill="#ffffff" d="M 326.132812 63.117188 C 323.144531 63.117188 320.699219 65.5625 320.699219 68.550781 L 320.699219 125.578125 L 304.40625 110.914062 L 304.40625 49.539062 C 304.40625 46.554688 301.960938 44.109375 298.972656 44.109375 C 295.988281 44.109375 293.542969 46.554688 293.542969 49.539062 L 293.542969 101.136719 L 277.25 86.472656 L 277.25 19.667969 C 277.25 16.679688 274.804688 14.238281 271.816406 14.238281 C 268.832031 14.238281 266.386719 16.679688 266.386719 19.667969 L 266.386719 76.425781 C 268.832031 78.597656 271.003906 80.769531 272.632812 82.671875 C 272.902344 82.941406 273.175781 83.214844 273.445312 83.484375 C 273.988281 84.300781 274.804688 84.84375 275.347656 85.660156 C 275.621094 85.929688 275.621094 85.929688 275.890625 86.203125 C 276.433594 87.015625 276.976562 87.558594 277.25 88.101562 C 278.335938 89.460938 279.148438 90.546875 279.421875 91.363281 L 300.332031 121.777344 L 323.957031 142.960938 C 323.6875 143.503906 323.6875 144.046875 323.6875 144.589844 L 323.6875 155.722656 L 334.550781 171.472656 L 334.550781 152.191406 L 347.3125 163.597656 C 348.398438 164.414062 349.757812 164.957031 350.84375 164.957031 C 352.203125 164.957031 353.832031 164.414062 354.917969 163.054688 C 356.816406 160.882812 356.816406 157.351562 354.375 155.453125 L 331.5625 135.082031 L 331.5625 68.550781 C 331.5625 65.5625 329.117188 63.117188 326.132812 63.117188 Z M 326.132812 63.117188 " fill-opacity="1" fill-rule="nonzero"/><g clip-path="url(#52f82cc6d2)"><path fill="#ffffff" d="M 23.335938 319.207031 C 16.273438 324.09375 14.371094 333.871094 19.261719 340.929688 L 28.765625 355.050781 C 31.753906 359.398438 36.371094 361.84375 41.527344 361.84375 C 44.789062 361.84375 47.773438 360.753906 50.492188 359.125 L 76.019531 341.472656 L 48.316406 301.554688 Z M 54.5625 331.96875 C 54.5625 334.957031 52.121094 337.402344 49.132812 337.402344 C 46.144531 337.402344 43.703125 334.957031 43.703125 331.96875 C 43.703125 328.980469 46.144531 326.539062 49.132812 326.539062 C 52.121094 326.539062 54.5625 328.980469 54.5625 331.96875 Z M 54.5625 331.96875 " fill-opacity="1" fill-rule="nonzero"/></g><path fill="#ffffff" d="M 342.96875 203.519531 C 341.609375 201.347656 338.894531 200.53125 336.722656 201.347656 L 316.625 208.40625 L 313.367188 203.519531 L 325.859375 183.964844 C 326.945312 182.066406 326.945312 179.621094 325.859375 177.992188 L 270.1875 97.335938 C 268.289062 94.347656 248.191406 63.117188 200.394531 63.117188 C 191.707031 63.117188 182.472656 64.203125 172.96875 66.378906 C 170.523438 66.921875 168.621094 68.820312 168.621094 71.265625 C 168.351562 73.710938 169.980469 75.882812 172.152344 76.695312 C 172.695312 76.96875 221.847656 94.621094 233.253906 131.28125 L 213.972656 159.253906 C 212.617188 161.152344 212.617188 163.597656 213.972656 165.5 L 223.480469 179.347656 L 57.28125 295.308594 L 85.25 335.226562 L 251.179688 220.898438 C 251.179688 220.898438 251.179688 220.898438 251.179688 221.171875 L 255.253906 227.144531 C 256.609375 229.046875 258.78125 229.859375 261.226562 229.316406 L 279.148438 224.429688 L 284.039062 231.488281 L 272.089844 248.597656 C 270.730469 250.5 270.730469 252.945312 272.089844 254.84375 L 284.039062 272.496094 C 287.023438 276.839844 291.640625 279.285156 296.800781 279.285156 C 300.058594 279.285156 303.046875 278.199219 305.761719 276.570312 L 351.65625 244.523438 C 358.71875 239.636719 360.621094 229.859375 355.730469 222.800781 Z M 282.953125 168.214844 C 282.136719 168.757812 281.050781 169.03125 279.964844 169.03125 C 278.335938 169.03125 276.433594 168.214844 275.347656 166.585938 L 259.054688 142.144531 C 257.425781 139.699219 257.96875 136.171875 260.410156 134.539062 C 262.855469 132.910156 266.386719 133.453125 268.015625 136.171875 L 284.308594 160.609375 C 286.210938 163.054688 285.394531 166.3125 282.953125 168.214844 Z M 282.953125 168.214844 " fill-opacity="1" fill-rule="nonzero"/><path fill="#ffffff" d="M 155.042969 198.902344 L 155.042969 171.746094 C 155.042969 168.757812 152.601562 166.3125 149.613281 166.3125 L 111.59375 166.3125 C 108.605469 166.3125 106.160156 168.757812 106.160156 171.746094 L 106.160156 198.902344 C 106.160156 201.890625 108.605469 204.332031 111.59375 204.332031 L 149.613281 204.332031 C 152.601562 204.332031 155.042969 201.890625 155.042969 198.902344 Z M 144.179688 193.46875 L 117.023438 193.46875 L 144.179688 177.175781 Z M 144.179688 193.46875 " fill-opacity="1" fill-rule="nonzero"/><path fill="#ffffff" d="M 168.621094 128.292969 L 212.074219 128.292969 C 215.058594 128.292969 217.234375 126.121094 217.503906 123.136719 C 216.417969 121.234375 215.058594 119.332031 213.429688 117.703125 C 213.160156 117.433594 212.617188 117.433594 212.074219 117.433594 L 168.621094 117.433594 C 165.636719 117.433594 163.191406 119.875 163.191406 122.863281 C 163.191406 125.851562 165.636719 128.292969 168.621094 128.292969 Z M 168.621094 128.292969 " fill-opacity="1" fill-rule="nonzero"/><path fill="#ffffff" d="M 194.421875 27 L 225.921875 55.515625 C 240.859375 59.316406 252.265625 65.5625 260.683594 72.351562 L 201.753906 18.851562 C 195.234375 13.152344 184.917969 13.152344 178.128906 18.851562 L 26.320312 155.722656 C 24.148438 157.625 23.878906 161.152344 26.050781 163.328125 C 27.949219 165.5 31.480469 165.769531 33.652344 163.597656 L 46.417969 152.191406 L 46.417969 289.605469 L 57.28125 282 L 57.28125 144.589844 C 57.28125 144.046875 57.28125 143.503906 57.007812 142.960938 L 185.1875 27 C 187.632812 24.828125 191.976562 24.828125 194.421875 27 Z M 194.421875 27 " fill-opacity="1" fill-rule="nonzero"/><path fill="#ffffff" d="M 87.152344 220.628906 L 87.152344 261.363281 L 98.015625 253.757812 L 98.015625 226.058594 L 137.664062 226.058594 L 153.144531 215.195312 L 92.582031 215.195312 C 89.597656 215.195312 87.152344 217.640625 87.152344 220.628906 Z M 87.152344 220.628906 " fill-opacity="1" fill-rule="nonzero"/><path fill="#ffffff" d="M 323.414062 296.664062 L 174.054688 296.664062 L 174.054688 287.160156 L 163.191406 294.765625 L 163.191406 329.253906 L 113.222656 329.253906 L 97.472656 340.117188 L 328.847656 340.117188 C 331.832031 340.117188 334.277344 337.671875 334.277344 334.683594 L 334.277344 270.050781 L 323.414062 277.65625 Z M 323.414062 329.253906 L 174.054688 329.253906 L 174.054688 307.527344 L 323.414062 307.527344 Z M 323.414062 329.253906 " fill-opacity="1" fill-rule="nonzero"/><path fill="#ffffff" d="M 326.132812 63.117188 C 323.144531 63.117188 320.699219 65.5625 320.699219 68.550781 L 320.699219 125.578125 L 304.40625 110.914062 L 304.40625 49.539062 C 304.40625 46.554688 301.960938 44.109375 298.972656 44.109375 C 295.988281 44.109375 293.542969 46.554688 293.542969 49.539062 L 293.542969 101.136719 L 277.25 86.472656 L 277.25 19.667969 C 277.25 16.679688 274.804688 14.238281 271.816406 14.238281 C 268.832031 14.238281 266.386719 16.679688 266.386719 19.667969 L 266.386719 76.425781 C 268.832031 78.597656 271.003906 80.769531 272.632812 82.671875 C 272.902344 82.941406 273.175781 83.214844 273.445312 83.484375 C 273.988281 84.300781 274.804688 84.84375 275.347656 85.660156 C 275.621094 85.929688 275.621094 85.929688 275.890625 86.203125 C 276.433594 87.015625 276.976562 87.558594 277.25 88.101562 C 278.335938 89.460938 279.148438 90.546875 279.421875 91.363281 L 300.332031 121.777344 L 323.957031 142.960938 C 323.6875 143.503906 323.6875 144.046875 323.6875 144.589844 L 323.6875 155.722656 L 334.550781 171.472656 L 334.550781 152.191406 L 347.3125 163.597656 C 348.398438 164.414062 349.757812 164.957031 350.84375 164.957031 C 352.203125 164.957031 353.832031 164.414062 354.917969 163.054688 C 356.816406 160.882812 356.816406 157.351562 354.375 155.453125 L 331.5625 135.082031 L 331.5625 68.550781 C 331.5625 65.5625 329.117188 63.117188 326.132812 63.117188 Z M 326.132812 63.117188 " fill-opacity="1" fill-rule="nonzero"/><g clip-path="url(#4c01714762)"><path fill="#ffffff" d="M 23.335938 319.207031 C 16.273438 324.09375 14.371094 333.871094 19.261719 340.929688 L 28.765625 355.050781 C 31.753906 359.398438 36.371094 361.84375 41.527344 361.84375 C 44.789062 361.84375 47.773438 360.753906 50.492188 359.125 L 76.019531 341.472656 L 48.316406 301.554688 Z M 54.5625 331.96875 C 54.5625 334.957031 52.121094 337.402344 49.132812 337.402344 C 46.144531 337.402344 43.703125 334.957031 43.703125 331.96875 C 43.703125 328.980469 46.144531 326.539062 49.132812 326.539062 C 52.121094 326.539062 54.5625 328.980469 54.5625 331.96875 Z M 54.5625 331.96875 " fill-opacity="1" fill-rule="nonzero"/></g><path fill="#ffffff" d="M 342.96875 203.519531 C 341.609375 201.347656 338.894531 200.53125 336.722656 201.347656 L 316.625 208.40625 L 313.367188 203.519531 L 325.859375 183.964844 C 326.945312 182.066406 326.945312 179.621094 325.859375 177.992188 L 270.1875 97.335938 C 268.289062 94.347656 248.191406 63.117188 200.394531 63.117188 C 191.707031 63.117188 182.472656 64.203125 172.96875 66.378906 C 170.523438 66.921875 168.621094 68.820312 168.621094 71.265625 C 168.351562 73.710938 169.980469 75.882812 172.152344 76.695312 C 172.695312 76.96875 221.847656 94.621094 233.253906 131.28125 L 213.972656 159.253906 C 212.617188 161.152344 212.617188 163.597656 213.972656 165.5 L 223.480469 179.347656 L 57.28125 295.308594 L 85.25 335.226562 L 251.179688 220.898438 C 251.179688 220.898438 251.179688 220.898438 251.179688 221.171875 L 255.253906 227.144531 C 256.609375 229.046875 258.78125 229.859375 261.226562 229.316406 L 279.148438 224.429688 L 284.039062 231.488281 L 272.089844 248.597656 C 270.730469 250.5 270.730469 252.945312 272.089844 254.84375 L 284.039062 272.496094 C 287.023438 276.839844 291.640625 279.285156 296.800781 279.285156 C 300.058594 279.285156 303.046875 278.199219 305.761719 276.570312 L 351.65625 244.523438 C 358.71875 239.636719 360.621094 229.859375 355.730469 222.800781 Z M 282.953125 168.214844 C 282.136719 168.757812 281.050781 169.03125 279.964844 169.03125 C 278.335938 169.03125 276.433594 168.214844 275.347656 166.585938 L 259.054688 142.144531 C 257.425781 139.699219 257.96875 136.171875 260.410156 134.539062 C 262.855469 132.910156 266.386719 133.453125 268.015625 136.171875 L 284.308594 160.609375 C 286.210938 163.054688 285.394531 166.3125 282.953125 168.214844 Z M 282.953125 168.214844 " fill-opacity="1" fill-rule="nonzero"/></svg>