<svg xmlns="http://www.w3.org/2000/svg" xmlns:xlink="http://www.w3.org/1999/xlink" width="500" zoomAndPan="magnify" viewBox="0 0 375 374.999991" height="500" preserveAspectRatio="xMidYMid meet" version="1.0"><defs><clipPath id="65a2b23656"><path d="M 0 39.140625 L 375 39.140625 L 375 336 L 0 336 Z M 0 39.140625 " clip-rule="nonzero"/></clipPath></defs><g clip-path="url(#65a2b23656)"><path fill="#ffffff" d="M 0.0976562 39.140625 L 0.0976562 117.222656 L 15.714844 117.222656 L 15.714844 335.859375 L 31.332031 335.859375 L 31.332031 117.222656 L 343.667969 117.222656 L 343.667969 335.859375 L 359.285156 335.859375 L 359.285156 117.222656 L 374.902344 117.222656 L 374.902344 39.140625 Z M 15.714844 54.757812 L 359.285156 54.757812 L 359.285156 101.609375 L 15.714844 101.609375 Z M 54.757812 70.375 L 54.757812 85.992188 L 70.375 85.992188 L 70.375 70.375 Z M 101.609375 70.375 L 101.609375 85.992188 L 117.222656 85.992188 L 117.222656 70.375 Z M 148.457031 70.375 L 148.457031 85.992188 L 226.542969 85.992188 L 226.542969 70.375 Z M 257.777344 70.375 L 257.777344 85.992188 L 273.390625 85.992188 L 273.390625 70.375 Z M 304.625 70.375 L 304.625 85.992188 L 320.242188 85.992188 L 320.242188 70.375 Z M 144.460938 156.265625 C 128.570312 156.265625 114.203125 165.964844 108.257812 180.699219 L 95.386719 212.632812 L 89.742188 218.246094 C 82.332031 225.566406 78.183594 235.570312 78.183594 245.972656 L 78.183594 320.242188 C 78.183594 328.78125 85.257812 335.859375 93.800781 335.859375 L 101.609375 335.859375 C 110.148438 335.859375 117.222656 328.78125 117.222656 320.242188 L 117.222656 315.605469 C 133.664062 317.894531 154.34375 320.242188 187.5 320.242188 C 220.65625 320.242188 241.335938 317.894531 257.777344 315.605469 L 257.777344 320.242188 C 257.777344 328.78125 264.851562 335.859375 273.390625 335.859375 L 281.199219 335.859375 C 289.742188 335.859375 296.816406 328.78125 296.816406 320.242188 L 296.816406 245.972656 C 296.816406 235.570312 292.667969 225.566406 285.257812 218.246094 L 279.613281 212.632812 L 266.742188 180.699219 C 260.796875 165.964844 246.429688 156.265625 230.539062 156.265625 Z M 144.460938 171.882812 L 230.539062 171.882812 C 240.113281 171.882812 248.65625 177.679688 252.253906 186.554688 L 265.738281 219.984375 C 266.132812 220.960938 266.742188 221.84375 267.503906 222.605469 L 274.277344 229.347656 C 278.699219 233.742188 281.199219 239.71875 281.199219 245.972656 L 281.199219 320.242188 L 273.390625 320.242188 L 273.390625 307.308594 C 273.390625 304.992188 272.386719 302.828125 270.648438 301.363281 C 268.910156 299.867188 266.589844 299.226562 264.332031 299.59375 C 248.839844 302.09375 224.222656 304.625 187.5 304.625 C 150.777344 304.625 126.160156 302.09375 110.667969 299.59375 C 108.410156 299.226562 106.089844 299.867188 104.351562 301.363281 C 102.613281 302.828125 101.609375 304.992188 101.609375 307.308594 L 101.609375 320.242188 L 93.800781 320.242188 L 93.800781 245.972656 C 93.800781 239.71875 96.300781 233.742188 100.722656 229.347656 L 107.496094 222.605469 C 108.257812 221.84375 108.867188 220.960938 109.261719 219.984375 L 122.746094 186.554688 C 126.34375 177.679688 134.886719 171.882812 144.460938 171.882812 Z M 121.128906 249.96875 C 114.664062 249.96875 109.417969 255.214844 109.417969 261.679688 C 109.417969 268.144531 114.664062 273.390625 121.128906 273.390625 C 127.59375 273.390625 132.839844 268.144531 132.839844 261.679688 C 132.839844 255.214844 127.59375 249.96875 121.128906 249.96875 Z M 253.871094 249.96875 C 247.40625 249.96875 242.160156 255.214844 242.160156 261.679688 C 242.160156 268.144531 247.40625 273.390625 253.871094 273.390625 C 260.335938 273.390625 265.582031 268.144531 265.582031 261.679688 C 265.582031 255.214844 260.335938 249.96875 253.871094 249.96875 Z M 156.265625 257.777344 L 156.265625 273.390625 L 218.734375 273.390625 L 218.734375 257.777344 Z M 156.265625 257.777344 " fill-opacity="1" fill-rule="nonzero"/><path fill="#ffffff" d="M 0.0976562 39.140625 L 0.0976562 117.222656 L 15.714844 117.222656 L 15.714844 335.859375 L 31.332031 335.859375 L 31.332031 117.222656 L 343.667969 117.222656 L 343.667969 335.859375 L 359.285156 335.859375 L 359.285156 117.222656 L 374.902344 117.222656 L 374.902344 39.140625 Z M 15.714844 54.757812 L 359.285156 54.757812 L 359.285156 101.609375 L 15.714844 101.609375 Z M 54.757812 70.375 L 54.757812 85.992188 L 70.375 85.992188 L 70.375 70.375 Z M 101.609375 70.375 L 101.609375 85.992188 L 117.222656 85.992188 L 117.222656 70.375 Z M 148.457031 70.375 L 148.457031 85.992188 L 226.542969 85.992188 L 226.542969 70.375 Z M 257.777344 70.375 L 257.777344 85.992188 L 273.390625 85.992188 L 273.390625 70.375 Z M 304.625 70.375 L 304.625 85.992188 L 320.242188 85.992188 L 320.242188 70.375 Z M 144.460938 156.265625 C 128.570312 156.265625 114.203125 165.964844 108.257812 180.699219 L 95.386719 212.632812 L 89.742188 218.246094 C 82.332031 225.566406 78.183594 235.570312 78.183594 245.972656 L 78.183594 320.242188 C 78.183594 328.78125 85.257812 335.859375 93.800781 335.859375 L 101.609375 335.859375 C 110.148438 335.859375 117.222656 328.78125 117.222656 320.242188 L 117.222656 315.605469 C 133.664062 317.894531 154.34375 320.242188 187.5 320.242188 C 220.65625 320.242188 241.335938 317.894531 257.777344 315.605469 L 257.777344 320.242188 C 257.777344 328.78125 264.851562 335.859375 273.390625 335.859375 L 281.199219 335.859375 C 289.742188 335.859375 296.816406 328.78125 296.816406 320.242188 L 296.816406 245.972656 C 296.816406 235.570312 292.667969 225.566406 285.257812 218.246094 L 279.613281 212.632812 L 266.742188 180.699219 C 260.796875 165.964844 246.429688 156.265625 230.539062 156.265625 Z M 144.460938 171.882812 L 230.539062 171.882812 C 240.113281 171.882812 248.65625 177.679688 252.253906 186.554688 L 265.738281 219.984375 C 266.132812 220.960938 266.742188 221.84375 267.503906 222.605469 L 274.277344 229.347656 C 278.699219 233.742188 281.199219 239.71875 281.199219 245.972656 L 281.199219 320.242188 L 273.390625 320.242188 L 273.390625 307.308594 C 273.390625 304.992188 272.386719 302.828125 270.648438 301.363281 C 268.910156 299.867188 266.589844 299.226562 264.332031 299.59375 C 248.839844 302.09375 224.222656 304.625 187.5 304.625 C 150.777344 304.625 126.160156 302.09375 110.667969 299.59375 C 108.410156 299.226562 106.089844 299.867188 104.351562 301.363281 C 102.613281 302.828125 101.609375 304.992188 101.609375 307.308594 L 101.609375 320.242188 L 93.800781 320.242188 L 93.800781 245.972656 C 93.800781 239.71875 96.300781 233.742188 100.722656 229.347656 L 107.496094 222.605469 C 108.257812 221.84375 108.867188 220.960938 109.261719 219.984375 L 122.746094 186.554688 C 126.34375 177.679688 134.886719 171.882812 144.460938 171.882812 Z M 121.128906 249.96875 C 114.664062 249.96875 109.417969 255.214844 109.417969 261.679688 C 109.417969 268.144531 114.664062 273.390625 121.128906 273.390625 C 127.59375 273.390625 132.839844 268.144531 132.839844 261.679688 C 132.839844 255.214844 127.59375 249.96875 121.128906 249.96875 Z M 253.871094 249.96875 C 247.40625 249.96875 242.160156 255.214844 242.160156 261.679688 C 242.160156 268.144531 247.40625 273.390625 253.871094 273.390625 C 260.335938 273.390625 265.582031 268.144531 265.582031 261.679688 C 265.582031 255.214844 260.335938 249.96875 253.871094 249.96875 Z M 156.265625 257.777344 L 156.265625 273.390625 L 218.734375 273.390625 L 218.734375 257.777344 Z M 156.265625 257.777344 " fill-opacity="1" fill-rule="nonzero"/></g></svg>