<svg xmlns="http://www.w3.org/2000/svg" xmlns:xlink="http://www.w3.org/1999/xlink" width="500" zoomAndPan="magnify" viewBox="0 0 375 374.999991" height="500" preserveAspectRatio="xMidYMid meet" version="1.0"><defs><clipPath id="0febc7f9bf"><path d="M 39.65625 13.378906 L 335.15625 13.378906 L 335.15625 361.378906 L 39.65625 361.378906 Z M 39.65625 13.378906 " clip-rule="nonzero"/></clipPath><clipPath id="2ff9fce7f7"><path d="M 218.242188 67.265625 C 217.925781 62.449219 218.929688 57.738281 221.046875 53.574219 C 223.160156 49.40625 226.363281 45.785156 230.421875 43.167969 C 234.484375 40.550781 239.109375 39.148438 243.800781 38.984375 C 248.46875 38.792969 253.179688 39.839844 257.429688 42.121094 C 261.675781 44.40625 265.132812 47.773438 267.582031 51.773438 C 270.007812 55.769531 271.371094 60.398438 271.453125 65.234375 C 271.496094 68.75 268.667969 71.640625 265.152344 71.679688 C 261.636719 71.722656 258.746094 68.898438 258.703125 65.378906 C 258.664062 62.867188 257.953125 60.460938 256.695312 58.386719 C 255.4375 56.335938 253.640625 54.597656 251.398438 53.386719 C 249.179688 52.191406 246.710938 51.648438 244.28125 51.730469 C 241.875 51.816406 239.488281 52.546875 237.351562 53.929688 C 235.238281 55.289062 233.5625 57.175781 232.476562 59.332031 C 231.386719 61.488281 230.863281 63.957031 231.011719 66.488281 C 231.238281 70.007812 228.5625 73.042969 225.042969 73.25 C 221.527344 73.480469 218.492188 70.800781 218.261719 67.285156 Z M 151.292969 337.371094 L 231.46875 337.371094 L 231.46875 348.464844 L 200.800781 348.464844 C 200.800781 355.644531 194.984375 361.445312 187.824219 361.445312 C 180.664062 361.445312 174.84375 355.625 174.84375 348.464844 L 151.292969 348.464844 Z M 133.269531 317.398438 L 249.472656 317.398438 L 249.472656 328.496094 L 133.269531 328.496094 Z M 298.417969 123.03125 C 303.25 125.125 307 128.789062 309.257812 133.246094 C 311.5 137.683594 312.230469 142.875 311.039062 148.003906 C 309.847656 153.132812 306.894531 157.46875 302.894531 160.480469 C 298.917969 163.476562 293.9375 165.109375 288.683594 164.835938 C 285.164062 164.648438 282.445312 161.652344 282.632812 158.136719 C 282.820312 154.621094 285.8125 151.898438 289.332031 152.085938 C 291.527344 152.191406 293.601562 151.523438 295.234375 150.285156 C 296.867188 149.050781 298.082031 147.25 298.5625 145.117188 C 299.066406 142.980469 298.773438 140.824219 297.828125 139.003906 C 296.910156 137.183594 295.359375 135.652344 293.328125 134.796875 C 290.085938 133.394531 288.578125 129.644531 289.980469 126.402344 C 291.382812 123.15625 295.128906 121.648438 298.375 123.050781 Z M 133.269531 306.136719 L 249.472656 306.136719 L 249.472656 263.746094 C 250.101562 263.578125 250.730469 263.390625 251.335938 263.183594 C 261.71875 259.851562 270.972656 253.070312 277.292969 243.441406 C 280.851562 238 283.21875 232.054688 284.390625 225.984375 C 288.347656 225.523438 292.179688 224.390625 295.714844 222.65625 C 301.011719 220.058594 305.636719 216.101562 309.070312 211.058594 C 312.503906 206.011719 314.492188 200.253906 314.972656 194.394531 C 315.289062 190.5 314.933594 186.566406 313.929688 182.734375 C 316.753906 180.996094 319.351562 178.945312 321.714844 176.640625 C 328.726562 169.777344 333.523438 160.648438 334.925781 150.414062 C 336.328125 140.175781 334.171875 130.105469 329.25 121.628906 C 327.890625 119.261719 326.300781 117.042969 324.542969 114.949219 C 326.488281 110.21875 327.554688 105.214844 327.722656 100.152344 C 327.933594 93.558594 326.613281 86.921875 323.726562 80.789062 C 320.835938 74.652344 316.566406 69.398438 311.332031 65.359375 C 307.332031 62.261719 302.769531 59.875 297.851562 58.386719 C 296.574219 51.1875 293.8125 44.195312 289.601562 37.875 C 283.363281 28.496094 274.574219 21.523438 264.585938 17.503906 C 254.621094 13.484375 243.464844 12.4375 232.496094 14.867188 C 221.507812 17.296875 211.835938 22.988281 204.488281 30.839844 C 199.421875 36.261719 195.445312 42.730469 192.910156 49.890625 C 189.394531 59.875 190.355469 65.632812 190.355469 76.246094 L 190.355469 295.042969 L 175.535156 295.042969 L 175.535156 19.933594 C 115.792969 17.316406 60.695312 56.734375 67.621094 121.023438 C 68.941406 130.003906 66.765625 138.101562 61.132812 145.324219 L 41.332031 170.570312 C 39.53125 173.273438 39.175781 176.683594 40.367188 179.675781 C 41.558594 182.691406 44.15625 184.910156 47.316406 185.664062 C 55.648438 187.152344 58.222656 191.148438 55.019531 197.660156 C 50.226562 202.578125 48.949219 206.160156 51.191406 208.398438 C 52.632812 209.988281 52.65625 212.398438 51.253906 214.007812 C 49.851562 215.914062 50.476562 218.070312 53.136719 220.457031 C 57.679688 226.296875 58.640625 232.871094 56.046875 240.195312 C 54.433594 244.214844 54.644531 248.738281 56.632812 252.589844 C 58.621094 256.441406 62.199219 259.226562 66.410156 260.210938 C 73.316406 261.632812 80.390625 262.386719 87.574219 262.46875 C 108.359375 262.679688 123.597656 277.226562 133.292969 306.117188 Z M 236.660156 295.042969 L 203.125 295.042969 L 203.125 204.527344 C 208.128906 206.621094 213.824219 206.996094 219.308594 205.195312 C 224.980469 203.332031 229.480469 199.480469 232.265625 194.625 C 235.027344 189.789062 236.054688 183.949219 234.777344 178.148438 C 234.023438 174.695312 230.613281 172.519531 227.15625 173.273438 C 223.703125 174.027344 221.527344 177.4375 222.28125 180.890625 C 222.84375 183.507812 222.40625 186.144531 221.148438 188.300781 C 219.914062 190.457031 217.90625 192.175781 215.351562 193.011719 C 212.796875 193.851562 210.140625 193.660156 207.855469 192.636719 C 205.910156 191.777344 204.257812 190.3125 203.125 188.386719 L 203.125 108.941406 C 203.921875 107.414062 205.15625 106.222656 206.601562 105.445312 C 208.359375 104.527344 210.453125 104.191406 212.503906 104.691406 C 214.554688 105.195312 216.273438 106.410156 217.402344 108.023438 C 218.535156 109.632812 219.078125 111.664062 218.847656 113.777344 C 218.449219 117.273438 220.960938 120.457031 224.480469 120.855469 C 227.996094 121.25 231.15625 118.738281 231.554688 115.222656 C 232.160156 109.925781 230.738281 104.820312 227.871094 100.714844 C 225 96.613281 220.691406 93.535156 215.519531 92.28125 L 215.496094 92.28125 C 211.25 91.253906 206.976562 91.589844 203.148438 93.035156 L 203.148438 75.554688 C 203.148438 65.632812 202.207031 59.394531 206.601562 50.097656 C 208.464844 46.183594 210.894531 42.605469 213.824219 39.484375 C 219.453125 33.476562 226.84375 29.121094 235.238281 27.261719 C 243.632812 25.398438 252.195312 26.214844 259.835938 29.3125 C 267.457031 32.386719 274.175781 37.707031 278.949219 44.863281 C 283.71875 52.046875 286.042969 60.335938 285.941406 68.5625 C 285.835938 76.769531 283.261719 84.972656 278.300781 92.007812 C 276.269531 94.894531 276.960938 98.875 279.847656 100.90625 C 282.738281 102.933594 286.734375 102.242188 288.746094 99.355469 C 294.5 91.210938 297.765625 81.855469 298.519531 72.289062 C 300.300781 73.167969 301.976562 74.214844 303.523438 75.40625 C 307.144531 78.210938 310.140625 81.898438 312.148438 86.1875 C 314.15625 90.480469 315.101562 95.105469 314.953125 99.710938 C 314.890625 101.785156 314.597656 103.855469 314.09375 105.886719 C 311.898438 104.527344 309.574219 103.332031 307.101562 102.328125 C 303.835938 100.988281 300.113281 102.578125 298.773438 105.84375 C 297.453125 109.109375 299.023438 112.835938 302.289062 114.175781 C 309.175781 116.960938 314.660156 121.921875 318.175781 127.992188 C 321.695312 134.085938 323.242188 141.304688 322.238281 148.675781 C 321.234375 156.023438 317.800781 162.554688 312.777344 167.453125 C 307.753906 172.371094 301.136719 175.660156 293.769531 176.496094 C 290.273438 176.894531 287.761719 180.074219 288.160156 183.570312 C 288.554688 187.066406 291.695312 189.558594 295.171875 189.203125 C 297.472656 188.929688 299.753906 188.492188 301.933594 187.90625 C 302.246094 189.703125 302.332031 191.546875 302.183594 193.367188 C 301.890625 197.09375 300.636719 200.714844 298.5 203.875 C 296.34375 207.058594 293.433594 209.527344 290.105469 211.183594 C 288.535156 211.957031 286.859375 212.542969 285.125 212.921875 C 285.082031 212.542969 285.058594 212.167969 285.019531 211.789062 C 283.929688 200.945312 279.242188 190.480469 271.117188 182.273438 C 268.628906 179.78125 264.585938 179.761719 262.097656 182.253906 C 259.585938 184.742188 259.585938 188.761719 262.074219 191.273438 C 268.0625 197.324219 271.515625 205.050781 272.3125 213.023438 C 273.105469 221.019531 271.246094 229.289062 266.574219 236.429688 C 261.90625 243.566406 255.082031 248.570312 247.421875 251.019531 C 239.78125 253.46875 231.28125 253.386719 223.347656 250.308594 C 220.0625 249.03125 216.355469 250.664062 215.101562 253.949219 C 213.824219 257.238281 215.457031 260.921875 218.742188 262.199219 C 224.605469 264.457031 230.652344 265.527344 236.640625 265.503906 L 236.640625 295.023438 Z M 226.992188 221.378906 C 224.414062 218.96875 220.375 219.117188 217.96875 221.691406 C 215.5625 224.265625 215.707031 228.328125 218.304688 230.714844 C 222.71875 234.835938 228.351562 237.015625 234.046875 237.203125 C 239.71875 237.390625 245.476562 235.589844 250.164062 231.761719 C 254.875 227.929688 257.804688 222.65625 258.769531 217.042969 C 259.730469 211.476562 258.726562 205.53125 255.585938 200.339844 C 253.765625 197.324219 249.851562 196.363281 246.835938 198.183594 C 243.820312 200.003906 242.859375 203.917969 244.679688 206.933594 C 246.164062 209.382812 246.625 212.207031 246.164062 214.886719 C 245.707031 217.546875 244.324219 220.039062 242.105469 221.839844 C 239.886719 223.660156 237.144531 224.496094 234.441406 224.414062 C 231.761719 224.328125 229.105469 223.28125 226.992188 221.335938 Z M 274.070312 143.066406 C 270.824219 141.664062 267.078125 143.128906 265.675781 146.371094 C 263.8125 150.644531 260.566406 153.949219 256.652344 155.9375 C 252.71875 157.925781 248.132812 158.578125 243.570312 157.550781 C 239.027344 156.523438 235.175781 153.949219 232.476562 150.476562 C 229.796875 147 228.265625 142.605469 228.433594 137.9375 C 228.539062 134.417969 225.777344 131.46875 222.257812 131.363281 C 218.742188 131.257812 215.792969 134.019531 215.6875 137.539062 C 215.433594 145.242188 217.925781 152.527344 222.386719 158.285156 C 226.84375 164.039062 233.25 168.3125 240.785156 170.007812 C 248.320312 171.703125 255.921875 170.632812 262.410156 167.347656 C 268.921875 164.0625 274.300781 158.578125 277.398438 151.480469 C 278.800781 148.257812 277.335938 144.488281 274.089844 143.085938 Z M 247.109375 126.570312 C 243.757812 127.679688 241.957031 131.300781 243.089844 134.648438 C 244.199219 138 247.820312 139.800781 251.167969 138.667969 C 258.015625 136.367188 263.4375 131.699219 266.785156 125.855469 C 270.132812 120.015625 271.410156 113.003906 269.96875 105.949219 C 268.523438 98.894531 264.566406 92.949219 259.164062 88.910156 C 253.765625 84.847656 246.960938 82.691406 239.800781 83.257812 C 236.285156 83.53125 233.648438 86.605469 233.917969 90.125 C 234.191406 93.640625 237.269531 96.277344 240.785156 96.007812 C 244.761719 95.691406 248.53125 96.863281 251.503906 99.105469 C 254.476562 101.34375 256.652344 104.609375 257.449219 108.503906 C 258.246094 112.375 257.53125 116.269531 255.667969 119.515625 C 253.804688 122.738281 250.835938 125.3125 247.109375 126.570312 Z M 247.109375 126.570312 " clip-rule="evenodd"/></clipPath><linearGradient x1="115.640838" gradientTransform="matrix(2.093363, 0, 0, 2.093363, 39.655556, 13.54834)" y1="-3.94349" x2="87.880716" gradientUnits="userSpaceOnUse" y2="179.460543" id="5f82a473ff"><stop stop-opacity="1" stop-color="rgb(15.699768%, 59.599304%, 92.498779%)" offset="0"/><stop stop-opacity="1" stop-color="rgb(15.611267%, 59.42688%, 92.359924%)" offset="0.0625"/><stop stop-opacity="1" stop-color="rgb(15.446472%, 59.106445%, 92.102051%)" offset="0.0703125"/><stop stop-opacity="1" stop-color="rgb(15.29541%, 58.811951%, 91.864014%)" offset="0.078125"/><stop stop-opacity="1" stop-color="rgb(15.142822%, 58.517456%, 91.625977%)" offset="0.0859375"/><stop stop-opacity="1" stop-color="rgb(14.99176%, 58.222961%, 91.387939%)" offset="0.09375"/><stop stop-opacity="1" stop-color="rgb(14.840698%, 57.928467%, 91.149902%)" offset="0.101562"/><stop stop-opacity="1" stop-color="rgb(14.689636%, 57.633972%, 90.913391%)" offset="0.109375"/><stop stop-opacity="1" stop-color="rgb(14.538574%, 57.337952%, 90.675354%)" offset="0.113888"/><stop stop-opacity="1" stop-color="rgb(14.463806%, 57.191467%, 90.556335%)" offset="0.117187"/><stop stop-opacity="1" stop-color="rgb(14.387512%, 57.043457%, 90.437317%)" offset="0.125"/><stop stop-opacity="1" stop-color="rgb(14.23645%, 56.748962%, 90.19928%)" offset="0.132812"/><stop stop-opacity="1" stop-color="rgb(14.085388%, 56.454468%, 89.961243%)" offset="0.140625"/><stop stop-opacity="1" stop-color="rgb(13.934326%, 56.159973%, 89.723206%)" offset="0.148438"/><stop stop-opacity="1" stop-color="rgb(13.783264%, 55.865479%, 89.486694%)" offset="0.15625"/><stop stop-opacity="1" stop-color="rgb(13.632202%, 55.570984%, 89.248657%)" offset="0.164062"/><stop stop-opacity="1" stop-color="rgb(13.48114%, 55.276489%, 89.01062%)" offset="0.171875"/><stop stop-opacity="1" stop-color="rgb(13.330078%, 54.981995%, 88.772583%)" offset="0.179687"/><stop stop-opacity="1" stop-color="rgb(13.179016%, 54.6875%, 88.534546%)" offset="0.1875"/><stop stop-opacity="1" stop-color="rgb(13.027954%, 54.393005%, 88.298035%)" offset="0.195312"/><stop stop-opacity="1" stop-color="rgb(12.876892%, 54.098511%, 88.059998%)" offset="0.203125"/><stop stop-opacity="1" stop-color="rgb(12.72583%, 53.804016%, 87.82196%)" offset="0.210937"/><stop stop-opacity="1" stop-color="rgb(12.574768%, 53.509521%, 87.583923%)" offset="0.21875"/><stop stop-opacity="1" stop-color="rgb(12.423706%, 53.215027%, 87.345886%)" offset="0.226562"/><stop stop-opacity="1" stop-color="rgb(12.272644%, 52.920532%, 87.107849%)" offset="0.234375"/><stop stop-opacity="1" stop-color="rgb(12.121582%, 52.626038%, 86.871338%)" offset="0.242187"/><stop stop-opacity="1" stop-color="rgb(11.97052%, 52.331543%, 86.633301%)" offset="0.25"/><stop stop-opacity="1" stop-color="rgb(11.819458%, 52.037048%, 86.395264%)" offset="0.257812"/><stop stop-opacity="1" stop-color="rgb(11.66687%, 51.742554%, 86.157227%)" offset="0.265625"/><stop stop-opacity="1" stop-color="rgb(11.515808%, 51.448059%, 85.919189%)" offset="0.273437"/><stop stop-opacity="1" stop-color="rgb(11.364746%, 51.153564%, 85.682678%)" offset="0.28125"/><stop stop-opacity="1" stop-color="rgb(11.213684%, 50.85907%, 85.444641%)" offset="0.289062"/><stop stop-opacity="1" stop-color="rgb(11.062622%, 50.564575%, 85.206604%)" offset="0.296875"/><stop stop-opacity="1" stop-color="rgb(10.91156%, 50.268555%, 84.968567%)" offset="0.304687"/><stop stop-opacity="1" stop-color="rgb(10.760498%, 49.97406%, 84.73053%)" offset="0.3125"/><stop stop-opacity="1" stop-color="rgb(10.609436%, 49.679565%, 84.492493%)" offset="0.320312"/><stop stop-opacity="1" stop-color="rgb(10.458374%, 49.385071%, 84.255981%)" offset="0.328125"/><stop stop-opacity="1" stop-color="rgb(10.307312%, 49.090576%, 84.017944%)" offset="0.335938"/><stop stop-opacity="1" stop-color="rgb(10.15625%, 48.796082%, 83.779907%)" offset="0.34375"/><stop stop-opacity="1" stop-color="rgb(10.005188%, 48.501587%, 83.54187%)" offset="0.351562"/><stop stop-opacity="1" stop-color="rgb(9.854126%, 48.207092%, 83.303833%)" offset="0.359375"/><stop stop-opacity="1" stop-color="rgb(9.703064%, 47.912598%, 83.065796%)" offset="0.367187"/><stop stop-opacity="1" stop-color="rgb(9.552002%, 47.618103%, 82.829285%)" offset="0.375"/><stop stop-opacity="1" stop-color="rgb(9.40094%, 47.323608%, 82.591248%)" offset="0.382812"/><stop stop-opacity="1" stop-color="rgb(9.249878%, 47.029114%, 82.35321%)" offset="0.390625"/><stop stop-opacity="1" stop-color="rgb(9.098816%, 46.734619%, 82.115173%)" offset="0.398437"/><stop stop-opacity="1" stop-color="rgb(8.947754%, 46.440125%, 81.877136%)" offset="0.40625"/><stop stop-opacity="1" stop-color="rgb(8.796692%, 46.14563%, 81.640625%)" offset="0.414062"/><stop stop-opacity="1" stop-color="rgb(8.64563%, 45.851135%, 81.402588%)" offset="0.421875"/><stop stop-opacity="1" stop-color="rgb(8.494568%, 45.556641%, 81.164551%)" offset="0.429687"/><stop stop-opacity="1" stop-color="rgb(8.34198%, 45.262146%, 80.926514%)" offset="0.4375"/><stop stop-opacity="1" stop-color="rgb(8.190918%, 44.967651%, 80.688477%)" offset="0.445312"/><stop stop-opacity="1" stop-color="rgb(8.039856%, 44.673157%, 80.450439%)" offset="0.453125"/><stop stop-opacity="1" stop-color="rgb(7.888794%, 44.378662%, 80.213928%)" offset="0.460938"/><stop stop-opacity="1" stop-color="rgb(7.737732%, 44.084167%, 79.975891%)" offset="0.46875"/><stop stop-opacity="1" stop-color="rgb(7.58667%, 43.789673%, 79.737854%)" offset="0.476562"/><stop stop-opacity="1" stop-color="rgb(7.435608%, 43.493652%, 79.499817%)" offset="0.484375"/><stop stop-opacity="1" stop-color="rgb(7.284546%, 43.199158%, 79.26178%)" offset="0.492188"/><stop stop-opacity="1" stop-color="rgb(7.133484%, 42.904663%, 79.025269%)" offset="0.5"/><stop stop-opacity="1" stop-color="rgb(6.982422%, 42.610168%, 78.787231%)" offset="0.507812"/><stop stop-opacity="1" stop-color="rgb(6.83136%, 42.315674%, 78.549194%)" offset="0.515625"/><stop stop-opacity="1" stop-color="rgb(6.680298%, 42.021179%, 78.311157%)" offset="0.523438"/><stop stop-opacity="1" stop-color="rgb(6.529236%, 41.726685%, 78.07312%)" offset="0.53125"/><stop stop-opacity="1" stop-color="rgb(6.378174%, 41.43219%, 77.835083%)" offset="0.539062"/><stop stop-opacity="1" stop-color="rgb(6.227112%, 41.137695%, 77.598572%)" offset="0.546875"/><stop stop-opacity="1" stop-color="rgb(6.07605%, 40.843201%, 77.360535%)" offset="0.554688"/><stop stop-opacity="1" stop-color="rgb(5.924988%, 40.548706%, 77.122498%)" offset="0.5625"/><stop stop-opacity="1" stop-color="rgb(5.773926%, 40.254211%, 76.88446%)" offset="0.570313"/><stop stop-opacity="1" stop-color="rgb(5.622864%, 39.959717%, 76.646423%)" offset="0.578125"/><stop stop-opacity="1" stop-color="rgb(5.471802%, 39.665222%, 76.408386%)" offset="0.585938"/><stop stop-opacity="1" stop-color="rgb(5.32074%, 39.370728%, 76.171875%)" offset="0.59375"/><stop stop-opacity="1" stop-color="rgb(5.169678%, 39.076233%, 75.933838%)" offset="0.601562"/><stop stop-opacity="1" stop-color="rgb(5.018616%, 38.781738%, 75.695801%)" offset="0.609375"/><stop stop-opacity="1" stop-color="rgb(4.866028%, 38.487244%, 75.457764%)" offset="0.617188"/><stop stop-opacity="1" stop-color="rgb(4.714966%, 38.192749%, 75.219727%)" offset="0.625"/><stop stop-opacity="1" stop-color="rgb(4.563904%, 37.898254%, 74.983215%)" offset="0.632812"/><stop stop-opacity="1" stop-color="rgb(4.412842%, 37.60376%, 74.745178%)" offset="0.640625"/><stop stop-opacity="1" stop-color="rgb(4.26178%, 37.309265%, 74.507141%)" offset="0.648438"/><stop stop-opacity="1" stop-color="rgb(4.110718%, 37.014771%, 74.269104%)" offset="0.65625"/><stop stop-opacity="1" stop-color="rgb(3.959656%, 36.720276%, 74.031067%)" offset="0.664063"/><stop stop-opacity="1" stop-color="rgb(3.808594%, 36.424255%, 73.79303%)" offset="0.671875"/><stop stop-opacity="1" stop-color="rgb(3.657532%, 36.129761%, 73.556519%)" offset="0.679688"/><stop stop-opacity="1" stop-color="rgb(3.50647%, 35.835266%, 73.318481%)" offset="0.6875"/><stop stop-opacity="1" stop-color="rgb(3.355408%, 35.540771%, 73.080444%)" offset="0.695312"/><stop stop-opacity="1" stop-color="rgb(3.204346%, 35.246277%, 72.842407%)" offset="0.703125"/><stop stop-opacity="1" stop-color="rgb(3.053284%, 34.951782%, 72.60437%)" offset="0.710938"/><stop stop-opacity="1" stop-color="rgb(2.902222%, 34.657288%, 72.367859%)" offset="0.71875"/><stop stop-opacity="1" stop-color="rgb(2.75116%, 34.362793%, 72.129822%)" offset="0.726562"/><stop stop-opacity="1" stop-color="rgb(2.600098%, 34.068298%, 71.891785%)" offset="0.734375"/><stop stop-opacity="1" stop-color="rgb(2.449036%, 33.773804%, 71.653748%)" offset="0.742187"/><stop stop-opacity="1" stop-color="rgb(2.297974%, 33.479309%, 71.41571%)" offset="0.75"/><stop stop-opacity="1" stop-color="rgb(2.146912%, 33.184814%, 71.177673%)" offset="0.757813"/><stop stop-opacity="1" stop-color="rgb(1.99585%, 32.89032%, 70.941162%)" offset="0.765625"/><stop stop-opacity="1" stop-color="rgb(1.844788%, 32.595825%, 70.703125%)" offset="0.773438"/><stop stop-opacity="1" stop-color="rgb(1.693726%, 32.301331%, 70.465088%)" offset="0.78125"/><stop stop-opacity="1" stop-color="rgb(1.541138%, 32.006836%, 70.227051%)" offset="0.789062"/><stop stop-opacity="1" stop-color="rgb(1.390076%, 31.712341%, 69.989014%)" offset="0.796875"/><stop stop-opacity="1" stop-color="rgb(1.239014%, 31.417847%, 69.750977%)" offset="0.804688"/><stop stop-opacity="1" stop-color="rgb(1.087952%, 31.123352%, 69.514465%)" offset="0.8125"/><stop stop-opacity="1" stop-color="rgb(0.93689%, 30.828857%, 69.276428%)" offset="0.820312"/><stop stop-opacity="1" stop-color="rgb(0.785828%, 30.534363%, 69.038391%)" offset="0.828125"/><stop stop-opacity="1" stop-color="rgb(0.634766%, 30.239868%, 68.800354%)" offset="0.835937"/><stop stop-opacity="1" stop-color="rgb(0.483704%, 29.945374%, 68.562317%)" offset="0.84375"/><stop stop-opacity="1" stop-color="rgb(0.332642%, 29.650879%, 68.325806%)" offset="0.851562"/><stop stop-opacity="1" stop-color="rgb(0.18158%, 29.354858%, 68.087769%)" offset="0.859375"/><stop stop-opacity="1" stop-color="rgb(0.0534058%, 29.103088%, 67.883301%)" offset="0.875"/><stop stop-opacity="1" stop-color="rgb(0%, 28.999329%, 67.799377%)" offset="0.886112"/><stop stop-opacity="1" stop-color="rgb(0%, 28.999329%, 67.799377%)" offset="1"/></linearGradient></defs><g clip-path="url(#0febc7f9bf)"><g clip-path="url(#2ff9fce7f7)"><path fill="url(#5f82a473ff)" d="M 39.65625 13.378906 L 39.65625 361.378906 L 335.15625 361.378906 L 335.15625 13.378906 Z M 39.65625 13.378906 " fill-rule="nonzero"/></g></g></svg>