<svg xmlns="http://www.w3.org/2000/svg" xmlns:xlink="http://www.w3.org/1999/xlink" width="500" zoomAndPan="magnify" viewBox="0 0 375 374.999991" height="500" preserveAspectRatio="xMidYMid meet" version="1.0"><defs><clipPath id="3c82471bea"><path d="M 8 170 L 368 170 L 368 372.011719 L 8 372.011719 Z M 8 170 " clip-rule="nonzero"/></clipPath><clipPath id="c1baf4f1bb"><path d="M 8 5 L 368 5 L 368 206.761719 L 8 206.761719 Z M 8 5 " clip-rule="nonzero"/></clipPath></defs><g clip-path="url(#3c82471bea)"><path fill="#000000" d="M 187.90625 372.644531 C 182.164062 372.644531 176.421875 370.441406 172.015625 366.070312 L 14.765625 208.820312 C 5.988281 200.011719 5.988281 185.84375 14.765625 177.035156 C 23.570312 168.261719 37.738281 168.261719 46.546875 177.035156 L 187.90625 318.429688 L 329.269531 177.035156 C 338.042969 168.261719 352.242188 168.261719 361.019531 177.035156 C 369.824219 185.84375 369.824219 200.042969 361.019531 208.820312 L 203.765625 366.070312 C 199.394531 370.441406 193.652344 372.644531 187.90625 372.644531 " fill-opacity="1" fill-rule="nonzero"/></g><g clip-path="url(#c1baf4f1bb)"><path fill="#000000" d="M 187.90625 207.394531 C 182.164062 207.394531 176.421875 205.191406 172.015625 200.820312 L 14.765625 43.570312 C 5.988281 34.761719 5.988281 20.59375 14.765625 11.789062 C 23.570312 3.011719 37.738281 3.011719 46.546875 11.789062 L 187.90625 153.179688 L 329.269531 11.789062 C 338.042969 3.011719 352.242188 3.011719 361.019531 11.789062 C 369.824219 20.59375 369.824219 34.792969 361.019531 43.570312 L 203.765625 200.820312 C 199.394531 205.191406 193.652344 207.394531 187.90625 207.394531 " fill-opacity="1" fill-rule="nonzero"/></g></svg>