<svg xmlns="http://www.w3.org/2000/svg" xmlns:xlink="http://www.w3.org/1999/xlink" width="500" zoomAndPan="magnify" viewBox="0 0 375 374.999991" height="500" preserveAspectRatio="xMidYMid meet" version="1.0"><defs><clipPath id="ef596874ce"><path d="M 312.15625 45.234375 L 374.90625 45.234375 L 374.90625 329.484375 L 312.15625 329.484375 Z M 312.15625 45.234375 " clip-rule="nonzero"/></clipPath><clipPath id="654547dedd"><path d="M 312.15625 45.234375 L 374.90625 45.234375 L 374.90625 329.484375 L 312.15625 329.484375 Z M 312.15625 45.234375 " clip-rule="nonzero"/></clipPath></defs><path fill="#ffffff" d="M 252.511719 257.679688 L 116.839844 257.679688 L 116.839844 296.6875 L 252.511719 296.6875 L 252.511719 257.679688 " fill-opacity="1" fill-rule="nonzero"/><path fill="#ffffff" d="M 280.800781 205.539062 C 282.125 206.863281 282.125 208.996094 280.800781 210.320312 C 275.082031 216.039062 271.933594 223.652344 271.933594 231.742188 L 271.933594 301.300781 C 271.933594 303.164062 270.417969 304.675781 268.554688 304.675781 C 266.679688 304.675781 265.167969 303.164062 265.167969 301.300781 L 265.167969 231.742188 C 265.167969 221.847656 269.023438 212.542969 276.027344 205.539062 C 277.34375 204.222656 279.484375 204.222656 280.800781 205.539062 Z M 259.269531 226.730469 L 259.269531 323.011719 L 298.277344 323.011719 L 298.277344 189.46875 L 296.53125 189.46875 C 275.976562 189.46875 259.269531 206.1875 259.269531 226.730469 " fill-opacity="1" fill-rule="nonzero"/><path fill="#ffffff" d="M 42.015625 224.460938 C 41.308594 215.949219 35.980469 193.195312 0.09375 182.800781 C 3.125 194.597656 13.289062 222.386719 42.015625 224.460938 " fill-opacity="1" fill-rule="nonzero"/><path fill="#ffffff" d="M 43.75 176.15625 L 43.75 248.703125 L 50.507812 248.703125 L 50.507812 176.1875 L 43.75 176.125 L 43.75 149.664062 C 43.75 147.800781 45.261719 146.285156 47.128906 146.285156 C 48.996094 146.285156 50.507812 147.800781 50.507812 149.664062 L 50.507812 176.085938 C 57.394531 165.734375 65.960938 143.460938 46.976562 109.644531 C 40.238281 120.765625 25.539062 150.667969 43.75 176.15625 " fill-opacity="1" fill-rule="nonzero"/><path fill="#ffffff" d="M 34.84375 311.195312 L 64.308594 311.195312 L 64.308594 255.457031 L 26.988281 255.457031 L 34.84375 311.195312 " fill-opacity="1" fill-rule="nonzero"/><g clip-path="url(#ef596874ce)"><path fill="#ffffff" d="M 336.984375 57.234375 C 336.984375 55.367188 338.488281 53.855469 340.363281 53.855469 C 349.917969 53.855469 357.957031 60.699219 359.480469 70.125 C 359.78125 71.96875 358.535156 73.703125 356.691406 74.003906 C 356.503906 74.035156 356.324219 74.046875 356.144531 74.046875 C 354.519531 74.046875 353.085938 72.871094 352.816406 71.210938 C 351.820312 65.070312 346.578125 60.613281 340.363281 60.613281 C 338.488281 60.613281 336.984375 59.097656 336.984375 57.234375 Z M 347.457031 114.894531 L 374.636719 114.894531 L 366.527344 64.878906 C 364.671875 53.5 354.957031 45.234375 343.429688 45.234375 C 331.902344 45.234375 322.1875 53.5 320.34375 64.878906 L 312.226562 114.894531 L 340.691406 114.894531 L 340.691406 323.015625 L 316.617188 323.015625 C 314.753906 323.015625 313.242188 324.527344 313.242188 326.390625 C 313.242188 328.253906 314.753906 329.769531 316.617188 329.769531 L 371.527344 329.769531 C 373.390625 329.769531 374.90625 328.253906 374.90625 326.390625 C 374.90625 324.527344 373.390625 323.015625 371.527344 323.015625 L 347.457031 323.015625 L 347.457031 114.894531 " fill-opacity="1" fill-rule="nonzero"/></g><path fill="#ffffff" d="M 88.828125 185.730469 C 89.128906 185.851562 89.429688 185.960938 89.726562 186.089844 C 100.429688 190.554688 108.996094 199.121094 113.460938 209.824219 C 115.632812 215.035156 116.839844 220.742188 116.839844 226.730469 L 116.839844 250.914062 L 252.511719 250.914062 L 252.511719 226.730469 C 252.511719 208.46875 263.683594 192.785156 279.542969 186.121094 L 279.542969 152.839844 C 279.542969 113.558594 247.582031 81.597656 208.292969 81.597656 L 159.511719 81.597656 C 120.535156 81.597656 88.828125 113.304688 88.828125 152.285156 L 88.828125 185.730469 " fill-opacity="1" fill-rule="nonzero"/><path fill="#ffffff" d="M 71.066406 189.46875 L 71.066406 323.011719 L 110.082031 323.011719 L 110.082031 226.730469 C 110.082031 206.1875 93.367188 189.46875 72.820312 189.46875 L 71.066406 189.46875 " fill-opacity="1" fill-rule="nonzero"/><path fill="#ffffff" d="M 252.511719 257.679688 L 116.839844 257.679688 L 116.839844 296.6875 L 252.511719 296.6875 L 252.511719 257.679688 " fill-opacity="1" fill-rule="nonzero"/><path fill="#ffffff" d="M 280.800781 205.539062 C 282.125 206.863281 282.125 208.996094 280.800781 210.320312 C 275.082031 216.039062 271.933594 223.652344 271.933594 231.742188 L 271.933594 301.300781 C 271.933594 303.164062 270.417969 304.675781 268.554688 304.675781 C 266.679688 304.675781 265.167969 303.164062 265.167969 301.300781 L 265.167969 231.742188 C 265.167969 221.847656 269.023438 212.542969 276.027344 205.539062 C 277.34375 204.222656 279.484375 204.222656 280.800781 205.539062 Z M 259.269531 226.730469 L 259.269531 323.011719 L 298.277344 323.011719 L 298.277344 189.46875 L 296.53125 189.46875 C 275.976562 189.46875 259.269531 206.1875 259.269531 226.730469 " fill-opacity="1" fill-rule="nonzero"/><path fill="#ffffff" d="M 42.015625 224.460938 C 41.308594 215.949219 35.980469 193.195312 0.09375 182.800781 C 3.125 194.597656 13.289062 222.386719 42.015625 224.460938 " fill-opacity="1" fill-rule="nonzero"/><path fill="#ffffff" d="M 43.75 176.15625 L 43.75 248.703125 L 50.507812 248.703125 L 50.507812 176.1875 L 43.75 176.125 L 43.75 149.664062 C 43.75 147.800781 45.261719 146.285156 47.128906 146.285156 C 48.996094 146.285156 50.507812 147.800781 50.507812 149.664062 L 50.507812 176.085938 C 57.394531 165.734375 65.960938 143.460938 46.976562 109.644531 C 40.238281 120.765625 25.539062 150.667969 43.75 176.15625 " fill-opacity="1" fill-rule="nonzero"/><path fill="#ffffff" d="M 34.84375 311.195312 L 64.308594 311.195312 L 64.308594 255.457031 L 26.988281 255.457031 L 34.84375 311.195312 " fill-opacity="1" fill-rule="nonzero"/><g clip-path="url(#654547dedd)"><path fill="#ffffff" d="M 336.984375 57.234375 C 336.984375 55.367188 338.488281 53.855469 340.363281 53.855469 C 349.917969 53.855469 357.957031 60.699219 359.480469 70.125 C 359.78125 71.96875 358.535156 73.703125 356.691406 74.003906 C 356.503906 74.035156 356.324219 74.046875 356.144531 74.046875 C 354.519531 74.046875 353.085938 72.871094 352.816406 71.210938 C 351.820312 65.070312 346.578125 60.613281 340.363281 60.613281 C 338.488281 60.613281 336.984375 59.097656 336.984375 57.234375 Z M 347.457031 114.894531 L 374.636719 114.894531 L 366.527344 64.878906 C 364.671875 53.5 354.957031 45.234375 343.429688 45.234375 C 331.902344 45.234375 322.1875 53.5 320.34375 64.878906 L 312.226562 114.894531 L 340.691406 114.894531 L 340.691406 323.015625 L 316.617188 323.015625 C 314.753906 323.015625 313.242188 324.527344 313.242188 326.390625 C 313.242188 328.253906 314.753906 329.769531 316.617188 329.769531 L 371.527344 329.769531 C 373.390625 329.769531 374.90625 328.253906 374.90625 326.390625 C 374.90625 324.527344 373.390625 323.015625 371.527344 323.015625 L 347.457031 323.015625 L 347.457031 114.894531 " fill-opacity="1" fill-rule="nonzero"/></g><path fill="#ffffff" d="M 88.828125 185.730469 C 89.128906 185.851562 89.429688 185.960938 89.726562 186.089844 C 100.429688 190.554688 108.996094 199.121094 113.460938 209.824219 C 115.632812 215.035156 116.839844 220.742188 116.839844 226.730469 L 116.839844 250.914062 L 252.511719 250.914062 L 252.511719 226.730469 C 252.511719 208.46875 263.683594 192.785156 279.542969 186.121094 L 279.542969 152.839844 C 279.542969 113.558594 247.582031 81.597656 208.292969 81.597656 L 159.511719 81.597656 C 120.535156 81.597656 88.828125 113.304688 88.828125 152.285156 L 88.828125 185.730469 " fill-opacity="1" fill-rule="nonzero"/><path fill="#ffffff" d="M 71.066406 189.46875 L 71.066406 323.011719 L 110.082031 323.011719 L 110.082031 226.730469 C 110.082031 206.1875 93.367188 189.46875 72.820312 189.46875 L 71.066406 189.46875 " fill-opacity="1" fill-rule="nonzero"/></svg>