<svg xmlns="http://www.w3.org/2000/svg" xmlns:xlink="http://www.w3.org/1999/xlink" width="500" zoomAndPan="magnify" viewBox="0 0 375 374.999991" height="500" preserveAspectRatio="xMidYMid meet" version="1.0"><path stroke-linecap="butt" transform="matrix(0.980649, 0, 0, 0.980649, 0.0000045, 0)" fill-opacity="1" fill="#00d300" fill-rule="nonzero" stroke-linejoin="miter" d="M 191.223902 381.945912 C 85.888632 381.945912 0.501895 296.555193 0.501895 191.223906 C 0.501895 85.888636 85.888632 0.5019 191.223902 0.5019 C 296.555188 0.5019 381.945908 85.888636 381.945908 191.223906 C 381.945908 296.555193 296.555188 381.945912 191.223902 381.945912 Z M 191.223902 381.945912 " stroke="#3fb24f" stroke-width="1" stroke-opacity="1" stroke-miterlimit="10"/><path fill="#ffffff" d="M 149.25 304.203125 L 68.628906 199.488281 L 99.710938 175.558594 L 150.355469 241.335938 L 275.765625 89.773438 L 305.988281 114.777344 Z M 149.25 304.203125 " fill-opacity="1" fill-rule="nonzero"/><path stroke-linecap="butt" transform="matrix(0.980649, 0, 0, 0.980649, 0.0000045, 0.000000000000063949)" fill-opacity="1" fill="#00d300" fill-rule="nonzero" stroke-linejoin="miter" d="M 191.223902 381.945912 C 85.888632 381.945912 0.501895 296.555193 0.501895 191.223906 C 0.501895 85.888636 85.888632 0.5019 191.223902 0.5019 C 296.555188 0.5019 381.945908 85.888636 381.945908 191.223906 C 381.945908 296.555193 296.555188 381.945912 191.223902 381.945912 Z M 191.223902 381.945912 " stroke="#3fb24f" stroke-width="1" stroke-opacity="1" stroke-miterlimit="10"/><path fill="#ffffff" d="M 149.25 304.203125 L 68.628906 199.488281 L 99.710938 175.558594 L 150.355469 241.335938 L 275.765625 89.773438 L 305.988281 114.777344 Z M 149.25 304.203125 " fill-opacity="1" fill-rule="nonzero"/></svg>