<svg xmlns="http://www.w3.org/2000/svg" xmlns:xlink="http://www.w3.org/1999/xlink" width="500" zoomAndPan="magnify" viewBox="0 0 375 149.999998" height="200" preserveAspectRatio="xMidYMid meet" version="1.0"><defs><g/><clipPath id="c3cccbf029"><path d="M 72.136719 39 L 144 39 L 144 77 L 72.136719 77 Z M 72.136719 39 " clip-rule="nonzero"/></clipPath><clipPath id="b214d18083"><path d="M 231 46 L 302.882812 46 L 302.882812 84 L 231 84 Z M 231 46 " clip-rule="nonzero"/></clipPath><clipPath id="e16d97ab9b"><path d="M 200 3.195312 L 221 3.195312 L 221 15 L 200 15 Z M 200 3.195312 " clip-rule="nonzero"/></clipPath><clipPath id="66a4e6e0d3"><path d="M 81 9 L 292 9 L 292 87.519531 L 81 87.519531 Z M 81 9 " clip-rule="nonzero"/></clipPath></defs><g fill="#000000" fill-opacity="1"><g transform="translate(34.165003, 148.240153)"><g><path d="M 2.5 0 L 2.5 -56.421875 L 13.734375 -56.421875 L 13.734375 -36.265625 L 19.046875 -36.265625 L 19.046875 -56.421875 L 30.28125 -56.421875 L 30.28125 0 L 19.046875 0 L 19.046875 -25.625 L 13.734375 -25.625 L 13.734375 0 Z M 2.5 0 "/></g></g></g><g fill="#000000" fill-opacity="1"><g transform="translate(71.54239, 148.240153)"><g><path d="M 16.21875 0.53125 C 11.445312 0.53125 7.769531 -0.8125 5.1875 -3.5 C 2.601562 -6.195312 1.3125 -10.046875 1.3125 -15.046875 L 1.3125 -40.53125 C 1.3125 -45.875 2.554688 -49.945312 5.046875 -52.75 C 7.546875 -55.550781 11.269531 -56.953125 16.21875 -56.953125 C 21.21875 -56.953125 24.960938 -55.550781 27.453125 -52.75 C 29.953125 -49.945312 31.203125 -45.875 31.203125 -40.53125 L 31.203125 -15.046875 C 31.203125 -10.003906 29.910156 -6.144531 27.328125 -3.46875 C 24.742188 -0.800781 21.039062 0.53125 16.21875 0.53125 Z M 16.21875 -9.859375 C 17.050781 -9.859375 17.726562 -10.238281 18.25 -11 C 18.78125 -11.769531 19.046875 -12.679688 19.046875 -13.734375 L 19.046875 -41.578125 C 19.046875 -43.203125 18.859375 -44.441406 18.484375 -45.296875 C 18.117188 -46.148438 17.363281 -46.578125 16.21875 -46.578125 C 15.082031 -46.578125 14.335938 -46.148438 13.984375 -45.296875 C 13.640625 -44.441406 13.46875 -43.203125 13.46875 -41.578125 L 13.46875 -13.734375 C 13.46875 -12.679688 13.71875 -11.769531 14.21875 -11 C 14.726562 -10.238281 15.394531 -9.859375 16.21875 -9.859375 Z M 16.21875 -9.859375 "/></g></g></g><g fill="#000000" fill-opacity="1"><g transform="translate(108.591328, 148.240153)"><g><path d="M 15.5625 0.53125 C 10.925781 0.53125 7.476562 -0.78125 5.21875 -3.40625 C 2.96875 -6.039062 1.84375 -9.941406 1.84375 -15.109375 L 1.84375 -56.421875 L 12.8125 -56.421875 L 12.8125 -15.5625 C 12.8125 -13.769531 12.984375 -12.367188 13.328125 -11.359375 C 13.679688 -10.359375 14.425781 -9.859375 15.5625 -9.859375 C 16.707031 -9.859375 17.453125 -10.347656 17.796875 -11.328125 C 18.148438 -12.316406 18.328125 -13.726562 18.328125 -15.5625 L 18.328125 -56.421875 L 29.296875 -56.421875 L 29.296875 -15.109375 C 29.296875 -9.941406 28.164062 -6.039062 25.90625 -3.40625 C 23.65625 -0.78125 20.207031 0.53125 15.5625 0.53125 Z M 15.5625 0.53125 "/></g></g></g><g fill="#000000" fill-opacity="1"><g transform="translate(144.326489, 148.240153)"><g><path d="M 15.890625 0.53125 C 10.765625 0.53125 7.0625 -0.738281 4.78125 -3.28125 C 2.507812 -5.820312 1.375 -9.914062 1.375 -15.5625 L 1.375 -21.078125 L 12.484375 -21.078125 L 12.484375 -14.0625 C 12.484375 -11.257812 13.378906 -9.859375 15.171875 -9.859375 C 16.179688 -9.859375 16.878906 -10.148438 17.265625 -10.734375 C 17.660156 -11.328125 17.859375 -12.328125 17.859375 -13.734375 C 17.859375 -15.566406 17.640625 -17.082031 17.203125 -18.28125 C 16.765625 -19.488281 16.207031 -20.5 15.53125 -21.3125 C 14.851562 -22.125 13.640625 -23.382812 11.890625 -25.09375 L 7.03125 -29.953125 C 3.257812 -33.628906 1.375 -37.703125 1.375 -42.171875 C 1.375 -46.984375 2.476562 -50.648438 4.6875 -53.171875 C 6.90625 -55.691406 10.140625 -56.953125 14.390625 -56.953125 C 19.460938 -56.953125 23.113281 -55.601562 25.34375 -52.90625 C 27.582031 -50.21875 28.703125 -46.003906 28.703125 -40.265625 L 17.203125 -40.265625 L 17.140625 -44.140625 C 17.140625 -44.890625 16.929688 -45.484375 16.515625 -45.921875 C 16.097656 -46.359375 15.519531 -46.578125 14.78125 -46.578125 C 13.90625 -46.578125 13.25 -46.332031 12.8125 -45.84375 C 12.375 -45.363281 12.15625 -44.707031 12.15625 -43.875 C 12.15625 -42.039062 13.207031 -40.140625 15.3125 -38.171875 L 21.875 -31.859375 C 23.40625 -30.367188 24.671875 -28.957031 25.671875 -27.625 C 26.679688 -26.289062 27.492188 -24.710938 28.109375 -22.890625 C 28.722656 -21.078125 29.03125 -18.921875 29.03125 -16.421875 C 29.03125 -10.859375 28.007812 -6.640625 25.96875 -3.765625 C 23.9375 -0.898438 20.578125 0.53125 15.890625 0.53125 Z M 15.890625 0.53125 "/></g></g></g><g fill="#000000" fill-opacity="1"><g transform="translate(179.207695, 148.240153)"><g><path d="M 2.5 0 L 2.5 -56.421875 L 25.09375 -56.421875 L 25.09375 -45.515625 L 13.984375 -45.515625 L 13.984375 -34.546875 L 24.625 -34.546875 L 24.625 -23.90625 L 13.984375 -23.90625 L 13.984375 -10.96875 L 25.8125 -10.96875 L 25.8125 0 Z M 2.5 0 "/></g></g></g><g fill="#000000" fill-opacity="1"><g transform="translate(210.870131, 148.240153)"><g><path d="M 2.5 0 L 2.5 -56.421875 L 13.796875 -56.421875 L 13.796875 -9.59375 L 25.421875 -9.59375 L 25.421875 0 Z M 2.5 0 "/></g></g></g><g fill="#000000" fill-opacity="1"><g transform="translate(241.547219, 148.240153)"><g><path d="M 2.5 0 L 2.5 -56.421875 L 25.09375 -56.421875 L 25.09375 -45.515625 L 13.984375 -45.515625 L 13.984375 -34.546875 L 24.625 -34.546875 L 24.625 -23.90625 L 13.984375 -23.90625 L 13.984375 -10.96875 L 25.8125 -10.96875 L 25.8125 0 Z M 2.5 0 "/></g></g></g><g fill="#000000" fill-opacity="1"><g transform="translate(273.209643, 148.240153)"><g><path d="M 2.5 0 L 2.5 -56.421875 L 14.125 -56.421875 L 19.3125 -29.421875 L 19.3125 -56.421875 L 30.21875 -56.421875 L 30.21875 0 L 19.1875 0 L 13.53125 -28.25 L 13.53125 0 Z M 2.5 0 "/></g></g></g><g fill="#000000" fill-opacity="1"><g transform="translate(310.521333, 148.240153)"><g><path d="M 15.890625 0.53125 C 10.765625 0.53125 7.0625 -0.738281 4.78125 -3.28125 C 2.507812 -5.820312 1.375 -9.914062 1.375 -15.5625 L 1.375 -21.078125 L 12.484375 -21.078125 L 12.484375 -14.0625 C 12.484375 -11.257812 13.378906 -9.859375 15.171875 -9.859375 C 16.179688 -9.859375 16.878906 -10.148438 17.265625 -10.734375 C 17.660156 -11.328125 17.859375 -12.328125 17.859375 -13.734375 C 17.859375 -15.566406 17.640625 -17.082031 17.203125 -18.28125 C 16.765625 -19.488281 16.207031 -20.5 15.53125 -21.3125 C 14.851562 -22.125 13.640625 -23.382812 11.890625 -25.09375 L 7.03125 -29.953125 C 3.257812 -33.628906 1.375 -37.703125 1.375 -42.171875 C 1.375 -46.984375 2.476562 -50.648438 4.6875 -53.171875 C 6.90625 -55.691406 10.140625 -56.953125 14.390625 -56.953125 C 19.460938 -56.953125 23.113281 -55.601562 25.34375 -52.90625 C 27.582031 -50.21875 28.703125 -46.003906 28.703125 -40.265625 L 17.203125 -40.265625 L 17.140625 -44.140625 C 17.140625 -44.890625 16.929688 -45.484375 16.515625 -45.921875 C 16.097656 -46.359375 15.519531 -46.578125 14.78125 -46.578125 C 13.90625 -46.578125 13.25 -46.332031 12.8125 -45.84375 C 12.375 -45.363281 12.15625 -44.707031 12.15625 -43.875 C 12.15625 -42.039062 13.207031 -40.140625 15.3125 -38.171875 L 21.875 -31.859375 C 23.40625 -30.367188 24.671875 -28.957031 25.671875 -27.625 C 26.679688 -26.289062 27.492188 -24.710938 28.109375 -22.890625 C 28.722656 -21.078125 29.03125 -18.921875 29.03125 -16.421875 C 29.03125 -10.859375 28.007812 -6.640625 25.96875 -3.765625 C 23.9375 -0.898438 20.578125 0.53125 15.890625 0.53125 Z M 15.890625 0.53125 "/></g></g></g><g clip-path="url(#c3cccbf029)"><path fill="#000000" d="M 79.492188 76.753906 L 116.421875 45.179688 L 143.082031 67.476562 L 115.003906 39.902344 L 72.136719 76.753906 Z M 79.492188 76.753906 " fill-opacity="1" fill-rule="evenodd"/></g><path fill="#000000" d="M 262.894531 77.859375 L 271.257812 77.859375 L 271.257812 86.300781 L 262.894531 86.300781 Z M 262.894531 77.859375 " fill-opacity="1" fill-rule="evenodd"/><path fill="#000000" d="M 253.328125 77.859375 L 261.671875 77.859375 L 261.671875 86.300781 L 253.328125 86.300781 Z M 253.328125 77.859375 " fill-opacity="1" fill-rule="evenodd"/><path fill="#000000" d="M 253.328125 68.175781 L 261.671875 68.175781 L 261.671875 76.617188 L 253.328125 76.617188 Z M 253.328125 68.175781 " fill-opacity="1" fill-rule="evenodd"/><path fill="#000000" d="M 262.894531 68.175781 L 271.257812 68.175781 L 271.257812 76.617188 L 262.894531 76.617188 Z M 262.894531 68.175781 " fill-opacity="1" fill-rule="evenodd"/><g clip-path="url(#b214d18083)"><path fill="#000000" d="M 259.90625 46.519531 L 231.398438 74.074219 L 258.316406 52.1875 L 295.265625 83.117188 L 302.851562 83.117188 Z M 259.90625 46.519531 " fill-opacity="1" fill-rule="evenodd"/></g><g clip-path="url(#e16d97ab9b)"><path fill="#000000" d="M 207.007812 7.105469 L 220.472656 14.148438 L 220.472656 10.773438 L 206.753906 3.300781 L 200.449219 8.753906 L 200.449219 12.851562 Z M 207.007812 7.105469 " fill-opacity="1" fill-rule="evenodd"/></g><g clip-path="url(#66a4e6e0d3)"><path fill="#000000" d="M 209.003906 87.289062 L 259.402344 38.15625 L 291.753906 63.558594 L 261.984375 35.398438 L 240.597656 39.570312 L 223.988281 23.890625 L 219.679688 23.890625 L 219.679688 16.265625 L 207.007812 9.628906 L 207.007812 24.824219 L 202.738281 19.097656 L 167.652344 10.578125 L 151.601562 25.949219 L 169.398438 12.5 L 208.851562 48.265625 L 199.574219 49.933594 L 191.308594 56.28125 L 176.597656 44.25 L 113.160156 28.878906 L 81.316406 58.046875 L 115.351562 31.324219 L 164.46875 79.605469 L 155.367188 87.289062 Z M 209.003906 87.289062 " fill-opacity="1" fill-rule="evenodd"/></g><path fill="#000000" d="M 170.503906 19.679688 L 152.476562 34.253906 L 156.863281 36.039062 C 156.863281 36.039062 170.660156 22.726562 170.660156 22.941406 C 170.660156 23.15625 194.21875 43.085938 194.21875 43.085938 Z M 170.503906 19.679688 " fill-opacity="1" fill-rule="evenodd"/><path fill="#000000" d="M 166.371094 29.324219 L 170.039062 29.324219 L 170.039062 33.03125 L 166.371094 33.03125 Z M 166.371094 29.324219 " fill-opacity="1" fill-rule="evenodd"/><path fill="#000000" d="M 166.371094 33.574219 L 170.039062 33.574219 L 170.039062 37.28125 L 166.371094 37.28125 Z M 166.371094 33.574219 " fill-opacity="1" fill-rule="evenodd"/><path fill="#000000" d="M 170.582031 33.574219 L 174.25 33.574219 L 174.25 37.28125 L 170.582031 37.28125 Z M 170.582031 33.574219 " fill-opacity="1" fill-rule="evenodd"/><path fill="#000000" d="M 170.582031 29.324219 L 174.25 29.324219 L 174.25 33.03125 L 170.582031 33.03125 Z M 170.582031 29.324219 " fill-opacity="1" fill-rule="evenodd"/><path fill="#000000" d="M 115.101562 73.628906 L 123.445312 73.628906 L 123.445312 82.070312 L 115.101562 82.070312 Z M 115.101562 73.628906 " fill-opacity="1" fill-rule="evenodd"/><path fill="#000000" d="M 105.511719 73.628906 L 113.859375 73.628906 L 113.859375 82.070312 L 105.511719 82.070312 Z M 105.511719 73.628906 " fill-opacity="1" fill-rule="evenodd"/><path fill="#000000" d="M 105.511719 63.945312 L 113.859375 63.945312 L 113.859375 72.40625 L 105.511719 72.40625 Z M 105.511719 63.945312 " fill-opacity="1" fill-rule="evenodd"/><path fill="#000000" d="M 115.101562 63.945312 L 123.445312 63.945312 L 123.445312 72.40625 L 115.101562 72.40625 Z M 115.101562 63.945312 " fill-opacity="1" fill-rule="evenodd"/></svg>