<svg xmlns="http://www.w3.org/2000/svg" xmlns:xlink="http://www.w3.org/1999/xlink" width="500" zoomAndPan="magnify" viewBox="0 0 375 374.999991" height="500" preserveAspectRatio="xMidYMid meet" version="1.0"><defs><clipPath id="4c6dcd8b70"><path d="M 0 13.59375 L 373 13.59375 L 373 361.59375 L 0 361.59375 Z M 0 13.59375 " clip-rule="nonzero"/></clipPath></defs><g clip-path="url(#4c6dcd8b70)"><path fill="#ffffff" d="M 186.164062 12.757812 L 0.238281 170.621094 L 17.585938 191 L 186.164062 47.875 L 319.9375 161.476562 L 319.9375 334.652344 L 266.425781 334.652344 L 266.425781 361.40625 L 333.3125 361.40625 C 334.191406 361.40625 335.0625 361.320312 335.921875 361.148438 C 336.785156 360.976562 337.621094 360.722656 338.433594 360.386719 C 339.246094 360.050781 340.015625 359.640625 340.746094 359.152344 C 341.476562 358.664062 342.152344 358.109375 342.773438 357.488281 C 343.394531 356.867188 343.949219 356.191406 344.4375 355.460938 C 344.925781 354.730469 345.335938 353.960938 345.671875 353.148438 C 346.007812 352.335938 346.261719 351.5 346.433594 350.636719 C 346.605469 349.777344 346.691406 348.90625 346.691406 348.027344 L 346.691406 184.15625 L 354.738281 191 L 372.085938 170.621094 Z M 132.652344 147.839844 L 0.289062 259.769531 L 17.535156 280.203125 L 25.632812 273.355469 L 25.632812 361.40625 L 239.671875 361.40625 L 239.671875 273.355469 L 247.769531 280.203125 L 265.015625 259.769531 Z M 132.652344 182.902344 L 212.917969 250.730469 L 212.917969 334.652344 L 52.386719 334.652344 L 52.386719 250.730469 Z M 132.652344 182.902344 " fill-opacity="1" fill-rule="nonzero"/><path fill="#ffffff" d="M 186.164062 12.757812 L 0.238281 170.621094 L 17.585938 191 L 186.164062 47.875 L 319.9375 161.476562 L 319.9375 334.652344 L 266.425781 334.652344 L 266.425781 361.40625 L 333.3125 361.40625 C 334.191406 361.40625 335.0625 361.320312 335.921875 361.148438 C 336.785156 360.976562 337.621094 360.722656 338.433594 360.386719 C 339.246094 360.050781 340.015625 359.640625 340.746094 359.152344 C 341.476562 358.664062 342.152344 358.109375 342.773438 357.488281 C 343.394531 356.867188 343.949219 356.191406 344.4375 355.460938 C 344.925781 354.730469 345.335938 353.960938 345.671875 353.148438 C 346.007812 352.335938 346.261719 351.5 346.433594 350.636719 C 346.605469 349.777344 346.691406 348.90625 346.691406 348.027344 L 346.691406 184.15625 L 354.738281 191 L 372.085938 170.621094 Z M 132.652344 147.839844 L 0.289062 259.769531 L 17.535156 280.203125 L 25.632812 273.355469 L 25.632812 361.40625 L 239.671875 361.40625 L 239.671875 273.355469 L 247.769531 280.203125 L 265.015625 259.769531 Z M 132.652344 182.902344 L 212.917969 250.730469 L 212.917969 334.652344 L 52.386719 334.652344 L 52.386719 250.730469 Z M 132.652344 182.902344 " fill-opacity="1" fill-rule="nonzero"/></g></svg>