<svg xmlns="http://www.w3.org/2000/svg" xmlns:xlink="http://www.w3.org/1999/xlink" width="500" zoomAndPan="magnify" viewBox="0 0 375 374.999991" height="500" preserveAspectRatio="xMidYMid meet" version="1.0"><defs><clipPath id="bc2ea63a8e"><path d="M 64.089844 2 L 310.839844 2 L 310.839844 373 L 64.089844 373 Z M 64.089844 2 " clip-rule="nonzero"/></clipPath></defs><g clip-path="url(#bc2ea63a8e)"><path fill="#ffffff" d="M 187.492188 2.15625 C 119.308594 2.15625 64.011719 57.449219 64.011719 125.660156 C 64.011719 193.84375 187.492188 372.589844 187.492188 372.589844 C 187.492188 372.589844 310.96875 193.84375 310.96875 125.660156 C 310.96875 57.449219 255.675781 2.15625 187.492188 2.15625 Z M 187.492188 184.121094 C 151.597656 184.121094 122.503906 155.054688 122.503906 119.128906 C 122.503906 83.261719 151.597656 54.167969 187.492188 54.167969 C 223.382812 54.167969 252.453125 83.261719 252.453125 119.128906 C 252.453125 155.054688 223.382812 184.121094 187.492188 184.121094 Z M 187.492188 184.121094 " fill-opacity="1" fill-rule="nonzero"/></g></svg>