<svg xmlns="http://www.w3.org/2000/svg" xmlns:xlink="http://www.w3.org/1999/xlink" width="500" zoomAndPan="magnify" viewBox="0 0 375 374.999991" height="500" preserveAspectRatio="xMidYMid meet" version="1.0"><defs><clipPath id="a876d63a35"><path d="M 64.089844 2 L 310.839844 2 L 310.839844 373 L 64.089844 373 Z M 64.089844 2 " clip-rule="nonzero"/></clipPath></defs><g clip-path="url(#a876d63a35)"><path fill="#000000" d="M 187.460938 2.15625 C 119.292969 2.15625 64.011719 57.449219 64.011719 125.660156 C 64.011719 193.84375 187.460938 372.589844 187.460938 372.589844 C 187.460938 372.589844 310.910156 193.84375 310.910156 125.660156 C 310.910156 57.449219 255.628906 2.15625 187.460938 2.15625 Z M 187.460938 184.121094 C 151.574219 184.121094 122.488281 155.054688 122.488281 119.128906 C 122.488281 83.261719 151.574219 54.167969 187.460938 54.167969 C 223.347656 54.167969 252.40625 83.261719 252.40625 119.128906 C 252.40625 155.054688 223.347656 184.121094 187.460938 184.121094 Z M 187.460938 184.121094 " fill-opacity="1" fill-rule="nonzero"/></g></svg>