<svg xmlns="http://www.w3.org/2000/svg" xmlns:xlink="http://www.w3.org/1999/xlink" width="500" zoomAndPan="magnify" viewBox="0 0 375 374.999991" height="500" preserveAspectRatio="xMidYMid meet" version="1.0"><defs><clipPath id="f1a7c12974"><path d="M 37.5 176 L 291 176 L 291 302 L 37.5 302 Z M 37.5 176 " clip-rule="nonzero"/></clipPath><clipPath id="3af9c123d9"><path d="M 37.5 1 L 330 1 L 330 375 L 37.5 375 Z M 37.5 1 " clip-rule="nonzero"/></clipPath><clipPath id="2a09b1a923"><path d="M 37.5 176 L 291 176 L 291 302 L 37.5 302 Z M 37.5 176 " clip-rule="nonzero"/></clipPath><clipPath id="7a51cfb152"><path d="M 37.5 1 L 330 1 L 330 375 L 37.5 375 Z M 37.5 1 " clip-rule="nonzero"/></clipPath></defs><g clip-path="url(#f1a7c12974)"><path fill="#000000" d="M 41.875 176.128906 L 268.425781 176.128906 C 274.550781 176.128906 280.015625 178.753906 283.953125 182.6875 L 280.890625 185.75 L 283.953125 182.6875 C 287.890625 186.625 290.292969 192.09375 290.292969 197.996094 L 290.292969 280 C 290.292969 286.125 287.890625 291.589844 283.953125 295.527344 L 280.890625 292.464844 L 283.953125 295.527344 C 280.015625 299.464844 274.550781 301.871094 268.425781 301.871094 L 41.875 301.871094 C 39.46875 301.871094 37.5 299.902344 37.5 297.496094 L 37.5 180.503906 C 37.5 178.097656 39.46875 176.128906 41.875 176.128906 Z M 268.425781 184.875 L 46.246094 184.875 L 46.246094 293.121094 L 268.425781 293.121094 C 272.144531 293.121094 275.425781 291.589844 277.828125 289.1875 L 277.828125 289.40625 C 280.234375 287 281.546875 283.71875 281.546875 280 L 281.546875 197.996094 C 281.546875 194.496094 280.234375 191.21875 277.828125 188.8125 C 275.425781 186.40625 272.144531 184.875 268.425781 184.875 Z M 268.425781 184.875 " fill-opacity="1" fill-rule="nonzero"/></g><path fill="#000000" d="M 101.355469 273.003906 L 101.355469 205.214844 C 111.195312 205.214844 137.65625 204.121094 145.089844 206.960938 C 158.210938 211.992188 162.585938 238.453125 136.34375 242.171875 C 142.246094 244.792969 145.527344 248.730469 149.246094 254.417969 L 161.054688 273.003906 L 149.683594 273.003906 C 129.347656 240.859375 133.0625 242.824219 110.320312 242.824219 L 110.320312 273.003906 Z M 110.320312 235.171875 C 117.101562 235.171875 133.71875 235.828125 139.1875 233.859375 C 149.027344 230.144531 150.558594 212.648438 131.75 212.648438 L 110.320312 212.648438 Z M 169.144531 273.003906 L 169.144531 205.214844 L 182.703125 205.214844 C 188.390625 222.269531 197.136719 246.761719 201.949219 263.164062 C 207.414062 246.105469 215.722656 222.707031 221.847656 205.214844 L 233.875 205.214844 L 233.875 273.003906 L 225.347656 273.003906 L 225.347656 216.148438 L 205.664062 273.003906 L 197.574219 273.003906 L 177.894531 215.273438 L 177.894531 273.003906 Z M 169.144531 273.003906 " fill-opacity="1" fill-rule="nonzero"/><g clip-path="url(#3af9c123d9)"><path fill="#000000" d="M 329.875 89.75 C 329.875 84.0625 321.128906 84.0625 321.128906 89.75 L 321.128906 352.605469 C 321.128906 356.320312 319.597656 359.601562 317.191406 362.226562 C 314.785156 364.632812 311.289062 366.160156 307.789062 366.160156 L 59.585938 366.160156 C 55.871094 366.160156 52.589844 364.632812 50.183594 362.226562 L 47.121094 365.285156 L 50.183594 362.226562 C 47.558594 359.601562 46.246094 356.320312 46.246094 352.605469 L 46.246094 23.707031 C 46.246094 16.492188 52.152344 10.367188 59.585938 10.367188 L 241.746094 10.367188 C 247.433594 10.367188 247.433594 1.621094 241.746094 1.621094 L 59.585938 1.621094 C 47.339844 1.621094 37.5 11.679688 37.5 23.707031 L 37.5 352.605469 C 37.5 358.726562 39.90625 364.414062 43.839844 368.347656 C 47.996094 372.285156 53.464844 374.910156 59.585938 374.910156 L 307.789062 374.910156 C 313.910156 374.910156 319.378906 372.285156 323.316406 368.347656 L 320.253906 365.285156 L 323.316406 368.347656 C 327.46875 364.195312 329.875 358.726562 329.875 352.605469 Z M 329.875 89.75 " fill-opacity="1" fill-rule="nonzero"/></g><path fill="#000000" d="M 244.808594 2.933594 L 328.5625 86.6875 C 331.40625 89.53125 329.4375 94.125 325.5 94.125 L 259.460938 94.125 C 247.214844 94.125 237.375 84.28125 237.375 72.035156 L 237.375 5.996094 C 237.375 2.058594 242.183594 0.0898438 244.808594 2.933594 Z M 315.003906 85.375 L 246.121094 16.492188 L 246.121094 72.035156 C 246.121094 79.472656 252.023438 85.375 259.460938 85.375 Z M 315.003906 85.375 " fill-opacity="1" fill-rule="nonzero"/><path fill="#000000" d="M 69.863281 147.917969 C 63.960938 147.917969 63.960938 156.667969 69.863281 156.667969 L 257.929688 156.667969 C 263.835938 156.667969 263.835938 147.917969 257.929688 147.917969 Z M 69.863281 147.917969 " fill-opacity="1" fill-rule="nonzero"/><path fill="#000000" d="M 69.863281 114.460938 C 63.960938 114.460938 63.960938 123.207031 69.863281 123.207031 L 257.929688 123.207031 C 263.835938 123.207031 263.835938 114.460938 257.929688 114.460938 Z M 69.863281 114.460938 " fill-opacity="1" fill-rule="nonzero"/><g clip-path="url(#2a09b1a923)"><path fill="#000000" d="M 41.875 176.128906 L 268.425781 176.128906 C 274.550781 176.128906 280.015625 178.753906 283.953125 182.6875 L 280.890625 185.75 L 283.953125 182.6875 C 287.890625 186.625 290.292969 192.09375 290.292969 197.996094 L 290.292969 280 C 290.292969 286.125 287.890625 291.589844 283.953125 295.527344 L 280.890625 292.464844 L 283.953125 295.527344 C 280.015625 299.464844 274.550781 301.871094 268.425781 301.871094 L 41.875 301.871094 C 39.46875 301.871094 37.5 299.902344 37.5 297.496094 L 37.5 180.503906 C 37.5 178.097656 39.46875 176.128906 41.875 176.128906 Z M 268.425781 184.875 L 46.246094 184.875 L 46.246094 293.121094 L 268.425781 293.121094 C 272.144531 293.121094 275.425781 291.589844 277.828125 289.1875 L 277.828125 289.40625 C 280.234375 287 281.546875 283.71875 281.546875 280 L 281.546875 197.996094 C 281.546875 194.496094 280.234375 191.21875 277.828125 188.8125 C 275.425781 186.40625 272.144531 184.875 268.425781 184.875 Z M 268.425781 184.875 " fill-opacity="1" fill-rule="nonzero"/></g><path fill="#000000" d="M 101.355469 273.003906 L 101.355469 205.214844 C 111.195312 205.214844 137.65625 204.121094 145.089844 206.960938 C 158.210938 211.992188 162.585938 238.453125 136.34375 242.171875 C 142.246094 244.792969 145.527344 248.730469 149.246094 254.417969 L 161.054688 273.003906 L 149.683594 273.003906 C 129.347656 240.859375 133.0625 242.824219 110.320312 242.824219 L 110.320312 273.003906 Z M 110.320312 235.171875 C 117.101562 235.171875 133.71875 235.828125 139.1875 233.859375 C 149.027344 230.144531 150.558594 212.648438 131.75 212.648438 L 110.320312 212.648438 Z M 169.144531 273.003906 L 169.144531 205.214844 L 182.703125 205.214844 C 188.390625 222.269531 197.136719 246.761719 201.949219 263.164062 C 207.414062 246.105469 215.722656 222.707031 221.847656 205.214844 L 233.875 205.214844 L 233.875 273.003906 L 225.347656 273.003906 L 225.347656 216.148438 L 205.664062 273.003906 L 197.574219 273.003906 L 177.894531 215.273438 L 177.894531 273.003906 Z M 169.144531 273.003906 " fill-opacity="1" fill-rule="nonzero"/><g clip-path="url(#7a51cfb152)"><path fill="#000000" d="M 329.875 89.75 C 329.875 84.0625 321.128906 84.0625 321.128906 89.75 L 321.128906 352.605469 C 321.128906 356.320312 319.597656 359.601562 317.191406 362.226562 C 314.785156 364.632812 311.289062 366.160156 307.789062 366.160156 L 59.585938 366.160156 C 55.871094 366.160156 52.589844 364.632812 50.183594 362.226562 L 47.121094 365.285156 L 50.183594 362.226562 C 47.558594 359.601562 46.246094 356.320312 46.246094 352.605469 L 46.246094 23.707031 C 46.246094 16.492188 52.152344 10.367188 59.585938 10.367188 L 241.746094 10.367188 C 247.433594 10.367188 247.433594 1.621094 241.746094 1.621094 L 59.585938 1.621094 C 47.339844 1.621094 37.5 11.679688 37.5 23.707031 L 37.5 352.605469 C 37.5 358.726562 39.90625 364.414062 43.839844 368.347656 C 47.996094 372.285156 53.464844 374.910156 59.585938 374.910156 L 307.789062 374.910156 C 313.910156 374.910156 319.378906 372.285156 323.316406 368.347656 L 320.253906 365.285156 L 323.316406 368.347656 C 327.46875 364.195312 329.875 358.726562 329.875 352.605469 Z M 329.875 89.75 " fill-opacity="1" fill-rule="nonzero"/></g><path fill="#000000" d="M 244.808594 2.933594 L 328.5625 86.6875 C 331.40625 89.53125 329.4375 94.125 325.5 94.125 L 259.460938 94.125 C 247.214844 94.125 237.375 84.28125 237.375 72.035156 L 237.375 5.996094 C 237.375 2.058594 242.183594 0.0898438 244.808594 2.933594 Z M 315.003906 85.375 L 246.121094 16.492188 L 246.121094 72.035156 C 246.121094 79.472656 252.023438 85.375 259.460938 85.375 Z M 315.003906 85.375 " fill-opacity="1" fill-rule="nonzero"/><path fill="#000000" d="M 69.863281 147.917969 C 63.960938 147.917969 63.960938 156.667969 69.863281 156.667969 L 257.929688 156.667969 C 263.835938 156.667969 263.835938 147.917969 257.929688 147.917969 Z M 69.863281 147.917969 " fill-opacity="1" fill-rule="nonzero"/><path fill="#000000" d="M 69.863281 114.460938 C 63.960938 114.460938 63.960938 123.207031 69.863281 123.207031 L 257.929688 123.207031 C 263.835938 123.207031 263.835938 114.460938 257.929688 114.460938 Z M 69.863281 114.460938 " fill-opacity="1" fill-rule="nonzero"/></svg>