<svg xmlns="http://www.w3.org/2000/svg" xmlns:xlink="http://www.w3.org/1999/xlink" width="500" zoomAndPan="magnify" viewBox="0 0 375 374.999991" height="500" preserveAspectRatio="xMidYMid meet" version="1.0"><defs><clipPath id="9c400c2530"><path d="M 40.546875 176 L 294 176 L 294 302 L 40.546875 302 Z M 40.546875 176 " clip-rule="nonzero"/></clipPath><clipPath id="b17c5d26dc"><path d="M 40.546875 1 L 333 1 L 333 375 L 40.546875 375 Z M 40.546875 1 " clip-rule="nonzero"/></clipPath><clipPath id="a18a9a5534"><path d="M 40.546875 176 L 294 176 L 294 302 L 40.546875 302 Z M 40.546875 176 " clip-rule="nonzero"/></clipPath><clipPath id="6644d036e3"><path d="M 40.546875 1 L 333 1 L 333 375 L 40.546875 375 Z M 40.546875 1 " clip-rule="nonzero"/></clipPath></defs><g clip-path="url(#9c400c2530)"><path fill="#ffffff" d="M 44.921875 176.128906 L 271.472656 176.128906 C 277.597656 176.128906 283.0625 178.753906 287 182.6875 L 283.9375 185.75 L 287 182.6875 C 290.9375 186.625 293.339844 192.09375 293.339844 197.996094 L 293.339844 280 C 293.339844 286.125 290.9375 291.589844 287 295.527344 L 283.9375 292.464844 L 287 295.527344 C 283.0625 299.464844 277.597656 301.871094 271.472656 301.871094 L 44.921875 301.871094 C 42.515625 301.871094 40.546875 299.902344 40.546875 297.496094 L 40.546875 180.503906 C 40.546875 178.097656 42.515625 176.128906 44.921875 176.128906 Z M 271.472656 184.875 L 49.292969 184.875 L 49.292969 293.121094 L 271.472656 293.121094 C 275.191406 293.121094 278.472656 291.589844 280.875 289.1875 L 280.875 289.40625 C 283.28125 287 284.59375 283.71875 284.59375 280 L 284.59375 197.996094 C 284.59375 194.496094 283.28125 191.21875 280.875 188.8125 C 278.472656 186.40625 275.191406 184.875 271.472656 184.875 Z M 271.472656 184.875 " fill-opacity="1" fill-rule="nonzero"/></g><path fill="#ffffff" d="M 104.402344 273.003906 L 104.402344 205.214844 C 114.242188 205.214844 140.703125 204.121094 148.136719 206.960938 C 161.257812 211.992188 165.632812 238.453125 139.390625 242.171875 C 145.292969 244.792969 148.574219 248.730469 152.292969 254.417969 L 164.101562 273.003906 L 152.730469 273.003906 C 132.394531 240.859375 136.109375 242.824219 113.367188 242.824219 L 113.367188 273.003906 Z M 113.367188 235.171875 C 120.148438 235.171875 136.765625 235.828125 142.234375 233.859375 C 152.074219 230.144531 153.605469 212.648438 134.796875 212.648438 L 113.367188 212.648438 Z M 172.191406 273.003906 L 172.191406 205.214844 L 185.75 205.214844 C 191.4375 222.269531 200.183594 246.761719 204.996094 263.164062 C 210.460938 246.105469 218.769531 222.707031 224.894531 205.214844 L 236.921875 205.214844 L 236.921875 273.003906 L 228.394531 273.003906 L 228.394531 216.148438 L 208.710938 273.003906 L 200.621094 273.003906 L 180.941406 215.273438 L 180.941406 273.003906 Z M 172.191406 273.003906 " fill-opacity="1" fill-rule="nonzero"/><g clip-path="url(#b17c5d26dc)"><path fill="#ffffff" d="M 332.921875 89.75 C 332.921875 84.0625 324.175781 84.0625 324.175781 89.75 L 324.175781 352.605469 C 324.175781 356.320312 322.644531 359.601562 320.238281 362.226562 C 317.832031 364.632812 314.335938 366.160156 310.835938 366.160156 L 62.632812 366.160156 C 58.917969 366.160156 55.636719 364.632812 53.230469 362.226562 L 50.167969 365.285156 L 53.230469 362.226562 C 50.605469 359.601562 49.292969 356.320312 49.292969 352.605469 L 49.292969 23.707031 C 49.292969 16.492188 55.199219 10.367188 62.632812 10.367188 L 244.792969 10.367188 C 250.480469 10.367188 250.480469 1.621094 244.792969 1.621094 L 62.632812 1.621094 C 50.386719 1.621094 40.546875 11.679688 40.546875 23.707031 L 40.546875 352.605469 C 40.546875 358.726562 42.953125 364.414062 46.886719 368.347656 C 51.042969 372.285156 56.511719 374.910156 62.632812 374.910156 L 310.835938 374.910156 C 316.957031 374.910156 322.425781 372.285156 326.363281 368.347656 L 323.300781 365.285156 L 326.363281 368.347656 C 330.515625 364.195312 332.921875 358.726562 332.921875 352.605469 Z M 332.921875 89.75 " fill-opacity="1" fill-rule="nonzero"/></g><path fill="#ffffff" d="M 247.855469 2.933594 L 331.609375 86.6875 C 334.453125 89.53125 332.484375 94.125 328.546875 94.125 L 262.507812 94.125 C 250.261719 94.125 240.421875 84.28125 240.421875 72.035156 L 240.421875 5.996094 C 240.421875 2.058594 245.230469 0.0898438 247.855469 2.933594 Z M 318.050781 85.375 L 249.167969 16.492188 L 249.167969 72.035156 C 249.167969 79.472656 255.070312 85.375 262.507812 85.375 Z M 318.050781 85.375 " fill-opacity="1" fill-rule="nonzero"/><path fill="#ffffff" d="M 72.910156 147.917969 C 67.007812 147.917969 67.007812 156.667969 72.910156 156.667969 L 260.976562 156.667969 C 266.882812 156.667969 266.882812 147.917969 260.976562 147.917969 Z M 72.910156 147.917969 " fill-opacity="1" fill-rule="nonzero"/><path fill="#ffffff" d="M 72.910156 114.460938 C 67.007812 114.460938 67.007812 123.207031 72.910156 123.207031 L 260.976562 123.207031 C 266.882812 123.207031 266.882812 114.460938 260.976562 114.460938 Z M 72.910156 114.460938 " fill-opacity="1" fill-rule="nonzero"/><g clip-path="url(#a18a9a5534)"><path fill="#ffffff" d="M 44.921875 176.128906 L 271.472656 176.128906 C 277.597656 176.128906 283.0625 178.753906 287 182.6875 L 283.9375 185.75 L 287 182.6875 C 290.9375 186.625 293.339844 192.09375 293.339844 197.996094 L 293.339844 280 C 293.339844 286.125 290.9375 291.589844 287 295.527344 L 283.9375 292.464844 L 287 295.527344 C 283.0625 299.464844 277.597656 301.871094 271.472656 301.871094 L 44.921875 301.871094 C 42.515625 301.871094 40.546875 299.902344 40.546875 297.496094 L 40.546875 180.503906 C 40.546875 178.097656 42.515625 176.128906 44.921875 176.128906 Z M 271.472656 184.875 L 49.292969 184.875 L 49.292969 293.121094 L 271.472656 293.121094 C 275.191406 293.121094 278.472656 291.589844 280.875 289.1875 L 280.875 289.40625 C 283.28125 287 284.59375 283.71875 284.59375 280 L 284.59375 197.996094 C 284.59375 194.496094 283.28125 191.21875 280.875 188.8125 C 278.472656 186.40625 275.191406 184.875 271.472656 184.875 Z M 271.472656 184.875 " fill-opacity="1" fill-rule="nonzero"/></g><path fill="#ffffff" d="M 104.402344 273.003906 L 104.402344 205.214844 C 114.242188 205.214844 140.703125 204.121094 148.136719 206.960938 C 161.257812 211.992188 165.632812 238.453125 139.390625 242.171875 C 145.292969 244.792969 148.574219 248.730469 152.292969 254.417969 L 164.101562 273.003906 L 152.730469 273.003906 C 132.394531 240.859375 136.109375 242.824219 113.367188 242.824219 L 113.367188 273.003906 Z M 113.367188 235.171875 C 120.148438 235.171875 136.765625 235.828125 142.234375 233.859375 C 152.074219 230.144531 153.605469 212.648438 134.796875 212.648438 L 113.367188 212.648438 Z M 172.191406 273.003906 L 172.191406 205.214844 L 185.75 205.214844 C 191.4375 222.269531 200.183594 246.761719 204.996094 263.164062 C 210.460938 246.105469 218.769531 222.707031 224.894531 205.214844 L 236.921875 205.214844 L 236.921875 273.003906 L 228.394531 273.003906 L 228.394531 216.148438 L 208.710938 273.003906 L 200.621094 273.003906 L 180.941406 215.273438 L 180.941406 273.003906 Z M 172.191406 273.003906 " fill-opacity="1" fill-rule="nonzero"/><g clip-path="url(#6644d036e3)"><path fill="#ffffff" d="M 332.921875 89.75 C 332.921875 84.0625 324.175781 84.0625 324.175781 89.75 L 324.175781 352.605469 C 324.175781 356.320312 322.644531 359.601562 320.238281 362.226562 C 317.832031 364.632812 314.335938 366.160156 310.835938 366.160156 L 62.632812 366.160156 C 58.917969 366.160156 55.636719 364.632812 53.230469 362.226562 L 50.167969 365.285156 L 53.230469 362.226562 C 50.605469 359.601562 49.292969 356.320312 49.292969 352.605469 L 49.292969 23.707031 C 49.292969 16.492188 55.199219 10.367188 62.632812 10.367188 L 244.792969 10.367188 C 250.480469 10.367188 250.480469 1.621094 244.792969 1.621094 L 62.632812 1.621094 C 50.386719 1.621094 40.546875 11.679688 40.546875 23.707031 L 40.546875 352.605469 C 40.546875 358.726562 42.953125 364.414062 46.886719 368.347656 C 51.042969 372.285156 56.511719 374.910156 62.632812 374.910156 L 310.835938 374.910156 C 316.957031 374.910156 322.425781 372.285156 326.363281 368.347656 L 323.300781 365.285156 L 326.363281 368.347656 C 330.515625 364.195312 332.921875 358.726562 332.921875 352.605469 Z M 332.921875 89.75 " fill-opacity="1" fill-rule="nonzero"/></g><path fill="#ffffff" d="M 247.855469 2.933594 L 331.609375 86.6875 C 334.453125 89.53125 332.484375 94.125 328.546875 94.125 L 262.507812 94.125 C 250.261719 94.125 240.421875 84.28125 240.421875 72.035156 L 240.421875 5.996094 C 240.421875 2.058594 245.230469 0.0898438 247.855469 2.933594 Z M 318.050781 85.375 L 249.167969 16.492188 L 249.167969 72.035156 C 249.167969 79.472656 255.070312 85.375 262.507812 85.375 Z M 318.050781 85.375 " fill-opacity="1" fill-rule="nonzero"/><path fill="#ffffff" d="M 72.910156 147.917969 C 67.007812 147.917969 67.007812 156.667969 72.910156 156.667969 L 260.976562 156.667969 C 266.882812 156.667969 266.882812 147.917969 260.976562 147.917969 Z M 72.910156 147.917969 " fill-opacity="1" fill-rule="nonzero"/><path fill="#ffffff" d="M 72.910156 114.460938 C 67.007812 114.460938 67.007812 123.207031 72.910156 123.207031 L 260.976562 123.207031 C 266.882812 123.207031 266.882812 114.460938 260.976562 114.460938 Z M 72.910156 114.460938 " fill-opacity="1" fill-rule="nonzero"/></svg>