<svg xmlns="http://www.w3.org/2000/svg" xmlns:xlink="http://www.w3.org/1999/xlink" width="500" zoomAndPan="magnify" viewBox="0 0 375 374.999991" height="500" preserveAspectRatio="xMidYMid meet" version="1.0"><defs><clipPath id="9398c64c33"><path d="M 8.4375 0 L 366.9375 0 L 366.9375 375 L 8.4375 375 Z M 8.4375 0 " clip-rule="nonzero"/></clipPath></defs><g clip-path="url(#9398c64c33)"><path fill="#000000" d="M 187.6875 0.203125 L 8.929688 65.671875 L 8.929688 304.019531 L 187.6875 375.4375 L 366.445312 304.019531 L 366.445312 65.671875 L 362.660156 64.289062 Z M 187.6875 12.46875 L 354.914062 73.726562 L 354.914062 296.210938 L 187.6875 363.039062 L 20.460938 296.210938 L 20.460938 73.726562 Z M 187.6875 17.855469 C 187.308594 17.855469 186.933594 17.894531 186.5625 17.96875 C 186.191406 18.042969 185.832031 18.152344 185.480469 18.296875 C 185.132812 18.441406 184.796875 18.617188 184.484375 18.828125 C 184.167969 19.039062 183.878906 19.277344 183.609375 19.542969 C 183.34375 19.8125 183.101562 20.101562 182.894531 20.417969 C 182.683594 20.730469 182.503906 21.0625 182.359375 21.414062 C 182.214844 21.761719 182.105469 22.121094 182.03125 22.492188 C 181.957031 22.863281 181.921875 23.238281 181.921875 23.617188 C 181.921875 23.996094 181.957031 24.371094 182.03125 24.742188 C 182.105469 25.113281 182.214844 25.472656 182.359375 25.820312 C 182.503906 26.171875 182.683594 26.503906 182.894531 26.816406 C 183.101562 27.132812 183.34375 27.421875 183.609375 27.691406 C 183.878906 27.957031 184.167969 28.195312 184.484375 28.40625 C 184.796875 28.617188 185.132812 28.792969 185.480469 28.9375 C 185.832031 29.085938 186.191406 29.195312 186.5625 29.265625 C 186.933594 29.339844 187.308594 29.378906 187.6875 29.378906 C 188.066406 29.378906 188.441406 29.339844 188.8125 29.265625 C 189.183594 29.195312 189.542969 29.085938 189.894531 28.9375 C 190.242188 28.792969 190.578125 28.617188 190.890625 28.40625 C 191.207031 28.195312 191.496094 27.957031 191.765625 27.691406 C 192.03125 27.421875 192.273438 27.132812 192.480469 26.816406 C 192.691406 26.503906 192.871094 26.171875 193.015625 25.820312 C 193.160156 25.472656 193.269531 25.113281 193.34375 24.742188 C 193.417969 24.371094 193.453125 23.996094 193.453125 23.617188 C 193.453125 23.238281 193.417969 22.863281 193.34375 22.492188 C 193.269531 22.121094 193.160156 21.761719 193.015625 21.414062 C 192.871094 21.0625 192.691406 20.730469 192.480469 20.417969 C 192.273438 20.101562 192.03125 19.8125 191.765625 19.542969 C 191.496094 19.277344 191.207031 19.039062 190.890625 18.828125 C 190.578125 18.617188 190.242188 18.441406 189.894531 18.296875 C 189.542969 18.152344 189.183594 18.042969 188.8125 17.96875 C 188.441406 17.894531 188.066406 17.855469 187.6875 17.855469 Z M 187.6875 40.898438 C 187.308594 40.898438 186.933594 40.933594 186.5625 41.007812 C 186.191406 41.082031 185.832031 41.191406 185.480469 41.335938 C 185.132812 41.480469 184.796875 41.660156 184.484375 41.871094 C 184.167969 42.078125 183.878906 42.316406 183.609375 42.585938 C 183.34375 42.851562 183.101562 43.144531 182.894531 43.457031 C 182.683594 43.773438 182.503906 44.105469 182.359375 44.453125 C 182.214844 44.804688 182.105469 45.164062 182.03125 45.535156 C 181.957031 45.90625 181.921875 46.28125 181.921875 46.660156 C 181.921875 47.039062 181.957031 47.410156 182.03125 47.78125 C 182.105469 48.152344 182.214844 48.515625 182.359375 48.863281 C 182.503906 49.210938 182.683594 49.542969 182.894531 49.859375 C 183.101562 50.171875 183.34375 50.464844 183.609375 50.730469 C 183.878906 51 184.167969 51.238281 184.484375 51.449219 C 184.796875 51.660156 185.132812 51.835938 185.480469 51.980469 C 185.832031 52.125 186.191406 52.234375 186.5625 52.308594 C 186.933594 52.382812 187.308594 52.417969 187.6875 52.417969 C 188.066406 52.417969 188.441406 52.382812 188.8125 52.308594 C 189.183594 52.234375 189.542969 52.125 189.894531 51.980469 C 190.242188 51.835938 190.578125 51.660156 190.890625 51.449219 C 191.207031 51.238281 191.496094 51 191.765625 50.730469 C 192.03125 50.464844 192.273438 50.171875 192.480469 49.859375 C 192.691406 49.542969 192.871094 49.210938 193.015625 48.863281 C 193.160156 48.515625 193.269531 48.152344 193.34375 47.78125 C 193.417969 47.410156 193.453125 47.039062 193.453125 46.660156 C 193.453125 46.28125 193.417969 45.90625 193.34375 45.535156 C 193.269531 45.164062 193.160156 44.804688 193.015625 44.453125 C 192.871094 44.105469 192.691406 43.773438 192.480469 43.457031 C 192.273438 43.144531 192.03125 42.851562 191.765625 42.585938 C 191.496094 42.316406 191.207031 42.078125 190.890625 41.871094 C 190.578125 41.660156 190.242188 41.480469 189.894531 41.335938 C 189.542969 41.191406 189.183594 41.082031 188.8125 41.007812 C 188.441406 40.933594 188.066406 40.898438 187.6875 40.898438 Z M 187.6875 63.941406 C 187.308594 63.941406 186.933594 63.976562 186.5625 64.050781 C 186.191406 64.125 185.832031 64.234375 185.480469 64.378906 C 185.132812 64.523438 184.796875 64.699219 184.484375 64.910156 C 184.167969 65.121094 183.878906 65.359375 183.609375 65.628906 C 183.34375 65.894531 183.101562 66.1875 182.894531 66.5 C 182.683594 66.816406 182.503906 67.148438 182.359375 67.496094 C 182.214844 67.84375 182.105469 68.207031 182.03125 68.578125 C 181.957031 68.949219 181.921875 69.320312 181.921875 69.699219 C 181.921875 70.078125 181.957031 70.453125 182.03125 70.824219 C 182.105469 71.195312 182.214844 71.554688 182.359375 71.90625 C 182.503906 72.253906 182.683594 72.585938 182.894531 72.902344 C 183.101562 73.214844 183.34375 73.507812 183.609375 73.773438 C 183.878906 74.042969 184.167969 74.28125 184.484375 74.488281 C 184.796875 74.699219 185.132812 74.878906 185.480469 75.023438 C 185.832031 75.167969 186.191406 75.277344 186.5625 75.351562 C 186.933594 75.425781 187.308594 75.460938 187.6875 75.460938 C 188.066406 75.460938 188.441406 75.425781 188.8125 75.351562 C 189.183594 75.277344 189.542969 75.167969 189.894531 75.023438 C 190.242188 74.878906 190.578125 74.699219 190.890625 74.488281 C 191.207031 74.28125 191.496094 74.042969 191.765625 73.773438 C 192.03125 73.507812 192.273438 73.214844 192.480469 72.902344 C 192.691406 72.585938 192.871094 72.253906 193.015625 71.90625 C 193.160156 71.554688 193.269531 71.195312 193.34375 70.824219 C 193.417969 70.453125 193.453125 70.078125 193.453125 69.699219 C 193.453125 69.320312 193.417969 68.949219 193.34375 68.578125 C 193.269531 68.207031 193.160156 67.84375 193.015625 67.496094 C 192.871094 67.148438 192.691406 66.816406 192.480469 66.5 C 192.273438 66.1875 192.03125 65.894531 191.765625 65.628906 C 191.496094 65.359375 191.207031 65.121094 190.890625 64.910156 C 190.578125 64.699219 190.242188 64.523438 189.894531 64.378906 C 189.542969 64.234375 189.183594 64.125 188.8125 64.050781 C 188.441406 63.976562 188.066406 63.941406 187.6875 63.941406 Z M 187.6875 86.980469 C 187.308594 86.980469 186.933594 87.019531 186.5625 87.09375 C 186.191406 87.167969 185.832031 87.273438 185.480469 87.421875 C 185.132812 87.566406 184.796875 87.742188 184.484375 87.953125 C 184.167969 88.164062 183.878906 88.402344 183.609375 88.667969 C 183.34375 88.9375 183.101562 89.226562 182.894531 89.542969 C 182.683594 89.855469 182.503906 90.1875 182.359375 90.539062 C 182.214844 90.886719 182.105469 91.246094 182.03125 91.617188 C 181.957031 91.988281 181.921875 92.363281 181.921875 92.742188 C 181.921875 93.121094 181.957031 93.496094 182.03125 93.867188 C 182.105469 94.238281 182.214844 94.597656 182.359375 94.945312 C 182.503906 95.296875 182.683594 95.628906 182.894531 95.941406 C 183.101562 96.257812 183.34375 96.546875 183.609375 96.816406 C 183.878906 97.082031 184.167969 97.320312 184.484375 97.53125 C 184.796875 97.742188 185.132812 97.917969 185.480469 98.0625 C 185.832031 98.207031 186.191406 98.316406 186.5625 98.390625 C 186.933594 98.464844 187.308594 98.503906 187.6875 98.503906 C 188.066406 98.503906 188.441406 98.464844 188.8125 98.390625 C 189.183594 98.316406 189.542969 98.207031 189.894531 98.0625 C 190.242188 97.917969 190.578125 97.742188 190.890625 97.53125 C 191.207031 97.320312 191.496094 97.082031 191.765625 96.816406 C 192.03125 96.546875 192.273438 96.257812 192.480469 95.941406 C 192.691406 95.628906 192.871094 95.296875 193.015625 94.945312 C 193.160156 94.597656 193.269531 94.238281 193.34375 93.867188 C 193.417969 93.496094 193.453125 93.121094 193.453125 92.742188 C 193.453125 92.363281 193.417969 91.988281 193.34375 91.617188 C 193.269531 91.246094 193.160156 90.886719 193.015625 90.539062 C 192.871094 90.1875 192.691406 89.855469 192.480469 89.542969 C 192.273438 89.226562 192.03125 88.9375 191.765625 88.667969 C 191.496094 88.402344 191.207031 88.164062 190.890625 87.953125 C 190.578125 87.742188 190.242188 87.566406 189.894531 87.421875 C 189.542969 87.273438 189.183594 87.167969 188.8125 87.09375 C 188.441406 87.019531 188.066406 86.980469 187.6875 86.980469 Z M 147.324219 97.164062 L 55.058594 133.335938 L 55.058594 211.785156 L 63.023438 208.5 L 147.324219 173.824219 Z M 239.585938 107.492188 L 239.585938 257.9375 L 251.398438 262.648438 L 251.941406 262.863281 L 273.351562 271.425781 L 273.609375 271.527344 L 273.890625 271.640625 L 295.300781 280.191406 L 295.851562 280.414062 L 308.78125 285.578125 L 308.78125 133.253906 Z M 187.6875 110.023438 C 187.308594 110.023438 186.933594 110.058594 186.5625 110.132812 C 186.191406 110.207031 185.832031 110.316406 185.480469 110.460938 C 185.132812 110.605469 184.796875 110.785156 184.484375 110.992188 C 184.167969 111.203125 183.878906 111.441406 183.609375 111.710938 C 183.34375 111.976562 183.101562 112.269531 182.894531 112.582031 C 182.683594 112.898438 182.503906 113.230469 182.359375 113.578125 C 182.214844 113.929688 182.105469 114.289062 182.03125 114.660156 C 181.957031 115.03125 181.921875 115.40625 181.921875 115.785156 C 181.921875 116.160156 181.957031 116.535156 182.03125 116.90625 C 182.105469 117.277344 182.214844 117.636719 182.359375 117.988281 C 182.503906 118.335938 182.683594 118.667969 182.894531 118.984375 C 183.101562 119.296875 183.34375 119.589844 183.609375 119.855469 C 183.878906 120.125 184.167969 120.363281 184.484375 120.574219 C 184.796875 120.78125 185.132812 120.960938 185.480469 121.105469 C 185.832031 121.25 186.191406 121.359375 186.5625 121.433594 C 186.933594 121.507812 187.308594 121.542969 187.6875 121.542969 C 188.066406 121.542969 188.441406 121.507812 188.8125 121.433594 C 189.183594 121.359375 189.542969 121.25 189.894531 121.105469 C 190.242188 120.960938 190.578125 120.78125 190.890625 120.574219 C 191.207031 120.363281 191.496094 120.125 191.765625 119.855469 C 192.03125 119.589844 192.273438 119.296875 192.480469 118.984375 C 192.691406 118.667969 192.871094 118.335938 193.015625 117.988281 C 193.160156 117.636719 193.269531 117.277344 193.34375 116.90625 C 193.417969 116.535156 193.453125 116.160156 193.453125 115.785156 C 193.453125 115.40625 193.417969 115.03125 193.34375 114.660156 C 193.269531 114.289062 193.160156 113.929688 193.015625 113.578125 C 192.871094 113.230469 192.691406 112.898438 192.480469 112.582031 C 192.273438 112.269531 192.03125 111.976562 191.765625 111.710938 C 191.496094 111.441406 191.207031 111.203125 190.890625 110.992188 C 190.578125 110.785156 190.242188 110.605469 189.894531 110.460938 C 189.542969 110.316406 189.183594 110.207031 188.8125 110.132812 C 188.441406 110.058594 188.066406 110.023438 187.6875 110.023438 Z M 135.789062 114.0625 L 135.789062 166.117188 L 66.59375 194.582031 L 66.59375 141.1875 Z M 251.117188 124.085938 L 297.25 141.253906 L 297.25 268.566406 L 278.183594 260.941406 L 278.171875 260.941406 L 277.628906 260.726562 L 255.722656 251.960938 L 255.679688 251.949219 L 251.117188 250.128906 Z M 187.6875 133.066406 C 187.308594 133.066406 186.933594 133.101562 186.5625 133.175781 C 186.191406 133.25 185.832031 133.359375 185.480469 133.503906 C 185.132812 133.648438 184.796875 133.824219 184.484375 134.035156 C 184.167969 134.246094 183.878906 134.484375 183.609375 134.75 C 183.34375 135.019531 183.101562 135.308594 182.894531 135.625 C 182.683594 135.9375 182.503906 136.269531 182.359375 136.621094 C 182.214844 136.96875 182.105469 137.332031 182.03125 137.699219 C 181.957031 138.070312 181.921875 138.445312 181.921875 138.824219 C 181.921875 139.203125 181.957031 139.578125 182.03125 139.949219 C 182.105469 140.320312 182.214844 140.679688 182.359375 141.027344 C 182.503906 141.378906 182.683594 141.710938 182.894531 142.023438 C 183.101562 142.339844 183.34375 142.628906 183.609375 142.898438 C 183.878906 143.164062 184.167969 143.40625 184.484375 143.613281 C 184.796875 143.824219 185.132812 144.003906 185.480469 144.148438 C 185.832031 144.292969 186.191406 144.402344 186.5625 144.472656 C 186.933594 144.546875 187.308594 144.585938 187.6875 144.585938 C 188.066406 144.585938 188.441406 144.546875 188.8125 144.472656 C 189.183594 144.402344 189.542969 144.292969 189.894531 144.148438 C 190.242188 144.003906 190.578125 143.824219 190.890625 143.613281 C 191.207031 143.40625 191.496094 143.164062 191.765625 142.898438 C 192.03125 142.628906 192.273438 142.339844 192.480469 142.023438 C 192.691406 141.710938 192.871094 141.378906 193.015625 141.027344 C 193.160156 140.679688 193.269531 140.320312 193.34375 139.949219 C 193.417969 139.578125 193.453125 139.203125 193.453125 138.824219 C 193.453125 138.445312 193.417969 138.070312 193.34375 137.699219 C 193.269531 137.332031 193.160156 136.96875 193.015625 136.621094 C 192.871094 136.269531 192.691406 135.9375 192.480469 135.625 C 192.273438 135.308594 192.03125 135.019531 191.765625 134.75 C 191.496094 134.484375 191.207031 134.246094 190.890625 134.035156 C 190.578125 133.824219 190.242188 133.648438 189.894531 133.503906 C 189.542969 133.359375 189.183594 133.25 188.8125 133.175781 C 188.441406 133.101562 188.066406 133.066406 187.6875 133.066406 Z M 187.6875 156.105469 C 187.308594 156.105469 186.933594 156.144531 186.5625 156.214844 C 186.191406 156.289062 185.832031 156.398438 185.480469 156.542969 C 185.132812 156.6875 184.796875 156.867188 184.484375 157.078125 C 184.167969 157.285156 183.878906 157.527344 183.609375 157.792969 C 183.34375 158.0625 183.101562 158.351562 182.894531 158.667969 C 182.683594 158.980469 182.503906 159.3125 182.359375 159.660156 C 182.214844 160.011719 182.105469 160.371094 182.03125 160.742188 C 181.957031 161.113281 181.921875 161.488281 181.921875 161.867188 C 181.921875 162.246094 181.957031 162.621094 182.03125 162.988281 C 182.105469 163.359375 182.214844 163.722656 182.359375 164.070312 C 182.503906 164.421875 182.683594 164.753906 182.894531 165.066406 C 183.101562 165.382812 183.34375 165.671875 183.609375 165.941406 C 183.878906 166.207031 184.167969 166.445312 184.484375 166.65625 C 184.796875 166.867188 185.132812 167.042969 185.480469 167.1875 C 185.832031 167.332031 186.191406 167.441406 186.5625 167.515625 C 186.933594 167.589844 187.308594 167.625 187.6875 167.625 C 188.066406 167.625 188.441406 167.589844 188.8125 167.515625 C 189.183594 167.441406 189.542969 167.332031 189.894531 167.1875 C 190.242188 167.042969 190.578125 166.867188 190.890625 166.65625 C 191.207031 166.445312 191.496094 166.207031 191.765625 165.941406 C 192.03125 165.671875 192.273438 165.382812 192.480469 165.066406 C 192.691406 164.753906 192.871094 164.421875 193.015625 164.070312 C 193.160156 163.722656 193.269531 163.359375 193.34375 162.988281 C 193.417969 162.621094 193.453125 162.246094 193.453125 161.867188 C 193.453125 161.488281 193.417969 161.113281 193.34375 160.742188 C 193.269531 160.371094 193.160156 160.011719 193.015625 159.660156 C 192.871094 159.3125 192.691406 158.980469 192.480469 158.667969 C 192.273438 158.351562 192.03125 158.0625 191.765625 157.792969 C 191.496094 157.527344 191.207031 157.285156 190.890625 157.078125 C 190.578125 156.867188 190.242188 156.6875 189.894531 156.542969 C 189.542969 156.398438 189.183594 156.289062 188.8125 156.214844 C 188.441406 156.144531 188.066406 156.105469 187.6875 156.105469 Z M 187.6875 179.148438 C 187.308594 179.148438 186.933594 179.183594 186.5625 179.257812 C 186.191406 179.332031 185.832031 179.441406 185.480469 179.585938 C 185.132812 179.730469 184.796875 179.90625 184.484375 180.117188 C 184.167969 180.328125 183.878906 180.566406 183.609375 180.835938 C 183.34375 181.101562 183.101562 181.394531 182.894531 181.707031 C 182.683594 182.023438 182.503906 182.355469 182.359375 182.703125 C 182.214844 183.054688 182.105469 183.414062 182.03125 183.785156 C 181.957031 184.15625 181.921875 184.53125 181.921875 184.90625 C 181.921875 185.285156 181.957031 185.660156 182.03125 186.03125 C 182.105469 186.402344 182.214844 186.761719 182.359375 187.113281 C 182.503906 187.460938 182.683594 187.792969 182.894531 188.109375 C 183.101562 188.421875 183.34375 188.714844 183.609375 188.980469 C 183.878906 189.25 184.167969 189.488281 184.484375 189.699219 C 184.796875 189.90625 185.132812 190.085938 185.480469 190.230469 C 185.832031 190.375 186.191406 190.484375 186.5625 190.558594 C 186.933594 190.632812 187.308594 190.667969 187.6875 190.667969 C 188.066406 190.667969 188.441406 190.632812 188.8125 190.558594 C 189.183594 190.484375 189.542969 190.375 189.894531 190.230469 C 190.242188 190.085938 190.578125 189.90625 190.890625 189.699219 C 191.207031 189.488281 191.496094 189.25 191.765625 188.980469 C 192.03125 188.714844 192.273438 188.421875 192.480469 188.109375 C 192.691406 187.792969 192.871094 187.460938 193.015625 187.113281 C 193.160156 186.761719 193.269531 186.402344 193.34375 186.03125 C 193.417969 185.660156 193.453125 185.285156 193.453125 184.90625 C 193.453125 184.53125 193.417969 184.15625 193.34375 183.785156 C 193.269531 183.414062 193.160156 183.054688 193.015625 182.703125 C 192.871094 182.355469 192.691406 182.023438 192.480469 181.707031 C 192.273438 181.394531 192.03125 181.101562 191.765625 180.835938 C 191.496094 180.566406 191.207031 180.328125 190.890625 180.117188 C 190.578125 179.90625 190.242188 179.730469 189.894531 179.585938 C 189.542969 179.441406 189.183594 179.332031 188.8125 179.257812 C 188.441406 179.183594 188.066406 179.148438 187.6875 179.148438 Z M 187.6875 202.1875 C 187.308594 202.1875 186.933594 202.226562 186.5625 202.300781 C 186.191406 202.375 185.832031 202.484375 185.480469 202.628906 C 185.132812 202.773438 184.796875 202.949219 184.484375 203.160156 C 184.167969 203.371094 183.878906 203.609375 183.609375 203.875 C 183.34375 204.144531 183.101562 204.433594 182.894531 204.75 C 182.683594 205.0625 182.503906 205.394531 182.359375 205.746094 C 182.214844 206.09375 182.105469 206.453125 182.03125 206.824219 C 181.957031 207.195312 181.921875 207.570312 181.921875 207.949219 C 181.921875 208.328125 181.957031 208.703125 182.03125 209.074219 C 182.105469 209.445312 182.214844 209.804688 182.359375 210.152344 C 182.503906 210.503906 182.683594 210.835938 182.894531 211.148438 C 183.101562 211.464844 183.34375 211.753906 183.609375 212.023438 C 183.878906 212.289062 184.167969 212.527344 184.484375 212.738281 C 184.796875 212.949219 185.132812 213.125 185.480469 213.269531 C 185.832031 213.414062 186.191406 213.523438 186.5625 213.597656 C 186.933594 213.671875 187.308594 213.710938 187.6875 213.710938 C 188.066406 213.710938 188.441406 213.671875 188.8125 213.597656 C 189.183594 213.523438 189.542969 213.414062 189.894531 213.269531 C 190.242188 213.125 190.578125 212.949219 190.890625 212.738281 C 191.207031 212.527344 191.496094 212.289062 191.765625 212.023438 C 192.03125 211.753906 192.273438 211.464844 192.480469 211.148438 C 192.691406 210.835938 192.871094 210.503906 193.015625 210.152344 C 193.160156 209.804688 193.269531 209.445312 193.34375 209.074219 C 193.417969 208.703125 193.453125 208.328125 193.453125 207.949219 C 193.453125 207.570312 193.417969 207.195312 193.34375 206.824219 C 193.269531 206.453125 193.160156 206.09375 193.015625 205.746094 C 192.871094 205.394531 192.691406 205.0625 192.480469 204.75 C 192.273438 204.433594 192.03125 204.144531 191.765625 203.875 C 191.496094 203.609375 191.207031 203.371094 190.890625 203.160156 C 190.578125 202.949219 190.242188 202.773438 189.894531 202.628906 C 189.542969 202.484375 189.183594 202.375 188.8125 202.300781 C 188.441406 202.226562 188.066406 202.1875 187.6875 202.1875 Z M 187.542969 225.230469 L 185.546875 225.648438 L 185.007812 225.859375 L 184.828125 226.0625 L 184.679688 226.074219 L 184.355469 226.589844 L 181.582031 229.71875 L 182.621094 234.769531 L 184.273438 235.546875 L 185.546875 236.335938 L 186.078125 236.546875 L 186.371094 236.527344 L 187.304688 236.964844 L 189.296875 236.546875 L 189.828125 236.335938 L 189.917969 236.234375 L 191.234375 236.121094 L 193.960938 231.746094 L 192.089844 226.929688 L 190.367188 225.859375 L 189.828125 225.648438 L 188.632812 225.746094 Z M 165.589844 234.007812 L 163.597656 234.410156 L 163.054688 234.625 L 159.632812 238.484375 L 160.667969 243.546875 L 165.355469 245.730469 L 167.347656 245.324219 L 167.875 245.109375 L 171.3125 241.25 L 170.265625 236.199219 Z M 211.777344 234.410156 L 206.632812 234.851562 L 203.894531 239.226562 L 205.773438 244.042969 L 207.5 245.109375 L 208.027344 245.324219 L 213.1875 244.898438 L 215.910156 240.507812 L 214.042969 235.703125 L 212.320312 234.625 Z M 143.628906 242.769531 L 141.644531 243.1875 L 141.105469 243.398438 L 137.683594 247.257812 L 138.71875 252.3125 L 143.402344 254.503906 L 145.386719 254.101562 L 145.925781 253.886719 L 149.359375 250.015625 L 148.3125 244.964844 Z M 233.730469 243.1875 L 228.582031 243.613281 L 225.84375 248 L 227.726562 252.804688 L 229.449219 253.886719 L 229.988281 254.101562 L 235.136719 253.660156 L 237.863281 249.285156 L 235.992188 244.46875 L 234.269531 243.398438 Z M 121.679688 251.546875 L 119.695312 251.949219 L 119.15625 252.175781 L 115.730469 256.035156 L 116.765625 261.085938 L 121.453125 263.28125 L 123.433594 262.863281 L 123.976562 262.648438 L 127.398438 258.792969 L 126.363281 253.738281 Z M 99.726562 260.320312 L 97.746094 260.726562 L 97.203125 260.941406 L 93.78125 264.800781 L 94.816406 269.863281 L 99.503906 272.042969 L 101.484375 271.640625 L 102.023438 271.425781 L 105.449219 267.566406 L 104.414062 262.503906 Z M 77.777344 269.085938 L 75.792969 269.503906 L 75.253906 269.714844 L 71.832031 273.574219 L 72.867188 278.625 L 77.550781 280.820312 L 79.535156 280.414062 L 80.074219 280.191406 L 83.5 276.332031 L 82.460938 271.28125 Z M 55.824219 277.859375 L 53.832031 278.265625 L 53.304688 278.480469 L 49.867188 282.351562 L 50.914062 287.402344 L 55.601562 289.597656 L 57.582031 289.179688 L 58.125 288.964844 L 61.546875 285.105469 L 60.511719 280.054688 Z M 321.542969 278.265625 L 316.382812 278.707031 L 313.660156 283.082031 L 315.527344 287.898438 L 317.25 288.964844 L 317.792969 289.179688 L 322.9375 288.753906 L 325.675781 284.363281 L 323.792969 279.558594 L 322.070312 278.480469 Z M 33.875 286.636719 L 31.882812 287.042969 L 31.351562 287.253906 L 27.917969 291.113281 L 28.964844 296.167969 L 33.640625 298.359375 L 35.632812 297.953125 L 36.171875 297.742188 L 39.597656 293.882812 L 38.5625 288.820312 Z M 343.492188 287.042969 L 338.335938 287.46875 L 335.609375 291.855469 L 337.480469 296.660156 L 339.203125 297.742188 L 339.742188 297.953125 L 344.890625 297.515625 L 347.625 293.140625 L 345.746094 288.335938 L 344.023438 287.253906 Z M 343.492188 287.042969 " fill-opacity="1" fill-rule="nonzero"/><path fill="#000000" d="M 187.6875 0.203125 L 8.929688 65.671875 L 8.929688 304.019531 L 187.6875 375.4375 L 366.445312 304.019531 L 366.445312 65.671875 L 362.660156 64.289062 Z M 187.6875 12.46875 L 354.914062 73.726562 L 354.914062 296.210938 L 187.6875 363.039062 L 20.460938 296.210938 L 20.460938 73.726562 Z M 187.6875 17.855469 C 187.308594 17.855469 186.933594 17.894531 186.5625 17.96875 C 186.191406 18.042969 185.832031 18.152344 185.480469 18.296875 C 185.132812 18.441406 184.796875 18.617188 184.484375 18.828125 C 184.167969 19.039062 183.878906 19.277344 183.609375 19.542969 C 183.34375 19.8125 183.101562 20.101562 182.894531 20.417969 C 182.683594 20.730469 182.503906 21.0625 182.359375 21.414062 C 182.214844 21.761719 182.105469 22.121094 182.03125 22.492188 C 181.957031 22.863281 181.921875 23.238281 181.921875 23.617188 C 181.921875 23.996094 181.957031 24.371094 182.03125 24.742188 C 182.105469 25.113281 182.214844 25.472656 182.359375 25.820312 C 182.503906 26.171875 182.683594 26.503906 182.894531 26.816406 C 183.101562 27.132812 183.34375 27.421875 183.609375 27.691406 C 183.878906 27.957031 184.167969 28.195312 184.484375 28.40625 C 184.796875 28.617188 185.132812 28.792969 185.480469 28.9375 C 185.832031 29.085938 186.191406 29.195312 186.5625 29.265625 C 186.933594 29.339844 187.308594 29.378906 187.6875 29.378906 C 188.066406 29.378906 188.441406 29.339844 188.8125 29.265625 C 189.183594 29.195312 189.542969 29.085938 189.894531 28.9375 C 190.242188 28.792969 190.578125 28.617188 190.890625 28.40625 C 191.207031 28.195312 191.496094 27.957031 191.765625 27.691406 C 192.03125 27.421875 192.273438 27.132812 192.480469 26.816406 C 192.691406 26.503906 192.871094 26.171875 193.015625 25.820312 C 193.160156 25.472656 193.269531 25.113281 193.34375 24.742188 C 193.417969 24.371094 193.453125 23.996094 193.453125 23.617188 C 193.453125 23.238281 193.417969 22.863281 193.34375 22.492188 C 193.269531 22.121094 193.160156 21.761719 193.015625 21.414062 C 192.871094 21.0625 192.691406 20.730469 192.480469 20.417969 C 192.273438 20.101562 192.03125 19.8125 191.765625 19.542969 C 191.496094 19.277344 191.207031 19.039062 190.890625 18.828125 C 190.578125 18.617188 190.242188 18.441406 189.894531 18.296875 C 189.542969 18.152344 189.183594 18.042969 188.8125 17.96875 C 188.441406 17.894531 188.066406 17.855469 187.6875 17.855469 Z M 187.6875 40.898438 C 187.308594 40.898438 186.933594 40.933594 186.5625 41.007812 C 186.191406 41.082031 185.832031 41.191406 185.480469 41.335938 C 185.132812 41.480469 184.796875 41.660156 184.484375 41.871094 C 184.167969 42.078125 183.878906 42.316406 183.609375 42.585938 C 183.34375 42.851562 183.101562 43.144531 182.894531 43.457031 C 182.683594 43.773438 182.503906 44.105469 182.359375 44.453125 C 182.214844 44.804688 182.105469 45.164062 182.03125 45.535156 C 181.957031 45.90625 181.921875 46.28125 181.921875 46.660156 C 181.921875 47.039062 181.957031 47.410156 182.03125 47.78125 C 182.105469 48.152344 182.214844 48.515625 182.359375 48.863281 C 182.503906 49.210938 182.683594 49.542969 182.894531 49.859375 C 183.101562 50.171875 183.34375 50.464844 183.609375 50.730469 C 183.878906 51 184.167969 51.238281 184.484375 51.449219 C 184.796875 51.660156 185.132812 51.835938 185.480469 51.980469 C 185.832031 52.125 186.191406 52.234375 186.5625 52.308594 C 186.933594 52.382812 187.308594 52.417969 187.6875 52.417969 C 188.066406 52.417969 188.441406 52.382812 188.8125 52.308594 C 189.183594 52.234375 189.542969 52.125 189.894531 51.980469 C 190.242188 51.835938 190.578125 51.660156 190.890625 51.449219 C 191.207031 51.238281 191.496094 51 191.765625 50.730469 C 192.03125 50.464844 192.273438 50.171875 192.480469 49.859375 C 192.691406 49.542969 192.871094 49.210938 193.015625 48.863281 C 193.160156 48.515625 193.269531 48.152344 193.34375 47.78125 C 193.417969 47.410156 193.453125 47.039062 193.453125 46.660156 C 193.453125 46.28125 193.417969 45.90625 193.34375 45.535156 C 193.269531 45.164062 193.160156 44.804688 193.015625 44.453125 C 192.871094 44.105469 192.691406 43.773438 192.480469 43.457031 C 192.273438 43.144531 192.03125 42.851562 191.765625 42.585938 C 191.496094 42.316406 191.207031 42.078125 190.890625 41.871094 C 190.578125 41.660156 190.242188 41.480469 189.894531 41.335938 C 189.542969 41.191406 189.183594 41.082031 188.8125 41.007812 C 188.441406 40.933594 188.066406 40.898438 187.6875 40.898438 Z M 187.6875 63.941406 C 187.308594 63.941406 186.933594 63.976562 186.5625 64.050781 C 186.191406 64.125 185.832031 64.234375 185.480469 64.378906 C 185.132812 64.523438 184.796875 64.699219 184.484375 64.910156 C 184.167969 65.121094 183.878906 65.359375 183.609375 65.628906 C 183.34375 65.894531 183.101562 66.1875 182.894531 66.5 C 182.683594 66.816406 182.503906 67.148438 182.359375 67.496094 C 182.214844 67.84375 182.105469 68.207031 182.03125 68.578125 C 181.957031 68.949219 181.921875 69.320312 181.921875 69.699219 C 181.921875 70.078125 181.957031 70.453125 182.03125 70.824219 C 182.105469 71.195312 182.214844 71.554688 182.359375 71.90625 C 182.503906 72.253906 182.683594 72.585938 182.894531 72.902344 C 183.101562 73.214844 183.34375 73.507812 183.609375 73.773438 C 183.878906 74.042969 184.167969 74.28125 184.484375 74.488281 C 184.796875 74.699219 185.132812 74.878906 185.480469 75.023438 C 185.832031 75.167969 186.191406 75.277344 186.5625 75.351562 C 186.933594 75.425781 187.308594 75.460938 187.6875 75.460938 C 188.066406 75.460938 188.441406 75.425781 188.8125 75.351562 C 189.183594 75.277344 189.542969 75.167969 189.894531 75.023438 C 190.242188 74.878906 190.578125 74.699219 190.890625 74.488281 C 191.207031 74.28125 191.496094 74.042969 191.765625 73.773438 C 192.03125 73.507812 192.273438 73.214844 192.480469 72.902344 C 192.691406 72.585938 192.871094 72.253906 193.015625 71.90625 C 193.160156 71.554688 193.269531 71.195312 193.34375 70.824219 C 193.417969 70.453125 193.453125 70.078125 193.453125 69.699219 C 193.453125 69.320312 193.417969 68.949219 193.34375 68.578125 C 193.269531 68.207031 193.160156 67.84375 193.015625 67.496094 C 192.871094 67.148438 192.691406 66.816406 192.480469 66.5 C 192.273438 66.1875 192.03125 65.894531 191.765625 65.628906 C 191.496094 65.359375 191.207031 65.121094 190.890625 64.910156 C 190.578125 64.699219 190.242188 64.523438 189.894531 64.378906 C 189.542969 64.234375 189.183594 64.125 188.8125 64.050781 C 188.441406 63.976562 188.066406 63.941406 187.6875 63.941406 Z M 187.6875 86.980469 C 187.308594 86.980469 186.933594 87.019531 186.5625 87.09375 C 186.191406 87.167969 185.832031 87.273438 185.480469 87.421875 C 185.132812 87.566406 184.796875 87.742188 184.484375 87.953125 C 184.167969 88.164062 183.878906 88.402344 183.609375 88.667969 C 183.34375 88.9375 183.101562 89.226562 182.894531 89.542969 C 182.683594 89.855469 182.503906 90.1875 182.359375 90.539062 C 182.214844 90.886719 182.105469 91.246094 182.03125 91.617188 C 181.957031 91.988281 181.921875 92.363281 181.921875 92.742188 C 181.921875 93.121094 181.957031 93.496094 182.03125 93.867188 C 182.105469 94.238281 182.214844 94.597656 182.359375 94.945312 C 182.503906 95.296875 182.683594 95.628906 182.894531 95.941406 C 183.101562 96.257812 183.34375 96.546875 183.609375 96.816406 C 183.878906 97.082031 184.167969 97.320312 184.484375 97.53125 C 184.796875 97.742188 185.132812 97.917969 185.480469 98.0625 C 185.832031 98.207031 186.191406 98.316406 186.5625 98.390625 C 186.933594 98.464844 187.308594 98.503906 187.6875 98.503906 C 188.066406 98.503906 188.441406 98.464844 188.8125 98.390625 C 189.183594 98.316406 189.542969 98.207031 189.894531 98.0625 C 190.242188 97.917969 190.578125 97.742188 190.890625 97.53125 C 191.207031 97.320312 191.496094 97.082031 191.765625 96.816406 C 192.03125 96.546875 192.273438 96.257812 192.480469 95.941406 C 192.691406 95.628906 192.871094 95.296875 193.015625 94.945312 C 193.160156 94.597656 193.269531 94.238281 193.34375 93.867188 C 193.417969 93.496094 193.453125 93.121094 193.453125 92.742188 C 193.453125 92.363281 193.417969 91.988281 193.34375 91.617188 C 193.269531 91.246094 193.160156 90.886719 193.015625 90.539062 C 192.871094 90.1875 192.691406 89.855469 192.480469 89.542969 C 192.273438 89.226562 192.03125 88.9375 191.765625 88.667969 C 191.496094 88.402344 191.207031 88.164062 190.890625 87.953125 C 190.578125 87.742188 190.242188 87.566406 189.894531 87.421875 C 189.542969 87.273438 189.183594 87.167969 188.8125 87.09375 C 188.441406 87.019531 188.066406 86.980469 187.6875 86.980469 Z M 147.324219 97.164062 L 55.058594 133.335938 L 55.058594 211.785156 L 63.023438 208.5 L 147.324219 173.824219 Z M 239.585938 107.492188 L 239.585938 257.9375 L 251.398438 262.648438 L 251.941406 262.863281 L 273.351562 271.425781 L 273.609375 271.527344 L 273.890625 271.640625 L 295.300781 280.191406 L 295.851562 280.414062 L 308.78125 285.578125 L 308.78125 133.253906 Z M 187.6875 110.023438 C 187.308594 110.023438 186.933594 110.058594 186.5625 110.132812 C 186.191406 110.207031 185.832031 110.316406 185.480469 110.460938 C 185.132812 110.605469 184.796875 110.785156 184.484375 110.992188 C 184.167969 111.203125 183.878906 111.441406 183.609375 111.710938 C 183.34375 111.976562 183.101562 112.269531 182.894531 112.582031 C 182.683594 112.898438 182.503906 113.230469 182.359375 113.578125 C 182.214844 113.929688 182.105469 114.289062 182.03125 114.660156 C 181.957031 115.03125 181.921875 115.40625 181.921875 115.785156 C 181.921875 116.160156 181.957031 116.535156 182.03125 116.90625 C 182.105469 117.277344 182.214844 117.636719 182.359375 117.988281 C 182.503906 118.335938 182.683594 118.667969 182.894531 118.984375 C 183.101562 119.296875 183.34375 119.589844 183.609375 119.855469 C 183.878906 120.125 184.167969 120.363281 184.484375 120.574219 C 184.796875 120.78125 185.132812 120.960938 185.480469 121.105469 C 185.832031 121.25 186.191406 121.359375 186.5625 121.433594 C 186.933594 121.507812 187.308594 121.542969 187.6875 121.542969 C 188.066406 121.542969 188.441406 121.507812 188.8125 121.433594 C 189.183594 121.359375 189.542969 121.25 189.894531 121.105469 C 190.242188 120.960938 190.578125 120.78125 190.890625 120.574219 C 191.207031 120.363281 191.496094 120.125 191.765625 119.855469 C 192.03125 119.589844 192.273438 119.296875 192.480469 118.984375 C 192.691406 118.667969 192.871094 118.335938 193.015625 117.988281 C 193.160156 117.636719 193.269531 117.277344 193.34375 116.90625 C 193.417969 116.535156 193.453125 116.160156 193.453125 115.785156 C 193.453125 115.40625 193.417969 115.03125 193.34375 114.660156 C 193.269531 114.289062 193.160156 113.929688 193.015625 113.578125 C 192.871094 113.230469 192.691406 112.898438 192.480469 112.582031 C 192.273438 112.269531 192.03125 111.976562 191.765625 111.710938 C 191.496094 111.441406 191.207031 111.203125 190.890625 110.992188 C 190.578125 110.785156 190.242188 110.605469 189.894531 110.460938 C 189.542969 110.316406 189.183594 110.207031 188.8125 110.132812 C 188.441406 110.058594 188.066406 110.023438 187.6875 110.023438 Z M 135.789062 114.0625 L 135.789062 166.117188 L 66.59375 194.582031 L 66.59375 141.1875 Z M 251.117188 124.085938 L 297.25 141.253906 L 297.25 268.566406 L 278.183594 260.941406 L 278.171875 260.941406 L 277.628906 260.726562 L 255.722656 251.960938 L 255.679688 251.949219 L 251.117188 250.128906 Z M 187.6875 133.066406 C 187.308594 133.066406 186.933594 133.101562 186.5625 133.175781 C 186.191406 133.25 185.832031 133.359375 185.480469 133.503906 C 185.132812 133.648438 184.796875 133.824219 184.484375 134.035156 C 184.167969 134.246094 183.878906 134.484375 183.609375 134.75 C 183.34375 135.019531 183.101562 135.308594 182.894531 135.625 C 182.683594 135.9375 182.503906 136.269531 182.359375 136.621094 C 182.214844 136.96875 182.105469 137.332031 182.03125 137.699219 C 181.957031 138.070312 181.921875 138.445312 181.921875 138.824219 C 181.921875 139.203125 181.957031 139.578125 182.03125 139.949219 C 182.105469 140.320312 182.214844 140.679688 182.359375 141.027344 C 182.503906 141.378906 182.683594 141.710938 182.894531 142.023438 C 183.101562 142.339844 183.34375 142.628906 183.609375 142.898438 C 183.878906 143.164062 184.167969 143.40625 184.484375 143.613281 C 184.796875 143.824219 185.132812 144.003906 185.480469 144.148438 C 185.832031 144.292969 186.191406 144.402344 186.5625 144.472656 C 186.933594 144.546875 187.308594 144.585938 187.6875 144.585938 C 188.066406 144.585938 188.441406 144.546875 188.8125 144.472656 C 189.183594 144.402344 189.542969 144.292969 189.894531 144.148438 C 190.242188 144.003906 190.578125 143.824219 190.890625 143.613281 C 191.207031 143.40625 191.496094 143.164062 191.765625 142.898438 C 192.03125 142.628906 192.273438 142.339844 192.480469 142.023438 C 192.691406 141.710938 192.871094 141.378906 193.015625 141.027344 C 193.160156 140.679688 193.269531 140.320312 193.34375 139.949219 C 193.417969 139.578125 193.453125 139.203125 193.453125 138.824219 C 193.453125 138.445312 193.417969 138.070312 193.34375 137.699219 C 193.269531 137.332031 193.160156 136.96875 193.015625 136.621094 C 192.871094 136.269531 192.691406 135.9375 192.480469 135.625 C 192.273438 135.308594 192.03125 135.019531 191.765625 134.75 C 191.496094 134.484375 191.207031 134.246094 190.890625 134.035156 C 190.578125 133.824219 190.242188 133.648438 189.894531 133.503906 C 189.542969 133.359375 189.183594 133.25 188.8125 133.175781 C 188.441406 133.101562 188.066406 133.066406 187.6875 133.066406 Z M 187.6875 156.105469 C 187.308594 156.105469 186.933594 156.144531 186.5625 156.214844 C 186.191406 156.289062 185.832031 156.398438 185.480469 156.542969 C 185.132812 156.6875 184.796875 156.867188 184.484375 157.078125 C 184.167969 157.285156 183.878906 157.527344 183.609375 157.792969 C 183.34375 158.0625 183.101562 158.351562 182.894531 158.667969 C 182.683594 158.980469 182.503906 159.3125 182.359375 159.660156 C 182.214844 160.011719 182.105469 160.371094 182.03125 160.742188 C 181.957031 161.113281 181.921875 161.488281 181.921875 161.867188 C 181.921875 162.246094 181.957031 162.621094 182.03125 162.988281 C 182.105469 163.359375 182.214844 163.722656 182.359375 164.070312 C 182.503906 164.421875 182.683594 164.753906 182.894531 165.066406 C 183.101562 165.382812 183.34375 165.671875 183.609375 165.941406 C 183.878906 166.207031 184.167969 166.445312 184.484375 166.65625 C 184.796875 166.867188 185.132812 167.042969 185.480469 167.1875 C 185.832031 167.332031 186.191406 167.441406 186.5625 167.515625 C 186.933594 167.589844 187.308594 167.625 187.6875 167.625 C 188.066406 167.625 188.441406 167.589844 188.8125 167.515625 C 189.183594 167.441406 189.542969 167.332031 189.894531 167.1875 C 190.242188 167.042969 190.578125 166.867188 190.890625 166.65625 C 191.207031 166.445312 191.496094 166.207031 191.765625 165.941406 C 192.03125 165.671875 192.273438 165.382812 192.480469 165.066406 C 192.691406 164.753906 192.871094 164.421875 193.015625 164.070312 C 193.160156 163.722656 193.269531 163.359375 193.34375 162.988281 C 193.417969 162.621094 193.453125 162.246094 193.453125 161.867188 C 193.453125 161.488281 193.417969 161.113281 193.34375 160.742188 C 193.269531 160.371094 193.160156 160.011719 193.015625 159.660156 C 192.871094 159.3125 192.691406 158.980469 192.480469 158.667969 C 192.273438 158.351562 192.03125 158.0625 191.765625 157.792969 C 191.496094 157.527344 191.207031 157.285156 190.890625 157.078125 C 190.578125 156.867188 190.242188 156.6875 189.894531 156.542969 C 189.542969 156.398438 189.183594 156.289062 188.8125 156.214844 C 188.441406 156.144531 188.066406 156.105469 187.6875 156.105469 Z M 187.6875 179.148438 C 187.308594 179.148438 186.933594 179.183594 186.5625 179.257812 C 186.191406 179.332031 185.832031 179.441406 185.480469 179.585938 C 185.132812 179.730469 184.796875 179.90625 184.484375 180.117188 C 184.167969 180.328125 183.878906 180.566406 183.609375 180.835938 C 183.34375 181.101562 183.101562 181.394531 182.894531 181.707031 C 182.683594 182.023438 182.503906 182.355469 182.359375 182.703125 C 182.214844 183.054688 182.105469 183.414062 182.03125 183.785156 C 181.957031 184.15625 181.921875 184.53125 181.921875 184.90625 C 181.921875 185.285156 181.957031 185.660156 182.03125 186.03125 C 182.105469 186.402344 182.214844 186.761719 182.359375 187.113281 C 182.503906 187.460938 182.683594 187.792969 182.894531 188.109375 C 183.101562 188.421875 183.34375 188.714844 183.609375 188.980469 C 183.878906 189.25 184.167969 189.488281 184.484375 189.699219 C 184.796875 189.90625 185.132812 190.085938 185.480469 190.230469 C 185.832031 190.375 186.191406 190.484375 186.5625 190.558594 C 186.933594 190.632812 187.308594 190.667969 187.6875 190.667969 C 188.066406 190.667969 188.441406 190.632812 188.8125 190.558594 C 189.183594 190.484375 189.542969 190.375 189.894531 190.230469 C 190.242188 190.085938 190.578125 189.90625 190.890625 189.699219 C 191.207031 189.488281 191.496094 189.25 191.765625 188.980469 C 192.03125 188.714844 192.273438 188.421875 192.480469 188.109375 C 192.691406 187.792969 192.871094 187.460938 193.015625 187.113281 C 193.160156 186.761719 193.269531 186.402344 193.34375 186.03125 C 193.417969 185.660156 193.453125 185.285156 193.453125 184.90625 C 193.453125 184.53125 193.417969 184.15625 193.34375 183.785156 C 193.269531 183.414062 193.160156 183.054688 193.015625 182.703125 C 192.871094 182.355469 192.691406 182.023438 192.480469 181.707031 C 192.273438 181.394531 192.03125 181.101562 191.765625 180.835938 C 191.496094 180.566406 191.207031 180.328125 190.890625 180.117188 C 190.578125 179.90625 190.242188 179.730469 189.894531 179.585938 C 189.542969 179.441406 189.183594 179.332031 188.8125 179.257812 C 188.441406 179.183594 188.066406 179.148438 187.6875 179.148438 Z M 187.6875 202.1875 C 187.308594 202.1875 186.933594 202.226562 186.5625 202.300781 C 186.191406 202.375 185.832031 202.484375 185.480469 202.628906 C 185.132812 202.773438 184.796875 202.949219 184.484375 203.160156 C 184.167969 203.371094 183.878906 203.609375 183.609375 203.875 C 183.34375 204.144531 183.101562 204.433594 182.894531 204.75 C 182.683594 205.0625 182.503906 205.394531 182.359375 205.746094 C 182.214844 206.09375 182.105469 206.453125 182.03125 206.824219 C 181.957031 207.195312 181.921875 207.570312 181.921875 207.949219 C 181.921875 208.328125 181.957031 208.703125 182.03125 209.074219 C 182.105469 209.445312 182.214844 209.804688 182.359375 210.152344 C 182.503906 210.503906 182.683594 210.835938 182.894531 211.148438 C 183.101562 211.464844 183.34375 211.753906 183.609375 212.023438 C 183.878906 212.289062 184.167969 212.527344 184.484375 212.738281 C 184.796875 212.949219 185.132812 213.125 185.480469 213.269531 C 185.832031 213.414062 186.191406 213.523438 186.5625 213.597656 C 186.933594 213.671875 187.308594 213.710938 187.6875 213.710938 C 188.066406 213.710938 188.441406 213.671875 188.8125 213.597656 C 189.183594 213.523438 189.542969 213.414062 189.894531 213.269531 C 190.242188 213.125 190.578125 212.949219 190.890625 212.738281 C 191.207031 212.527344 191.496094 212.289062 191.765625 212.023438 C 192.03125 211.753906 192.273438 211.464844 192.480469 211.148438 C 192.691406 210.835938 192.871094 210.503906 193.015625 210.152344 C 193.160156 209.804688 193.269531 209.445312 193.34375 209.074219 C 193.417969 208.703125 193.453125 208.328125 193.453125 207.949219 C 193.453125 207.570312 193.417969 207.195312 193.34375 206.824219 C 193.269531 206.453125 193.160156 206.09375 193.015625 205.746094 C 192.871094 205.394531 192.691406 205.0625 192.480469 204.75 C 192.273438 204.433594 192.03125 204.144531 191.765625 203.875 C 191.496094 203.609375 191.207031 203.371094 190.890625 203.160156 C 190.578125 202.949219 190.242188 202.773438 189.894531 202.628906 C 189.542969 202.484375 189.183594 202.375 188.8125 202.300781 C 188.441406 202.226562 188.066406 202.1875 187.6875 202.1875 Z M 187.542969 225.230469 L 185.546875 225.648438 L 185.007812 225.859375 L 184.828125 226.0625 L 184.679688 226.074219 L 184.355469 226.589844 L 181.582031 229.71875 L 182.621094 234.769531 L 184.273438 235.546875 L 185.546875 236.335938 L 186.078125 236.546875 L 186.371094 236.527344 L 187.304688 236.964844 L 189.296875 236.546875 L 189.828125 236.335938 L 189.917969 236.234375 L 191.234375 236.121094 L 193.960938 231.746094 L 192.089844 226.929688 L 190.367188 225.859375 L 189.828125 225.648438 L 188.632812 225.746094 Z M 165.589844 234.007812 L 163.597656 234.410156 L 163.054688 234.625 L 159.632812 238.484375 L 160.667969 243.546875 L 165.355469 245.730469 L 167.347656 245.324219 L 167.875 245.109375 L 171.3125 241.25 L 170.265625 236.199219 Z M 211.777344 234.410156 L 206.632812 234.851562 L 203.894531 239.226562 L 205.773438 244.042969 L 207.5 245.109375 L 208.027344 245.324219 L 213.1875 244.898438 L 215.910156 240.507812 L 214.042969 235.703125 L 212.320312 234.625 Z M 143.628906 242.769531 L 141.644531 243.1875 L 141.105469 243.398438 L 137.683594 247.257812 L 138.71875 252.3125 L 143.402344 254.503906 L 145.386719 254.101562 L 145.925781 253.886719 L 149.359375 250.015625 L 148.3125 244.964844 Z M 233.730469 243.1875 L 228.582031 243.613281 L 225.84375 248 L 227.726562 252.804688 L 229.449219 253.886719 L 229.988281 254.101562 L 235.136719 253.660156 L 237.863281 249.285156 L 235.992188 244.46875 L 234.269531 243.398438 Z M 121.679688 251.546875 L 119.695312 251.949219 L 119.15625 252.175781 L 115.730469 256.035156 L 116.765625 261.085938 L 121.453125 263.28125 L 123.433594 262.863281 L 123.976562 262.648438 L 127.398438 258.792969 L 126.363281 253.738281 Z M 99.726562 260.320312 L 97.746094 260.726562 L 97.203125 260.941406 L 93.78125 264.800781 L 94.816406 269.863281 L 99.503906 272.042969 L 101.484375 271.640625 L 102.023438 271.425781 L 105.449219 267.566406 L 104.414062 262.503906 Z M 77.777344 269.085938 L 75.792969 269.503906 L 75.253906 269.714844 L 71.832031 273.574219 L 72.867188 278.625 L 77.550781 280.820312 L 79.535156 280.414062 L 80.074219 280.191406 L 83.5 276.332031 L 82.460938 271.28125 Z M 55.824219 277.859375 L 53.832031 278.265625 L 53.304688 278.480469 L 49.867188 282.351562 L 50.914062 287.402344 L 55.601562 289.597656 L 57.582031 289.179688 L 58.125 288.964844 L 61.546875 285.105469 L 60.511719 280.054688 Z M 321.542969 278.265625 L 316.382812 278.707031 L 313.660156 283.082031 L 315.527344 287.898438 L 317.25 288.964844 L 317.792969 289.179688 L 322.9375 288.753906 L 325.675781 284.363281 L 323.792969 279.558594 L 322.070312 278.480469 Z M 33.875 286.636719 L 31.882812 287.042969 L 31.351562 287.253906 L 27.917969 291.113281 L 28.964844 296.167969 L 33.640625 298.359375 L 35.632812 297.953125 L 36.171875 297.742188 L 39.597656 293.882812 L 38.5625 288.820312 Z M 343.492188 287.042969 L 338.335938 287.46875 L 335.609375 291.855469 L 337.480469 296.660156 L 339.203125 297.742188 L 339.742188 297.953125 L 344.890625 297.515625 L 347.625 293.140625 L 345.746094 288.335938 L 344.023438 287.253906 Z M 343.492188 287.042969 " fill-opacity="1" fill-rule="nonzero"/></g></svg>