<svg xmlns="http://www.w3.org/2000/svg" xmlns:xlink="http://www.w3.org/1999/xlink" width="500" zoomAndPan="magnify" viewBox="0 0 375 374.999991" height="500" preserveAspectRatio="xMidYMid meet" version="1.0"><defs><clipPath id="4013fb85be"><path d="M 8.4375 0 L 366.9375 0 L 366.9375 375 L 8.4375 375 Z M 8.4375 0 " clip-rule="nonzero"/></clipPath></defs><g clip-path="url(#4013fb85be)"><path fill="#ffffff" d="M 187.5 0.203125 L 8.929688 65.671875 L 8.929688 304.019531 L 187.5 375.4375 L 366.070312 304.019531 L 366.070312 65.671875 L 362.292969 64.289062 Z M 187.5 12.46875 L 354.550781 73.726562 L 354.550781 296.210938 L 187.5 363.039062 L 20.449219 296.210938 L 20.449219 73.726562 Z M 187.5 17.855469 C 187.121094 17.855469 186.746094 17.894531 186.375 17.96875 C 186.003906 18.042969 185.644531 18.152344 185.296875 18.296875 C 184.945312 18.441406 184.613281 18.617188 184.300781 18.828125 C 183.984375 19.039062 183.695312 19.277344 183.425781 19.542969 C 183.160156 19.8125 182.921875 20.101562 182.710938 20.417969 C 182.5 20.730469 182.324219 21.0625 182.179688 21.414062 C 182.035156 21.761719 181.925781 22.121094 181.851562 22.492188 C 181.777344 22.863281 181.738281 23.238281 181.738281 23.617188 C 181.738281 23.996094 181.777344 24.371094 181.851562 24.742188 C 181.925781 25.113281 182.035156 25.472656 182.179688 25.820312 C 182.324219 26.171875 182.5 26.503906 182.710938 26.816406 C 182.921875 27.132812 183.160156 27.421875 183.425781 27.691406 C 183.695312 27.957031 183.984375 28.195312 184.300781 28.40625 C 184.613281 28.617188 184.945312 28.792969 185.296875 28.9375 C 185.644531 29.085938 186.003906 29.195312 186.375 29.265625 C 186.746094 29.339844 187.121094 29.378906 187.5 29.378906 C 187.878906 29.378906 188.253906 29.339844 188.625 29.265625 C 188.996094 29.195312 189.355469 29.085938 189.703125 28.9375 C 190.054688 28.792969 190.386719 28.617188 190.699219 28.40625 C 191.015625 28.195312 191.304688 27.957031 191.574219 27.691406 C 191.839844 27.421875 192.078125 27.132812 192.289062 26.816406 C 192.5 26.503906 192.675781 26.171875 192.820312 25.820312 C 192.964844 25.472656 193.074219 25.113281 193.148438 24.742188 C 193.222656 24.371094 193.261719 23.996094 193.261719 23.617188 C 193.261719 23.238281 193.222656 22.863281 193.148438 22.492188 C 193.074219 22.121094 192.964844 21.761719 192.820312 21.414062 C 192.675781 21.0625 192.5 20.730469 192.289062 20.417969 C 192.078125 20.101562 191.839844 19.8125 191.574219 19.542969 C 191.304688 19.277344 191.015625 19.039062 190.699219 18.828125 C 190.386719 18.617188 190.054688 18.441406 189.703125 18.296875 C 189.355469 18.152344 188.996094 18.042969 188.625 17.96875 C 188.253906 17.894531 187.878906 17.855469 187.5 17.855469 Z M 187.5 40.898438 C 187.121094 40.898438 186.746094 40.933594 186.375 41.007812 C 186.003906 41.082031 185.644531 41.191406 185.296875 41.335938 C 184.945312 41.480469 184.613281 41.660156 184.300781 41.871094 C 183.984375 42.078125 183.695312 42.316406 183.425781 42.585938 C 183.160156 42.851562 182.921875 43.144531 182.710938 43.457031 C 182.5 43.773438 182.324219 44.105469 182.179688 44.453125 C 182.035156 44.804688 181.925781 45.164062 181.851562 45.535156 C 181.777344 45.90625 181.738281 46.28125 181.738281 46.660156 C 181.738281 47.039062 181.777344 47.410156 181.851562 47.78125 C 181.925781 48.152344 182.035156 48.515625 182.179688 48.863281 C 182.324219 49.210938 182.5 49.542969 182.710938 49.859375 C 182.921875 50.171875 183.160156 50.464844 183.425781 50.730469 C 183.695312 51 183.984375 51.238281 184.300781 51.449219 C 184.613281 51.660156 184.945312 51.835938 185.296875 51.980469 C 185.644531 52.125 186.003906 52.234375 186.375 52.308594 C 186.746094 52.382812 187.121094 52.417969 187.5 52.417969 C 187.878906 52.417969 188.253906 52.382812 188.625 52.308594 C 188.996094 52.234375 189.355469 52.125 189.703125 51.980469 C 190.054688 51.835938 190.386719 51.660156 190.699219 51.449219 C 191.015625 51.238281 191.304688 51 191.574219 50.730469 C 191.839844 50.464844 192.078125 50.171875 192.289062 49.859375 C 192.5 49.542969 192.675781 49.210938 192.820312 48.863281 C 192.964844 48.515625 193.074219 48.152344 193.148438 47.78125 C 193.222656 47.410156 193.261719 47.039062 193.261719 46.660156 C 193.261719 46.28125 193.222656 45.90625 193.148438 45.535156 C 193.074219 45.164062 192.964844 44.804688 192.820312 44.453125 C 192.675781 44.105469 192.5 43.773438 192.289062 43.457031 C 192.078125 43.144531 191.839844 42.851562 191.574219 42.585938 C 191.304688 42.316406 191.015625 42.078125 190.699219 41.871094 C 190.386719 41.660156 190.054688 41.480469 189.703125 41.335938 C 189.355469 41.191406 188.996094 41.082031 188.625 41.007812 C 188.253906 40.933594 187.878906 40.898438 187.5 40.898438 Z M 187.5 63.941406 C 187.121094 63.941406 186.746094 63.976562 186.375 64.050781 C 186.003906 64.125 185.644531 64.234375 185.296875 64.378906 C 184.945312 64.523438 184.613281 64.699219 184.300781 64.910156 C 183.984375 65.121094 183.695312 65.359375 183.425781 65.628906 C 183.160156 65.894531 182.921875 66.1875 182.710938 66.5 C 182.5 66.816406 182.324219 67.148438 182.179688 67.496094 C 182.035156 67.84375 181.925781 68.207031 181.851562 68.578125 C 181.777344 68.949219 181.738281 69.320312 181.738281 69.699219 C 181.738281 70.078125 181.777344 70.453125 181.851562 70.824219 C 181.925781 71.195312 182.035156 71.554688 182.179688 71.90625 C 182.324219 72.253906 182.5 72.585938 182.710938 72.902344 C 182.921875 73.214844 183.160156 73.507812 183.425781 73.773438 C 183.695312 74.042969 183.984375 74.28125 184.300781 74.488281 C 184.613281 74.699219 184.945312 74.878906 185.296875 75.023438 C 185.644531 75.167969 186.003906 75.277344 186.375 75.351562 C 186.746094 75.425781 187.121094 75.460938 187.5 75.460938 C 187.878906 75.460938 188.253906 75.425781 188.625 75.351562 C 188.996094 75.277344 189.355469 75.167969 189.703125 75.023438 C 190.054688 74.878906 190.386719 74.699219 190.699219 74.488281 C 191.015625 74.28125 191.304688 74.042969 191.574219 73.773438 C 191.839844 73.507812 192.078125 73.214844 192.289062 72.902344 C 192.5 72.585938 192.675781 72.253906 192.820312 71.90625 C 192.964844 71.554688 193.074219 71.195312 193.148438 70.824219 C 193.222656 70.453125 193.261719 70.078125 193.261719 69.699219 C 193.261719 69.320312 193.222656 68.949219 193.148438 68.578125 C 193.074219 68.207031 192.964844 67.84375 192.820312 67.496094 C 192.675781 67.148438 192.5 66.816406 192.289062 66.5 C 192.078125 66.1875 191.839844 65.894531 191.574219 65.628906 C 191.304688 65.359375 191.015625 65.121094 190.699219 64.910156 C 190.386719 64.699219 190.054688 64.523438 189.703125 64.378906 C 189.355469 64.234375 188.996094 64.125 188.625 64.050781 C 188.253906 63.976562 187.878906 63.941406 187.5 63.941406 Z M 187.5 86.980469 C 187.121094 86.980469 186.746094 87.019531 186.375 87.09375 C 186.003906 87.167969 185.644531 87.273438 185.296875 87.421875 C 184.945312 87.566406 184.613281 87.742188 184.300781 87.953125 C 183.984375 88.164062 183.695312 88.402344 183.425781 88.667969 C 183.160156 88.9375 182.921875 89.226562 182.710938 89.542969 C 182.5 89.855469 182.324219 90.1875 182.179688 90.539062 C 182.035156 90.886719 181.925781 91.246094 181.851562 91.617188 C 181.777344 91.988281 181.738281 92.363281 181.738281 92.742188 C 181.738281 93.121094 181.777344 93.496094 181.851562 93.867188 C 181.925781 94.238281 182.035156 94.597656 182.179688 94.945312 C 182.324219 95.296875 182.5 95.628906 182.710938 95.941406 C 182.921875 96.257812 183.160156 96.546875 183.425781 96.816406 C 183.695312 97.082031 183.984375 97.320312 184.300781 97.53125 C 184.613281 97.742188 184.945312 97.917969 185.296875 98.0625 C 185.644531 98.207031 186.003906 98.316406 186.375 98.390625 C 186.746094 98.464844 187.121094 98.503906 187.5 98.503906 C 187.878906 98.503906 188.253906 98.464844 188.625 98.390625 C 188.996094 98.316406 189.355469 98.207031 189.703125 98.0625 C 190.054688 97.917969 190.386719 97.742188 190.699219 97.53125 C 191.015625 97.320312 191.304688 97.082031 191.574219 96.816406 C 191.839844 96.546875 192.078125 96.257812 192.289062 95.941406 C 192.5 95.628906 192.675781 95.296875 192.820312 94.945312 C 192.964844 94.597656 193.074219 94.238281 193.148438 93.867188 C 193.222656 93.496094 193.261719 93.121094 193.261719 92.742188 C 193.261719 92.363281 193.222656 91.988281 193.148438 91.617188 C 193.074219 91.246094 192.964844 90.886719 192.820312 90.539062 C 192.675781 90.1875 192.5 89.855469 192.289062 89.542969 C 192.078125 89.226562 191.839844 88.9375 191.574219 88.667969 C 191.304688 88.402344 191.015625 88.164062 190.699219 87.953125 C 190.386719 87.742188 190.054688 87.566406 189.703125 87.421875 C 189.355469 87.273438 188.996094 87.167969 188.625 87.09375 C 188.253906 87.019531 187.878906 86.980469 187.5 86.980469 Z M 147.175781 97.164062 L 55.011719 133.335938 L 55.011719 211.785156 L 62.964844 208.5 L 147.175781 173.824219 Z M 239.34375 107.492188 L 239.34375 257.9375 L 251.144531 262.648438 L 251.683594 262.863281 L 273.074219 271.425781 L 273.332031 271.527344 L 273.613281 271.640625 L 295 280.191406 L 295.550781 280.414062 L 308.46875 285.578125 L 308.46875 133.253906 Z M 187.5 110.023438 C 187.121094 110.023438 186.746094 110.058594 186.375 110.132812 C 186.003906 110.207031 185.644531 110.316406 185.296875 110.460938 C 184.945312 110.605469 184.613281 110.785156 184.300781 110.992188 C 183.984375 111.203125 183.695312 111.441406 183.425781 111.710938 C 183.160156 111.976562 182.921875 112.269531 182.710938 112.582031 C 182.5 112.898438 182.324219 113.230469 182.179688 113.578125 C 182.035156 113.929688 181.925781 114.289062 181.851562 114.660156 C 181.777344 115.03125 181.738281 115.40625 181.738281 115.785156 C 181.738281 116.160156 181.777344 116.535156 181.851562 116.90625 C 181.925781 117.277344 182.035156 117.636719 182.179688 117.988281 C 182.324219 118.335938 182.5 118.667969 182.710938 118.984375 C 182.921875 119.296875 183.160156 119.589844 183.425781 119.855469 C 183.695312 120.125 183.984375 120.363281 184.300781 120.574219 C 184.613281 120.78125 184.945312 120.960938 185.296875 121.105469 C 185.644531 121.25 186.003906 121.359375 186.375 121.433594 C 186.746094 121.507812 187.121094 121.542969 187.5 121.542969 C 187.878906 121.542969 188.253906 121.507812 188.625 121.433594 C 188.996094 121.359375 189.355469 121.25 189.703125 121.105469 C 190.054688 120.960938 190.386719 120.78125 190.699219 120.574219 C 191.015625 120.363281 191.304688 120.125 191.574219 119.855469 C 191.839844 119.589844 192.078125 119.296875 192.289062 118.984375 C 192.5 118.667969 192.675781 118.335938 192.820312 117.988281 C 192.964844 117.636719 193.074219 117.277344 193.148438 116.90625 C 193.222656 116.535156 193.261719 116.160156 193.261719 115.785156 C 193.261719 115.40625 193.222656 115.03125 193.148438 114.660156 C 193.074219 114.289062 192.964844 113.929688 192.820312 113.578125 C 192.675781 113.230469 192.5 112.898438 192.289062 112.582031 C 192.078125 112.269531 191.839844 111.976562 191.574219 111.710938 C 191.304688 111.441406 191.015625 111.203125 190.699219 110.992188 C 190.386719 110.785156 190.054688 110.605469 189.703125 110.460938 C 189.355469 110.316406 188.996094 110.207031 188.625 110.132812 C 188.253906 110.058594 187.878906 110.023438 187.5 110.023438 Z M 135.65625 114.0625 L 135.65625 166.117188 L 66.53125 194.582031 L 66.53125 141.1875 Z M 250.863281 124.085938 L 296.945312 141.253906 L 296.945312 268.566406 L 277.898438 260.941406 L 277.886719 260.941406 L 277.347656 260.726562 L 255.464844 251.960938 L 255.421875 251.949219 L 250.863281 250.128906 Z M 187.5 133.066406 C 187.121094 133.066406 186.746094 133.101562 186.375 133.175781 C 186.003906 133.25 185.644531 133.359375 185.296875 133.503906 C 184.945312 133.648438 184.613281 133.824219 184.300781 134.035156 C 183.984375 134.246094 183.695312 134.484375 183.425781 134.75 C 183.160156 135.019531 182.921875 135.308594 182.710938 135.625 C 182.5 135.9375 182.324219 136.269531 182.179688 136.621094 C 182.035156 136.96875 181.925781 137.332031 181.851562 137.699219 C 181.777344 138.070312 181.738281 138.445312 181.738281 138.824219 C 181.738281 139.203125 181.777344 139.578125 181.851562 139.949219 C 181.925781 140.320312 182.035156 140.679688 182.179688 141.027344 C 182.324219 141.378906 182.5 141.710938 182.710938 142.023438 C 182.921875 142.339844 183.160156 142.628906 183.425781 142.898438 C 183.695312 143.164062 183.984375 143.40625 184.300781 143.613281 C 184.613281 143.824219 184.945312 144.003906 185.296875 144.148438 C 185.644531 144.292969 186.003906 144.402344 186.375 144.472656 C 186.746094 144.546875 187.121094 144.585938 187.5 144.585938 C 187.878906 144.585938 188.253906 144.546875 188.625 144.472656 C 188.996094 144.402344 189.355469 144.292969 189.703125 144.148438 C 190.054688 144.003906 190.386719 143.824219 190.699219 143.613281 C 191.015625 143.40625 191.304688 143.164062 191.574219 142.898438 C 191.839844 142.628906 192.078125 142.339844 192.289062 142.023438 C 192.5 141.710938 192.675781 141.378906 192.820312 141.027344 C 192.964844 140.679688 193.074219 140.320312 193.148438 139.949219 C 193.222656 139.578125 193.261719 139.203125 193.261719 138.824219 C 193.261719 138.445312 193.222656 138.070312 193.148438 137.699219 C 193.074219 137.332031 192.964844 136.96875 192.820312 136.621094 C 192.675781 136.269531 192.5 135.9375 192.289062 135.625 C 192.078125 135.308594 191.839844 135.019531 191.574219 134.75 C 191.304688 134.484375 191.015625 134.246094 190.699219 134.035156 C 190.386719 133.824219 190.054688 133.648438 189.703125 133.503906 C 189.355469 133.359375 188.996094 133.25 188.625 133.175781 C 188.253906 133.101562 187.878906 133.066406 187.5 133.066406 Z M 187.5 156.105469 C 187.121094 156.105469 186.746094 156.144531 186.375 156.214844 C 186.003906 156.289062 185.644531 156.398438 185.296875 156.542969 C 184.945312 156.6875 184.613281 156.867188 184.300781 157.078125 C 183.984375 157.285156 183.695312 157.527344 183.425781 157.792969 C 183.160156 158.0625 182.921875 158.351562 182.710938 158.667969 C 182.5 158.980469 182.324219 159.3125 182.179688 159.660156 C 182.035156 160.011719 181.925781 160.371094 181.851562 160.742188 C 181.777344 161.113281 181.738281 161.488281 181.738281 161.867188 C 181.738281 162.246094 181.777344 162.621094 181.851562 162.988281 C 181.925781 163.359375 182.035156 163.722656 182.179688 164.070312 C 182.324219 164.421875 182.5 164.753906 182.710938 165.066406 C 182.921875 165.382812 183.160156 165.671875 183.425781 165.941406 C 183.695312 166.207031 183.984375 166.445312 184.300781 166.65625 C 184.613281 166.867188 184.945312 167.042969 185.296875 167.1875 C 185.644531 167.332031 186.003906 167.441406 186.375 167.515625 C 186.746094 167.589844 187.121094 167.625 187.5 167.625 C 187.878906 167.625 188.253906 167.589844 188.625 167.515625 C 188.996094 167.441406 189.355469 167.332031 189.703125 167.1875 C 190.054688 167.042969 190.386719 166.867188 190.699219 166.65625 C 191.015625 166.445312 191.304688 166.207031 191.574219 165.941406 C 191.839844 165.671875 192.078125 165.382812 192.289062 165.066406 C 192.5 164.753906 192.675781 164.421875 192.820312 164.070312 C 192.964844 163.722656 193.074219 163.359375 193.148438 162.988281 C 193.222656 162.621094 193.261719 162.246094 193.261719 161.867188 C 193.261719 161.488281 193.222656 161.113281 193.148438 160.742188 C 193.074219 160.371094 192.964844 160.011719 192.820312 159.660156 C 192.675781 159.3125 192.5 158.980469 192.289062 158.667969 C 192.078125 158.351562 191.839844 158.0625 191.574219 157.792969 C 191.304688 157.527344 191.015625 157.285156 190.699219 157.078125 C 190.386719 156.867188 190.054688 156.6875 189.703125 156.542969 C 189.355469 156.398438 188.996094 156.289062 188.625 156.214844 C 188.253906 156.144531 187.878906 156.105469 187.5 156.105469 Z M 187.5 179.148438 C 187.121094 179.148438 186.746094 179.183594 186.375 179.257812 C 186.003906 179.332031 185.644531 179.441406 185.296875 179.585938 C 184.945312 179.730469 184.613281 179.90625 184.300781 180.117188 C 183.984375 180.328125 183.695312 180.566406 183.425781 180.835938 C 183.160156 181.101562 182.921875 181.394531 182.710938 181.707031 C 182.5 182.023438 182.324219 182.355469 182.179688 182.703125 C 182.035156 183.054688 181.925781 183.414062 181.851562 183.785156 C 181.777344 184.15625 181.738281 184.53125 181.738281 184.90625 C 181.738281 185.285156 181.777344 185.660156 181.851562 186.03125 C 181.925781 186.402344 182.035156 186.761719 182.179688 187.113281 C 182.324219 187.460938 182.5 187.792969 182.710938 188.109375 C 182.921875 188.421875 183.160156 188.714844 183.425781 188.980469 C 183.695312 189.25 183.984375 189.488281 184.300781 189.699219 C 184.613281 189.90625 184.945312 190.085938 185.296875 190.230469 C 185.644531 190.375 186.003906 190.484375 186.375 190.558594 C 186.746094 190.632812 187.121094 190.667969 187.5 190.667969 C 187.878906 190.667969 188.253906 190.632812 188.625 190.558594 C 188.996094 190.484375 189.355469 190.375 189.703125 190.230469 C 190.054688 190.085938 190.386719 189.90625 190.699219 189.699219 C 191.015625 189.488281 191.304688 189.25 191.574219 188.980469 C 191.839844 188.714844 192.078125 188.421875 192.289062 188.109375 C 192.5 187.792969 192.675781 187.460938 192.820312 187.113281 C 192.964844 186.761719 193.074219 186.402344 193.148438 186.03125 C 193.222656 185.660156 193.261719 185.285156 193.261719 184.90625 C 193.261719 184.53125 193.222656 184.15625 193.148438 183.785156 C 193.074219 183.414062 192.964844 183.054688 192.820312 182.703125 C 192.675781 182.355469 192.5 182.023438 192.289062 181.707031 C 192.078125 181.394531 191.839844 181.101562 191.574219 180.835938 C 191.304688 180.566406 191.015625 180.328125 190.699219 180.117188 C 190.386719 179.90625 190.054688 179.730469 189.703125 179.585938 C 189.355469 179.441406 188.996094 179.332031 188.625 179.257812 C 188.253906 179.183594 187.878906 179.148438 187.5 179.148438 Z M 187.5 202.1875 C 187.121094 202.1875 186.746094 202.226562 186.375 202.300781 C 186.003906 202.375 185.644531 202.484375 185.296875 202.628906 C 184.945312 202.773438 184.613281 202.949219 184.300781 203.160156 C 183.984375 203.371094 183.695312 203.609375 183.425781 203.875 C 183.160156 204.144531 182.921875 204.433594 182.710938 204.75 C 182.5 205.0625 182.324219 205.394531 182.179688 205.746094 C 182.035156 206.09375 181.925781 206.453125 181.851562 206.824219 C 181.777344 207.195312 181.738281 207.570312 181.738281 207.949219 C 181.738281 208.328125 181.777344 208.703125 181.851562 209.074219 C 181.925781 209.445312 182.035156 209.804688 182.179688 210.152344 C 182.324219 210.503906 182.5 210.835938 182.710938 211.148438 C 182.921875 211.464844 183.160156 211.753906 183.425781 212.023438 C 183.695312 212.289062 183.984375 212.527344 184.300781 212.738281 C 184.613281 212.949219 184.945312 213.125 185.296875 213.269531 C 185.644531 213.414062 186.003906 213.523438 186.375 213.597656 C 186.746094 213.671875 187.121094 213.710938 187.5 213.710938 C 187.878906 213.710938 188.253906 213.671875 188.625 213.597656 C 188.996094 213.523438 189.355469 213.414062 189.703125 213.269531 C 190.054688 213.125 190.386719 212.949219 190.699219 212.738281 C 191.015625 212.527344 191.304688 212.289062 191.574219 212.023438 C 191.839844 211.753906 192.078125 211.464844 192.289062 211.148438 C 192.5 210.835938 192.675781 210.503906 192.820312 210.152344 C 192.964844 209.804688 193.074219 209.445312 193.148438 209.074219 C 193.222656 208.703125 193.261719 208.328125 193.261719 207.949219 C 193.261719 207.570312 193.222656 207.195312 193.148438 206.824219 C 193.074219 206.453125 192.964844 206.09375 192.820312 205.746094 C 192.675781 205.394531 192.5 205.0625 192.289062 204.75 C 192.078125 204.433594 191.839844 204.144531 191.574219 203.875 C 191.304688 203.609375 191.015625 203.371094 190.699219 203.160156 C 190.386719 202.949219 190.054688 202.773438 189.703125 202.628906 C 189.355469 202.484375 188.996094 202.375 188.625 202.300781 C 188.253906 202.226562 187.878906 202.1875 187.5 202.1875 Z M 187.355469 225.230469 L 185.363281 225.648438 L 184.824219 225.859375 L 184.640625 226.0625 L 184.496094 226.074219 L 184.167969 226.589844 L 181.402344 229.71875 L 182.4375 234.769531 L 184.089844 235.546875 L 185.363281 236.335938 L 185.890625 236.546875 L 186.183594 236.527344 L 187.117188 236.964844 L 189.109375 236.546875 L 189.636719 236.335938 L 189.726562 236.234375 L 191.042969 236.121094 L 193.765625 231.746094 L 191.898438 226.929688 L 190.175781 225.859375 L 189.636719 225.648438 L 188.445312 225.746094 Z M 165.425781 234.007812 L 163.433594 234.410156 L 162.894531 234.625 L 159.472656 238.484375 L 160.507812 243.546875 L 165.191406 245.730469 L 167.179688 245.324219 L 167.710938 245.109375 L 171.140625 241.25 L 170.09375 236.199219 Z M 211.566406 234.410156 L 206.421875 234.851562 L 203.691406 239.226562 L 205.570312 244.042969 L 207.289062 245.109375 L 207.820312 245.324219 L 212.972656 244.898438 L 215.695312 240.507812 L 213.828125 235.703125 L 212.105469 234.625 Z M 143.488281 242.769531 L 141.507812 243.1875 L 140.96875 243.398438 L 137.546875 247.257812 L 138.582031 252.3125 L 143.261719 254.503906 L 145.242188 254.101562 L 145.78125 253.886719 L 149.214844 250.015625 L 148.167969 244.964844 Z M 233.492188 243.1875 L 228.351562 243.613281 L 225.617188 248 L 227.496094 252.804688 L 229.21875 253.886719 L 229.757812 254.101562 L 234.898438 253.660156 L 237.621094 249.285156 L 235.753906 244.46875 L 234.03125 243.398438 Z M 121.558594 251.546875 L 119.578125 251.949219 L 119.039062 252.175781 L 115.621094 256.035156 L 116.652344 261.085938 L 121.335938 263.28125 L 123.316406 262.863281 L 123.855469 262.648438 L 127.273438 258.792969 L 126.238281 253.738281 Z M 99.632812 260.320312 L 97.652344 260.726562 L 97.113281 260.941406 L 93.691406 264.800781 L 94.726562 269.863281 L 99.40625 272.042969 L 101.386719 271.640625 L 101.925781 271.425781 L 105.347656 267.566406 L 104.3125 262.503906 Z M 77.703125 269.085938 L 75.722656 269.503906 L 75.183594 269.714844 L 71.765625 273.574219 L 72.800781 278.625 L 77.480469 280.820312 L 79.460938 280.414062 L 80 280.191406 L 83.417969 276.332031 L 82.382812 271.28125 Z M 55.777344 277.859375 L 53.785156 278.265625 L 53.257812 278.480469 L 49.824219 282.351562 L 50.871094 287.402344 L 55.550781 289.597656 L 57.53125 289.179688 L 58.070312 288.964844 L 61.492188 285.105469 L 60.457031 280.054688 Z M 321.214844 278.265625 L 316.0625 278.707031 L 313.339844 283.082031 L 315.207031 287.898438 L 316.929688 288.964844 L 317.46875 289.179688 L 322.609375 288.753906 L 325.34375 284.363281 L 323.464844 279.558594 L 321.742188 278.480469 Z M 33.847656 286.636719 L 31.859375 287.042969 L 31.328125 287.253906 L 27.898438 291.113281 L 28.945312 296.167969 L 33.613281 298.359375 L 35.605469 297.953125 L 36.144531 297.742188 L 39.5625 293.882812 L 38.527344 288.820312 Z M 343.140625 287.042969 L 337.988281 287.46875 L 335.265625 291.855469 L 337.132812 296.660156 L 338.855469 297.742188 L 339.394531 297.953125 L 344.539062 297.515625 L 347.269531 293.140625 L 345.394531 288.335938 L 343.671875 287.253906 Z M 343.140625 287.042969 " fill-opacity="1" fill-rule="nonzero"/><path fill="#ffffff" d="M 187.5 0.203125 L 8.929688 65.671875 L 8.929688 304.019531 L 187.5 375.4375 L 366.070312 304.019531 L 366.070312 65.671875 L 362.292969 64.289062 Z M 187.5 12.46875 L 354.550781 73.726562 L 354.550781 296.210938 L 187.5 363.039062 L 20.449219 296.210938 L 20.449219 73.726562 Z M 187.5 17.855469 C 187.121094 17.855469 186.746094 17.894531 186.375 17.96875 C 186.003906 18.042969 185.644531 18.152344 185.296875 18.296875 C 184.945312 18.441406 184.613281 18.617188 184.300781 18.828125 C 183.984375 19.039062 183.695312 19.277344 183.425781 19.542969 C 183.160156 19.8125 182.921875 20.101562 182.710938 20.417969 C 182.5 20.730469 182.324219 21.0625 182.179688 21.414062 C 182.035156 21.761719 181.925781 22.121094 181.851562 22.492188 C 181.777344 22.863281 181.738281 23.238281 181.738281 23.617188 C 181.738281 23.996094 181.777344 24.371094 181.851562 24.742188 C 181.925781 25.113281 182.035156 25.472656 182.179688 25.820312 C 182.324219 26.171875 182.5 26.503906 182.710938 26.816406 C 182.921875 27.132812 183.160156 27.421875 183.425781 27.691406 C 183.695312 27.957031 183.984375 28.195312 184.300781 28.40625 C 184.613281 28.617188 184.945312 28.792969 185.296875 28.9375 C 185.644531 29.085938 186.003906 29.195312 186.375 29.265625 C 186.746094 29.339844 187.121094 29.378906 187.5 29.378906 C 187.878906 29.378906 188.253906 29.339844 188.625 29.265625 C 188.996094 29.195312 189.355469 29.085938 189.703125 28.9375 C 190.054688 28.792969 190.386719 28.617188 190.699219 28.40625 C 191.015625 28.195312 191.304688 27.957031 191.574219 27.691406 C 191.839844 27.421875 192.078125 27.132812 192.289062 26.816406 C 192.5 26.503906 192.675781 26.171875 192.820312 25.820312 C 192.964844 25.472656 193.074219 25.113281 193.148438 24.742188 C 193.222656 24.371094 193.261719 23.996094 193.261719 23.617188 C 193.261719 23.238281 193.222656 22.863281 193.148438 22.492188 C 193.074219 22.121094 192.964844 21.761719 192.820312 21.414062 C 192.675781 21.0625 192.5 20.730469 192.289062 20.417969 C 192.078125 20.101562 191.839844 19.8125 191.574219 19.542969 C 191.304688 19.277344 191.015625 19.039062 190.699219 18.828125 C 190.386719 18.617188 190.054688 18.441406 189.703125 18.296875 C 189.355469 18.152344 188.996094 18.042969 188.625 17.96875 C 188.253906 17.894531 187.878906 17.855469 187.5 17.855469 Z M 187.5 40.898438 C 187.121094 40.898438 186.746094 40.933594 186.375 41.007812 C 186.003906 41.082031 185.644531 41.191406 185.296875 41.335938 C 184.945312 41.480469 184.613281 41.660156 184.300781 41.871094 C 183.984375 42.078125 183.695312 42.316406 183.425781 42.585938 C 183.160156 42.851562 182.921875 43.144531 182.710938 43.457031 C 182.5 43.773438 182.324219 44.105469 182.179688 44.453125 C 182.035156 44.804688 181.925781 45.164062 181.851562 45.535156 C 181.777344 45.90625 181.738281 46.28125 181.738281 46.660156 C 181.738281 47.039062 181.777344 47.410156 181.851562 47.78125 C 181.925781 48.152344 182.035156 48.515625 182.179688 48.863281 C 182.324219 49.210938 182.5 49.542969 182.710938 49.859375 C 182.921875 50.171875 183.160156 50.464844 183.425781 50.730469 C 183.695312 51 183.984375 51.238281 184.300781 51.449219 C 184.613281 51.660156 184.945312 51.835938 185.296875 51.980469 C 185.644531 52.125 186.003906 52.234375 186.375 52.308594 C 186.746094 52.382812 187.121094 52.417969 187.5 52.417969 C 187.878906 52.417969 188.253906 52.382812 188.625 52.308594 C 188.996094 52.234375 189.355469 52.125 189.703125 51.980469 C 190.054688 51.835938 190.386719 51.660156 190.699219 51.449219 C 191.015625 51.238281 191.304688 51 191.574219 50.730469 C 191.839844 50.464844 192.078125 50.171875 192.289062 49.859375 C 192.5 49.542969 192.675781 49.210938 192.820312 48.863281 C 192.964844 48.515625 193.074219 48.152344 193.148438 47.78125 C 193.222656 47.410156 193.261719 47.039062 193.261719 46.660156 C 193.261719 46.28125 193.222656 45.90625 193.148438 45.535156 C 193.074219 45.164062 192.964844 44.804688 192.820312 44.453125 C 192.675781 44.105469 192.5 43.773438 192.289062 43.457031 C 192.078125 43.144531 191.839844 42.851562 191.574219 42.585938 C 191.304688 42.316406 191.015625 42.078125 190.699219 41.871094 C 190.386719 41.660156 190.054688 41.480469 189.703125 41.335938 C 189.355469 41.191406 188.996094 41.082031 188.625 41.007812 C 188.253906 40.933594 187.878906 40.898438 187.5 40.898438 Z M 187.5 63.941406 C 187.121094 63.941406 186.746094 63.976562 186.375 64.050781 C 186.003906 64.125 185.644531 64.234375 185.296875 64.378906 C 184.945312 64.523438 184.613281 64.699219 184.300781 64.910156 C 183.984375 65.121094 183.695312 65.359375 183.425781 65.628906 C 183.160156 65.894531 182.921875 66.1875 182.710938 66.5 C 182.5 66.816406 182.324219 67.148438 182.179688 67.496094 C 182.035156 67.84375 181.925781 68.207031 181.851562 68.578125 C 181.777344 68.949219 181.738281 69.320312 181.738281 69.699219 C 181.738281 70.078125 181.777344 70.453125 181.851562 70.824219 C 181.925781 71.195312 182.035156 71.554688 182.179688 71.90625 C 182.324219 72.253906 182.5 72.585938 182.710938 72.902344 C 182.921875 73.214844 183.160156 73.507812 183.425781 73.773438 C 183.695312 74.042969 183.984375 74.28125 184.300781 74.488281 C 184.613281 74.699219 184.945312 74.878906 185.296875 75.023438 C 185.644531 75.167969 186.003906 75.277344 186.375 75.351562 C 186.746094 75.425781 187.121094 75.460938 187.5 75.460938 C 187.878906 75.460938 188.253906 75.425781 188.625 75.351562 C 188.996094 75.277344 189.355469 75.167969 189.703125 75.023438 C 190.054688 74.878906 190.386719 74.699219 190.699219 74.488281 C 191.015625 74.28125 191.304688 74.042969 191.574219 73.773438 C 191.839844 73.507812 192.078125 73.214844 192.289062 72.902344 C 192.5 72.585938 192.675781 72.253906 192.820312 71.90625 C 192.964844 71.554688 193.074219 71.195312 193.148438 70.824219 C 193.222656 70.453125 193.261719 70.078125 193.261719 69.699219 C 193.261719 69.320312 193.222656 68.949219 193.148438 68.578125 C 193.074219 68.207031 192.964844 67.84375 192.820312 67.496094 C 192.675781 67.148438 192.5 66.816406 192.289062 66.5 C 192.078125 66.1875 191.839844 65.894531 191.574219 65.628906 C 191.304688 65.359375 191.015625 65.121094 190.699219 64.910156 C 190.386719 64.699219 190.054688 64.523438 189.703125 64.378906 C 189.355469 64.234375 188.996094 64.125 188.625 64.050781 C 188.253906 63.976562 187.878906 63.941406 187.5 63.941406 Z M 187.5 86.980469 C 187.121094 86.980469 186.746094 87.019531 186.375 87.09375 C 186.003906 87.167969 185.644531 87.273438 185.296875 87.421875 C 184.945312 87.566406 184.613281 87.742188 184.300781 87.953125 C 183.984375 88.164062 183.695312 88.402344 183.425781 88.667969 C 183.160156 88.9375 182.921875 89.226562 182.710938 89.542969 C 182.5 89.855469 182.324219 90.1875 182.179688 90.539062 C 182.035156 90.886719 181.925781 91.246094 181.851562 91.617188 C 181.777344 91.988281 181.738281 92.363281 181.738281 92.742188 C 181.738281 93.121094 181.777344 93.496094 181.851562 93.867188 C 181.925781 94.238281 182.035156 94.597656 182.179688 94.945312 C 182.324219 95.296875 182.5 95.628906 182.710938 95.941406 C 182.921875 96.257812 183.160156 96.546875 183.425781 96.816406 C 183.695312 97.082031 183.984375 97.320312 184.300781 97.53125 C 184.613281 97.742188 184.945312 97.917969 185.296875 98.0625 C 185.644531 98.207031 186.003906 98.316406 186.375 98.390625 C 186.746094 98.464844 187.121094 98.503906 187.5 98.503906 C 187.878906 98.503906 188.253906 98.464844 188.625 98.390625 C 188.996094 98.316406 189.355469 98.207031 189.703125 98.0625 C 190.054688 97.917969 190.386719 97.742188 190.699219 97.53125 C 191.015625 97.320312 191.304688 97.082031 191.574219 96.816406 C 191.839844 96.546875 192.078125 96.257812 192.289062 95.941406 C 192.5 95.628906 192.675781 95.296875 192.820312 94.945312 C 192.964844 94.597656 193.074219 94.238281 193.148438 93.867188 C 193.222656 93.496094 193.261719 93.121094 193.261719 92.742188 C 193.261719 92.363281 193.222656 91.988281 193.148438 91.617188 C 193.074219 91.246094 192.964844 90.886719 192.820312 90.539062 C 192.675781 90.1875 192.5 89.855469 192.289062 89.542969 C 192.078125 89.226562 191.839844 88.9375 191.574219 88.667969 C 191.304688 88.402344 191.015625 88.164062 190.699219 87.953125 C 190.386719 87.742188 190.054688 87.566406 189.703125 87.421875 C 189.355469 87.273438 188.996094 87.167969 188.625 87.09375 C 188.253906 87.019531 187.878906 86.980469 187.5 86.980469 Z M 147.175781 97.164062 L 55.011719 133.335938 L 55.011719 211.785156 L 62.964844 208.5 L 147.175781 173.824219 Z M 239.34375 107.492188 L 239.34375 257.9375 L 251.144531 262.648438 L 251.683594 262.863281 L 273.074219 271.425781 L 273.332031 271.527344 L 273.613281 271.640625 L 295 280.191406 L 295.550781 280.414062 L 308.46875 285.578125 L 308.46875 133.253906 Z M 187.5 110.023438 C 187.121094 110.023438 186.746094 110.058594 186.375 110.132812 C 186.003906 110.207031 185.644531 110.316406 185.296875 110.460938 C 184.945312 110.605469 184.613281 110.785156 184.300781 110.992188 C 183.984375 111.203125 183.695312 111.441406 183.425781 111.710938 C 183.160156 111.976562 182.921875 112.269531 182.710938 112.582031 C 182.5 112.898438 182.324219 113.230469 182.179688 113.578125 C 182.035156 113.929688 181.925781 114.289062 181.851562 114.660156 C 181.777344 115.03125 181.738281 115.40625 181.738281 115.785156 C 181.738281 116.160156 181.777344 116.535156 181.851562 116.90625 C 181.925781 117.277344 182.035156 117.636719 182.179688 117.988281 C 182.324219 118.335938 182.5 118.667969 182.710938 118.984375 C 182.921875 119.296875 183.160156 119.589844 183.425781 119.855469 C 183.695312 120.125 183.984375 120.363281 184.300781 120.574219 C 184.613281 120.78125 184.945312 120.960938 185.296875 121.105469 C 185.644531 121.25 186.003906 121.359375 186.375 121.433594 C 186.746094 121.507812 187.121094 121.542969 187.5 121.542969 C 187.878906 121.542969 188.253906 121.507812 188.625 121.433594 C 188.996094 121.359375 189.355469 121.25 189.703125 121.105469 C 190.054688 120.960938 190.386719 120.78125 190.699219 120.574219 C 191.015625 120.363281 191.304688 120.125 191.574219 119.855469 C 191.839844 119.589844 192.078125 119.296875 192.289062 118.984375 C 192.5 118.667969 192.675781 118.335938 192.820312 117.988281 C 192.964844 117.636719 193.074219 117.277344 193.148438 116.90625 C 193.222656 116.535156 193.261719 116.160156 193.261719 115.785156 C 193.261719 115.40625 193.222656 115.03125 193.148438 114.660156 C 193.074219 114.289062 192.964844 113.929688 192.820312 113.578125 C 192.675781 113.230469 192.5 112.898438 192.289062 112.582031 C 192.078125 112.269531 191.839844 111.976562 191.574219 111.710938 C 191.304688 111.441406 191.015625 111.203125 190.699219 110.992188 C 190.386719 110.785156 190.054688 110.605469 189.703125 110.460938 C 189.355469 110.316406 188.996094 110.207031 188.625 110.132812 C 188.253906 110.058594 187.878906 110.023438 187.5 110.023438 Z M 135.65625 114.0625 L 135.65625 166.117188 L 66.53125 194.582031 L 66.53125 141.1875 Z M 250.863281 124.085938 L 296.945312 141.253906 L 296.945312 268.566406 L 277.898438 260.941406 L 277.886719 260.941406 L 277.347656 260.726562 L 255.464844 251.960938 L 255.421875 251.949219 L 250.863281 250.128906 Z M 187.5 133.066406 C 187.121094 133.066406 186.746094 133.101562 186.375 133.175781 C 186.003906 133.25 185.644531 133.359375 185.296875 133.503906 C 184.945312 133.648438 184.613281 133.824219 184.300781 134.035156 C 183.984375 134.246094 183.695312 134.484375 183.425781 134.75 C 183.160156 135.019531 182.921875 135.308594 182.710938 135.625 C 182.5 135.9375 182.324219 136.269531 182.179688 136.621094 C 182.035156 136.96875 181.925781 137.332031 181.851562 137.699219 C 181.777344 138.070312 181.738281 138.445312 181.738281 138.824219 C 181.738281 139.203125 181.777344 139.578125 181.851562 139.949219 C 181.925781 140.320312 182.035156 140.679688 182.179688 141.027344 C 182.324219 141.378906 182.5 141.710938 182.710938 142.023438 C 182.921875 142.339844 183.160156 142.628906 183.425781 142.898438 C 183.695312 143.164062 183.984375 143.40625 184.300781 143.613281 C 184.613281 143.824219 184.945312 144.003906 185.296875 144.148438 C 185.644531 144.292969 186.003906 144.402344 186.375 144.472656 C 186.746094 144.546875 187.121094 144.585938 187.5 144.585938 C 187.878906 144.585938 188.253906 144.546875 188.625 144.472656 C 188.996094 144.402344 189.355469 144.292969 189.703125 144.148438 C 190.054688 144.003906 190.386719 143.824219 190.699219 143.613281 C 191.015625 143.40625 191.304688 143.164062 191.574219 142.898438 C 191.839844 142.628906 192.078125 142.339844 192.289062 142.023438 C 192.5 141.710938 192.675781 141.378906 192.820312 141.027344 C 192.964844 140.679688 193.074219 140.320312 193.148438 139.949219 C 193.222656 139.578125 193.261719 139.203125 193.261719 138.824219 C 193.261719 138.445312 193.222656 138.070312 193.148438 137.699219 C 193.074219 137.332031 192.964844 136.96875 192.820312 136.621094 C 192.675781 136.269531 192.5 135.9375 192.289062 135.625 C 192.078125 135.308594 191.839844 135.019531 191.574219 134.75 C 191.304688 134.484375 191.015625 134.246094 190.699219 134.035156 C 190.386719 133.824219 190.054688 133.648438 189.703125 133.503906 C 189.355469 133.359375 188.996094 133.25 188.625 133.175781 C 188.253906 133.101562 187.878906 133.066406 187.5 133.066406 Z M 187.5 156.105469 C 187.121094 156.105469 186.746094 156.144531 186.375 156.214844 C 186.003906 156.289062 185.644531 156.398438 185.296875 156.542969 C 184.945312 156.6875 184.613281 156.867188 184.300781 157.078125 C 183.984375 157.285156 183.695312 157.527344 183.425781 157.792969 C 183.160156 158.0625 182.921875 158.351562 182.710938 158.667969 C 182.5 158.980469 182.324219 159.3125 182.179688 159.660156 C 182.035156 160.011719 181.925781 160.371094 181.851562 160.742188 C 181.777344 161.113281 181.738281 161.488281 181.738281 161.867188 C 181.738281 162.246094 181.777344 162.621094 181.851562 162.988281 C 181.925781 163.359375 182.035156 163.722656 182.179688 164.070312 C 182.324219 164.421875 182.5 164.753906 182.710938 165.066406 C 182.921875 165.382812 183.160156 165.671875 183.425781 165.941406 C 183.695312 166.207031 183.984375 166.445312 184.300781 166.65625 C 184.613281 166.867188 184.945312 167.042969 185.296875 167.1875 C 185.644531 167.332031 186.003906 167.441406 186.375 167.515625 C 186.746094 167.589844 187.121094 167.625 187.5 167.625 C 187.878906 167.625 188.253906 167.589844 188.625 167.515625 C 188.996094 167.441406 189.355469 167.332031 189.703125 167.1875 C 190.054688 167.042969 190.386719 166.867188 190.699219 166.65625 C 191.015625 166.445312 191.304688 166.207031 191.574219 165.941406 C 191.839844 165.671875 192.078125 165.382812 192.289062 165.066406 C 192.5 164.753906 192.675781 164.421875 192.820312 164.070312 C 192.964844 163.722656 193.074219 163.359375 193.148438 162.988281 C 193.222656 162.621094 193.261719 162.246094 193.261719 161.867188 C 193.261719 161.488281 193.222656 161.113281 193.148438 160.742188 C 193.074219 160.371094 192.964844 160.011719 192.820312 159.660156 C 192.675781 159.3125 192.5 158.980469 192.289062 158.667969 C 192.078125 158.351562 191.839844 158.0625 191.574219 157.792969 C 191.304688 157.527344 191.015625 157.285156 190.699219 157.078125 C 190.386719 156.867188 190.054688 156.6875 189.703125 156.542969 C 189.355469 156.398438 188.996094 156.289062 188.625 156.214844 C 188.253906 156.144531 187.878906 156.105469 187.5 156.105469 Z M 187.5 179.148438 C 187.121094 179.148438 186.746094 179.183594 186.375 179.257812 C 186.003906 179.332031 185.644531 179.441406 185.296875 179.585938 C 184.945312 179.730469 184.613281 179.90625 184.300781 180.117188 C 183.984375 180.328125 183.695312 180.566406 183.425781 180.835938 C 183.160156 181.101562 182.921875 181.394531 182.710938 181.707031 C 182.5 182.023438 182.324219 182.355469 182.179688 182.703125 C 182.035156 183.054688 181.925781 183.414062 181.851562 183.785156 C 181.777344 184.15625 181.738281 184.53125 181.738281 184.90625 C 181.738281 185.285156 181.777344 185.660156 181.851562 186.03125 C 181.925781 186.402344 182.035156 186.761719 182.179688 187.113281 C 182.324219 187.460938 182.5 187.792969 182.710938 188.109375 C 182.921875 188.421875 183.160156 188.714844 183.425781 188.980469 C 183.695312 189.25 183.984375 189.488281 184.300781 189.699219 C 184.613281 189.90625 184.945312 190.085938 185.296875 190.230469 C 185.644531 190.375 186.003906 190.484375 186.375 190.558594 C 186.746094 190.632812 187.121094 190.667969 187.5 190.667969 C 187.878906 190.667969 188.253906 190.632812 188.625 190.558594 C 188.996094 190.484375 189.355469 190.375 189.703125 190.230469 C 190.054688 190.085938 190.386719 189.90625 190.699219 189.699219 C 191.015625 189.488281 191.304688 189.25 191.574219 188.980469 C 191.839844 188.714844 192.078125 188.421875 192.289062 188.109375 C 192.5 187.792969 192.675781 187.460938 192.820312 187.113281 C 192.964844 186.761719 193.074219 186.402344 193.148438 186.03125 C 193.222656 185.660156 193.261719 185.285156 193.261719 184.90625 C 193.261719 184.53125 193.222656 184.15625 193.148438 183.785156 C 193.074219 183.414062 192.964844 183.054688 192.820312 182.703125 C 192.675781 182.355469 192.5 182.023438 192.289062 181.707031 C 192.078125 181.394531 191.839844 181.101562 191.574219 180.835938 C 191.304688 180.566406 191.015625 180.328125 190.699219 180.117188 C 190.386719 179.90625 190.054688 179.730469 189.703125 179.585938 C 189.355469 179.441406 188.996094 179.332031 188.625 179.257812 C 188.253906 179.183594 187.878906 179.148438 187.5 179.148438 Z M 187.5 202.1875 C 187.121094 202.1875 186.746094 202.226562 186.375 202.300781 C 186.003906 202.375 185.644531 202.484375 185.296875 202.628906 C 184.945312 202.773438 184.613281 202.949219 184.300781 203.160156 C 183.984375 203.371094 183.695312 203.609375 183.425781 203.875 C 183.160156 204.144531 182.921875 204.433594 182.710938 204.75 C 182.5 205.0625 182.324219 205.394531 182.179688 205.746094 C 182.035156 206.09375 181.925781 206.453125 181.851562 206.824219 C 181.777344 207.195312 181.738281 207.570312 181.738281 207.949219 C 181.738281 208.328125 181.777344 208.703125 181.851562 209.074219 C 181.925781 209.445312 182.035156 209.804688 182.179688 210.152344 C 182.324219 210.503906 182.5 210.835938 182.710938 211.148438 C 182.921875 211.464844 183.160156 211.753906 183.425781 212.023438 C 183.695312 212.289062 183.984375 212.527344 184.300781 212.738281 C 184.613281 212.949219 184.945312 213.125 185.296875 213.269531 C 185.644531 213.414062 186.003906 213.523438 186.375 213.597656 C 186.746094 213.671875 187.121094 213.710938 187.5 213.710938 C 187.878906 213.710938 188.253906 213.671875 188.625 213.597656 C 188.996094 213.523438 189.355469 213.414062 189.703125 213.269531 C 190.054688 213.125 190.386719 212.949219 190.699219 212.738281 C 191.015625 212.527344 191.304688 212.289062 191.574219 212.023438 C 191.839844 211.753906 192.078125 211.464844 192.289062 211.148438 C 192.5 210.835938 192.675781 210.503906 192.820312 210.152344 C 192.964844 209.804688 193.074219 209.445312 193.148438 209.074219 C 193.222656 208.703125 193.261719 208.328125 193.261719 207.949219 C 193.261719 207.570312 193.222656 207.195312 193.148438 206.824219 C 193.074219 206.453125 192.964844 206.09375 192.820312 205.746094 C 192.675781 205.394531 192.5 205.0625 192.289062 204.75 C 192.078125 204.433594 191.839844 204.144531 191.574219 203.875 C 191.304688 203.609375 191.015625 203.371094 190.699219 203.160156 C 190.386719 202.949219 190.054688 202.773438 189.703125 202.628906 C 189.355469 202.484375 188.996094 202.375 188.625 202.300781 C 188.253906 202.226562 187.878906 202.1875 187.5 202.1875 Z M 187.355469 225.230469 L 185.363281 225.648438 L 184.824219 225.859375 L 184.640625 226.0625 L 184.496094 226.074219 L 184.167969 226.589844 L 181.402344 229.71875 L 182.4375 234.769531 L 184.089844 235.546875 L 185.363281 236.335938 L 185.890625 236.546875 L 186.183594 236.527344 L 187.117188 236.964844 L 189.109375 236.546875 L 189.636719 236.335938 L 189.726562 236.234375 L 191.042969 236.121094 L 193.765625 231.746094 L 191.898438 226.929688 L 190.175781 225.859375 L 189.636719 225.648438 L 188.445312 225.746094 Z M 165.425781 234.007812 L 163.433594 234.410156 L 162.894531 234.625 L 159.472656 238.484375 L 160.507812 243.546875 L 165.191406 245.730469 L 167.179688 245.324219 L 167.710938 245.109375 L 171.140625 241.25 L 170.09375 236.199219 Z M 211.566406 234.410156 L 206.421875 234.851562 L 203.691406 239.226562 L 205.570312 244.042969 L 207.289062 245.109375 L 207.820312 245.324219 L 212.972656 244.898438 L 215.695312 240.507812 L 213.828125 235.703125 L 212.105469 234.625 Z M 143.488281 242.769531 L 141.507812 243.1875 L 140.96875 243.398438 L 137.546875 247.257812 L 138.582031 252.3125 L 143.261719 254.503906 L 145.242188 254.101562 L 145.78125 253.886719 L 149.214844 250.015625 L 148.167969 244.964844 Z M 233.492188 243.1875 L 228.351562 243.613281 L 225.617188 248 L 227.496094 252.804688 L 229.21875 253.886719 L 229.757812 254.101562 L 234.898438 253.660156 L 237.621094 249.285156 L 235.753906 244.46875 L 234.03125 243.398438 Z M 121.558594 251.546875 L 119.578125 251.949219 L 119.039062 252.175781 L 115.621094 256.035156 L 116.652344 261.085938 L 121.335938 263.28125 L 123.316406 262.863281 L 123.855469 262.648438 L 127.273438 258.792969 L 126.238281 253.738281 Z M 99.632812 260.320312 L 97.652344 260.726562 L 97.113281 260.941406 L 93.691406 264.800781 L 94.726562 269.863281 L 99.40625 272.042969 L 101.386719 271.640625 L 101.925781 271.425781 L 105.347656 267.566406 L 104.3125 262.503906 Z M 77.703125 269.085938 L 75.722656 269.503906 L 75.183594 269.714844 L 71.765625 273.574219 L 72.800781 278.625 L 77.480469 280.820312 L 79.460938 280.414062 L 80 280.191406 L 83.417969 276.332031 L 82.382812 271.28125 Z M 55.777344 277.859375 L 53.785156 278.265625 L 53.257812 278.480469 L 49.824219 282.351562 L 50.871094 287.402344 L 55.550781 289.597656 L 57.53125 289.179688 L 58.070312 288.964844 L 61.492188 285.105469 L 60.457031 280.054688 Z M 321.214844 278.265625 L 316.0625 278.707031 L 313.339844 283.082031 L 315.207031 287.898438 L 316.929688 288.964844 L 317.46875 289.179688 L 322.609375 288.753906 L 325.34375 284.363281 L 323.464844 279.558594 L 321.742188 278.480469 Z M 33.847656 286.636719 L 31.859375 287.042969 L 31.328125 287.253906 L 27.898438 291.113281 L 28.945312 296.167969 L 33.613281 298.359375 L 35.605469 297.953125 L 36.144531 297.742188 L 39.5625 293.882812 L 38.527344 288.820312 Z M 343.140625 287.042969 L 337.988281 287.46875 L 335.265625 291.855469 L 337.132812 296.660156 L 338.855469 297.742188 L 339.394531 297.953125 L 344.539062 297.515625 L 347.269531 293.140625 L 345.394531 288.335938 L 343.671875 287.253906 Z M 343.140625 287.042969 " fill-opacity="1" fill-rule="nonzero"/></g></svg>