<svg xmlns="http://www.w3.org/2000/svg" xmlns:xlink="http://www.w3.org/1999/xlink" width="500" zoomAndPan="magnify" viewBox="0 0 375 374.999991" height="500" preserveAspectRatio="xMidYMid meet" version="1.0"><path fill="#ffffff" d="M 276.203125 362.371094 L 17.835938 362.371094 C 17.496094 362.371094 17.164062 362.335938 16.835938 362.273438 C 16.503906 362.207031 16.183594 362.109375 15.871094 361.980469 C 15.5625 361.851562 15.265625 361.695312 14.984375 361.507812 C 14.707031 361.320312 14.449219 361.105469 14.210938 360.871094 C 13.972656 360.632812 13.757812 360.371094 13.570312 360.09375 C 13.386719 359.8125 13.226562 359.515625 13.097656 359.207031 C 12.96875 358.894531 12.871094 358.574219 12.804688 358.246094 C 12.742188 357.914062 12.707031 357.582031 12.707031 357.246094 L 12.707031 98.875 C 12.707031 98.539062 12.742188 98.203125 12.804688 97.875 C 12.871094 97.542969 12.96875 97.222656 13.097656 96.914062 C 13.226562 96.601562 13.386719 96.308594 13.570312 96.027344 C 13.757812 95.746094 13.972656 95.488281 14.210938 95.25 C 14.449219 95.011719 14.707031 94.800781 14.984375 94.613281 C 15.265625 94.425781 15.5625 94.265625 15.871094 94.140625 C 16.183594 94.011719 16.503906 93.914062 16.835938 93.847656 C 17.164062 93.78125 17.496094 93.75 17.835938 93.75 L 276.203125 93.75 C 276.539062 93.75 276.871094 93.78125 277.203125 93.847656 C 277.535156 93.914062 277.855469 94.011719 278.164062 94.140625 C 278.476562 94.265625 278.769531 94.425781 279.050781 94.613281 C 279.332031 94.800781 279.589844 95.011719 279.828125 95.25 C 280.066406 95.488281 280.277344 95.746094 280.464844 96.027344 C 280.652344 96.308594 280.808594 96.601562 280.9375 96.914062 C 281.066406 97.222656 281.164062 97.542969 281.230469 97.875 C 281.296875 98.203125 281.328125 98.539062 281.328125 98.875 L 281.328125 357.246094 C 281.328125 357.582031 281.296875 357.914062 281.230469 358.246094 C 281.164062 358.574219 281.066406 358.894531 280.9375 359.207031 C 280.808594 359.515625 280.652344 359.8125 280.464844 360.09375 C 280.277344 360.371094 280.066406 360.632812 279.828125 360.871094 C 279.589844 361.105469 279.332031 361.320312 279.050781 361.507812 C 278.769531 361.695312 278.476562 361.851562 278.164062 361.980469 C 277.855469 362.109375 277.535156 362.207031 277.203125 362.273438 C 276.871094 362.335938 276.539062 362.371094 276.203125 362.371094 Z M 22.960938 352.117188 L 271.078125 352.117188 L 271.078125 104 L 22.960938 104 Z M 22.960938 352.117188 " fill-opacity="1" fill-rule="nonzero"/><path fill="#ffffff" d="M 335.722656 374.988281 C 335.042969 374.992188 334.386719 374.859375 333.757812 374.601562 C 333.132812 374.339844 332.578125 373.96875 332.097656 373.488281 L 300.363281 341.753906 C 300.125 341.515625 299.914062 341.257812 299.726562 340.976562 C 299.539062 340.699219 299.378906 340.402344 299.253906 340.089844 C 299.125 339.78125 299.027344 339.460938 298.960938 339.128906 C 298.894531 338.800781 298.863281 338.464844 298.863281 338.128906 C 298.863281 337.792969 298.894531 337.460938 298.960938 337.128906 C 299.027344 336.800781 299.125 336.480469 299.253906 336.167969 C 299.378906 335.855469 299.539062 335.5625 299.726562 335.28125 C 299.914062 335 300.125 334.742188 300.363281 334.503906 C 300.601562 334.265625 300.859375 334.054688 301.140625 333.867188 C 301.421875 333.679688 301.714844 333.523438 302.027344 333.394531 C 302.335938 333.265625 302.65625 333.167969 302.988281 333.101562 C 303.316406 333.035156 303.652344 333.003906 303.988281 333.003906 C 304.324219 333.003906 304.65625 333.035156 304.988281 333.101562 C 305.316406 333.167969 305.640625 333.265625 305.949219 333.394531 C 306.261719 333.523438 306.554688 333.679688 306.835938 333.867188 C 307.117188 334.054688 307.375 334.265625 307.613281 334.503906 L 335.722656 362.613281 L 363.832031 334.503906 C 364.070312 334.269531 364.328125 334.054688 364.609375 333.871094 C 364.886719 333.683594 365.183594 333.527344 365.496094 333.398438 C 365.804688 333.269531 366.125 333.171875 366.457031 333.105469 C 366.785156 333.042969 367.117188 333.007812 367.453125 333.011719 C 367.789062 333.011719 368.125 333.042969 368.453125 333.109375 C 368.78125 333.175781 369.101562 333.273438 369.414062 333.402344 C 369.722656 333.53125 370.019531 333.6875 370.296875 333.875 C 370.578125 334.0625 370.835938 334.273438 371.074219 334.511719 C 371.3125 334.75 371.523438 335.007812 371.710938 335.289062 C 371.898438 335.566406 372.054688 335.863281 372.183594 336.171875 C 372.3125 336.484375 372.410156 336.804688 372.476562 337.132812 C 372.542969 337.460938 372.574219 337.796875 372.574219 338.132812 C 372.578125 338.46875 372.542969 338.800781 372.480469 339.128906 C 372.414062 339.460938 372.316406 339.78125 372.1875 340.089844 C 372.058594 340.402344 371.902344 340.699219 371.714844 340.976562 C 371.53125 341.257812 371.320312 341.515625 371.082031 341.753906 L 339.347656 373.488281 C 338.867188 373.96875 338.3125 374.339844 337.683594 374.601562 C 337.054688 374.859375 336.402344 374.992188 335.722656 374.988281 Z M 335.722656 374.988281 " fill-opacity="1" fill-rule="nonzero"/><path fill="#ffffff" d="M 367.457031 123.082031 C 366.777344 123.082031 366.121094 122.953125 365.492188 122.691406 C 364.867188 122.429688 364.3125 122.0625 363.832031 121.578125 L 335.722656 93.46875 L 307.613281 121.578125 C 307.375 121.816406 307.117188 122.03125 306.835938 122.214844 C 306.554688 122.402344 306.261719 122.5625 305.949219 122.691406 C 305.640625 122.820312 305.316406 122.917969 304.988281 122.980469 C 304.65625 123.046875 304.324219 123.082031 303.988281 123.082031 C 303.652344 123.082031 303.316406 123.046875 302.988281 122.980469 C 302.65625 122.917969 302.335938 122.820312 302.027344 122.691406 C 301.714844 122.5625 301.421875 122.402344 301.140625 122.214844 C 300.859375 122.03125 300.601562 121.816406 300.363281 121.578125 C 300.125 121.339844 299.914062 121.082031 299.726562 120.800781 C 299.539062 120.523438 299.382812 120.226562 299.253906 119.917969 C 299.125 119.605469 299.027344 119.285156 298.960938 118.953125 C 298.894531 118.625 298.863281 118.289062 298.863281 117.953125 C 298.863281 117.617188 298.894531 117.285156 298.960938 116.953125 C 299.027344 116.625 299.125 116.304688 299.253906 115.992188 C 299.382812 115.679688 299.539062 115.386719 299.726562 115.105469 C 299.914062 114.828125 300.125 114.566406 300.363281 114.328125 L 332.097656 82.59375 C 332.335938 82.355469 332.59375 82.144531 332.875 81.957031 C 333.152344 81.769531 333.449219 81.613281 333.761719 81.484375 C 334.070312 81.355469 334.390625 81.257812 334.722656 81.191406 C 335.050781 81.125 335.386719 81.09375 335.722656 81.09375 C 336.058594 81.09375 336.390625 81.125 336.722656 81.191406 C 337.050781 81.257812 337.371094 81.355469 337.683594 81.484375 C 337.996094 81.613281 338.289062 81.769531 338.570312 81.957031 C 338.851562 82.144531 339.109375 82.355469 339.347656 82.59375 L 371.082031 114.328125 C 371.441406 114.6875 371.738281 115.089844 371.976562 115.539062 C 372.214844 115.984375 372.386719 116.457031 372.484375 116.953125 C 372.582031 117.453125 372.609375 117.953125 372.558594 118.457031 C 372.507812 118.960938 372.386719 119.449219 372.191406 119.917969 C 372 120.382812 371.742188 120.816406 371.417969 121.207031 C 371.097656 121.597656 370.726562 121.933594 370.304688 122.21875 C 369.882812 122.5 369.429688 122.714844 368.945312 122.859375 C 368.460938 123.007812 367.964844 123.082031 367.457031 123.082031 Z M 367.457031 123.082031 " fill-opacity="1" fill-rule="nonzero"/><path fill="#ffffff" d="M 335.738281 372.144531 C 335.402344 372.144531 335.066406 372.113281 334.738281 372.046875 C 334.40625 371.980469 334.085938 371.882812 333.777344 371.753906 C 333.464844 371.625 333.167969 371.46875 332.890625 371.28125 C 332.609375 371.09375 332.351562 370.882812 332.113281 370.644531 C 331.875 370.40625 331.660156 370.148438 331.476562 369.867188 C 331.289062 369.585938 331.128906 369.292969 331 368.980469 C 330.871094 368.667969 330.777344 368.347656 330.710938 368.019531 C 330.644531 367.6875 330.613281 367.355469 330.613281 367.019531 L 330.613281 95.664062 C 330.613281 95.324219 330.644531 94.992188 330.710938 94.664062 C 330.777344 94.332031 330.871094 94.011719 331 93.699219 C 331.128906 93.390625 331.289062 93.09375 331.476562 92.816406 C 331.664062 92.535156 331.875 92.277344 332.113281 92.039062 C 332.351562 91.800781 332.609375 91.585938 332.890625 91.398438 C 333.167969 91.214844 333.464844 91.054688 333.777344 90.925781 C 334.085938 90.796875 334.40625 90.699219 334.738281 90.636719 C 335.066406 90.570312 335.402344 90.535156 335.738281 90.535156 C 336.074219 90.535156 336.40625 90.570312 336.738281 90.636719 C 337.066406 90.699219 337.386719 90.796875 337.699219 90.925781 C 338.011719 91.054688 338.304688 91.214844 338.585938 91.398438 C 338.863281 91.585938 339.125 91.800781 339.363281 92.039062 C 339.601562 92.277344 339.8125 92.535156 340 92.816406 C 340.1875 93.09375 340.34375 93.390625 340.472656 93.699219 C 340.601562 94.011719 340.699219 94.332031 340.765625 94.664062 C 340.832031 94.992188 340.863281 95.324219 340.863281 95.664062 L 340.863281 367.019531 C 340.863281 367.355469 340.832031 367.6875 340.765625 368.019531 C 340.699219 368.347656 340.601562 368.667969 340.472656 368.980469 C 340.34375 369.292969 340.1875 369.585938 340 369.867188 C 339.8125 370.148438 339.601562 370.40625 339.363281 370.644531 C 339.125 370.882812 338.867188 371.09375 338.585938 371.28125 C 338.304688 371.46875 338.011719 371.625 337.699219 371.753906 C 337.386719 371.882812 337.066406 371.980469 336.738281 372.046875 C 336.40625 372.113281 336.074219 372.144531 335.738281 372.144531 Z M 335.738281 372.144531 " fill-opacity="1" fill-rule="nonzero"/><path fill="#ffffff" d="M 257.101562 74.199219 C 256.59375 74.199219 256.097656 74.125 255.613281 73.976562 C 255.128906 73.828125 254.675781 73.613281 254.253906 73.332031 C 253.832031 73.050781 253.460938 72.714844 253.136719 72.324219 C 252.816406 71.929688 252.558594 71.5 252.363281 71.03125 C 252.171875 70.566406 252.050781 70.078125 252 69.574219 C 251.949219 69.070312 251.972656 68.566406 252.074219 68.070312 C 252.171875 67.574219 252.339844 67.101562 252.582031 66.65625 C 252.820312 66.207031 253.117188 65.804688 253.476562 65.445312 L 281.585938 37.335938 L 253.476562 9.226562 C 253.238281 8.988281 253.027344 8.730469 252.839844 8.449219 C 252.652344 8.171875 252.496094 7.875 252.367188 7.5625 C 252.238281 7.253906 252.140625 6.933594 252.078125 6.601562 C 252.011719 6.273438 251.980469 5.941406 251.980469 5.605469 C 251.980469 5.265625 252.011719 4.933594 252.078125 4.605469 C 252.144531 4.273438 252.242188 3.953125 252.371094 3.644531 C 252.5 3.332031 252.65625 3.039062 252.84375 2.757812 C 253.03125 2.480469 253.242188 2.21875 253.480469 1.980469 C 253.71875 1.746094 253.976562 1.53125 254.257812 1.34375 C 254.535156 1.15625 254.832031 1 255.140625 0.871094 C 255.453125 0.742188 255.773438 0.644531 256.101562 0.578125 C 256.433594 0.515625 256.765625 0.480469 257.101562 0.480469 C 257.4375 0.480469 257.773438 0.511719 258.101562 0.578125 C 258.433594 0.644531 258.753906 0.742188 259.0625 0.867188 C 259.375 0.996094 259.667969 1.15625 259.949219 1.339844 C 260.230469 1.527344 260.488281 1.738281 260.726562 1.976562 L 292.460938 33.710938 C 292.699219 33.949219 292.910156 34.210938 293.097656 34.488281 C 293.285156 34.769531 293.441406 35.0625 293.570312 35.375 C 293.699219 35.6875 293.796875 36.007812 293.863281 36.335938 C 293.929688 36.667969 293.960938 37 293.960938 37.335938 C 293.960938 37.671875 293.929688 38.007812 293.863281 38.335938 C 293.796875 38.667969 293.699219 38.988281 293.570312 39.296875 C 293.441406 39.609375 293.285156 39.90625 293.097656 40.183594 C 292.910156 40.464844 292.699219 40.722656 292.460938 40.960938 L 260.726562 72.695312 C 260.246094 73.175781 259.691406 73.546875 259.0625 73.808594 C 258.433594 74.070312 257.78125 74.199219 257.101562 74.199219 Z M 257.101562 74.199219 " fill-opacity="1" fill-rule="nonzero"/><path fill="#ffffff" d="M 36.925781 74.199219 C 36.246094 74.199219 35.59375 74.070312 34.964844 73.808594 C 34.335938 73.546875 33.78125 73.175781 33.300781 72.695312 L 1.566406 40.960938 C 1.328125 40.722656 1.117188 40.464844 0.929688 40.183594 C 0.742188 39.90625 0.585938 39.609375 0.457031 39.296875 C 0.328125 38.988281 0.230469 38.667969 0.164062 38.335938 C 0.0976562 38.007812 0.0664062 37.671875 0.0664062 37.335938 C 0.0664062 37 0.0976562 36.667969 0.164062 36.335938 C 0.230469 36.007812 0.328125 35.6875 0.457031 35.375 C 0.585938 35.0625 0.742188 34.769531 0.929688 34.488281 C 1.117188 34.210938 1.328125 33.949219 1.566406 33.710938 L 33.300781 1.976562 C 33.539062 1.738281 33.796875 1.527344 34.078125 1.339844 C 34.359375 1.152344 34.652344 0.992188 34.964844 0.863281 C 35.277344 0.734375 35.597656 0.636719 35.925781 0.574219 C 36.257812 0.507812 36.589844 0.472656 36.925781 0.472656 C 37.261719 0.472656 37.597656 0.507812 37.925781 0.570312 C 38.257812 0.636719 38.578125 0.734375 38.890625 0.863281 C 39.199219 0.992188 39.496094 1.152344 39.777344 1.335938 C 40.054688 1.523438 40.316406 1.738281 40.554688 1.976562 C 40.792969 2.214844 41.003906 2.472656 41.191406 2.753906 C 41.378906 3.03125 41.535156 3.328125 41.664062 3.640625 C 41.792969 3.949219 41.890625 4.269531 41.957031 4.601562 C 42.023438 4.929688 42.054688 5.265625 42.054688 5.601562 C 42.054688 5.9375 42.023438 6.273438 41.957031 6.601562 C 41.890625 6.933594 41.792969 7.253906 41.664062 7.5625 C 41.535156 7.875 41.375 8.171875 41.1875 8.449219 C 41.003906 8.730469 40.789062 8.988281 40.550781 9.226562 L 12.441406 37.335938 L 40.550781 65.445312 C 40.910156 65.804688 41.207031 66.207031 41.449219 66.65625 C 41.6875 67.101562 41.855469 67.574219 41.953125 68.070312 C 42.054688 68.566406 42.078125 69.070312 42.027344 69.574219 C 41.976562 70.078125 41.855469 70.566406 41.664062 71.03125 C 41.46875 71.5 41.210938 71.929688 40.890625 72.324219 C 40.566406 72.714844 40.195312 73.050781 39.773438 73.332031 C 39.351562 73.613281 38.898438 73.828125 38.414062 73.976562 C 37.929688 74.125 37.433594 74.199219 36.925781 74.199219 Z M 36.925781 74.199219 " fill-opacity="1" fill-rule="nonzero"/><path fill="#ffffff" d="M 285.976562 42.484375 L 14.621094 42.484375 C 14.285156 42.484375 13.949219 42.453125 13.621094 42.386719 C 13.289062 42.320312 12.96875 42.222656 12.660156 42.09375 C 12.347656 41.964844 12.054688 41.808594 11.773438 41.621094 C 11.492188 41.433594 11.234375 41.222656 10.996094 40.984375 C 10.757812 40.746094 10.546875 40.488281 10.359375 40.207031 C 10.171875 39.925781 10.011719 39.632812 9.886719 39.320312 C 9.757812 39.007812 9.660156 38.6875 9.59375 38.359375 C 9.527344 38.027344 9.496094 37.695312 9.496094 37.359375 C 9.496094 37.023438 9.527344 36.6875 9.59375 36.359375 C 9.660156 36.027344 9.757812 35.707031 9.886719 35.398438 C 10.011719 35.085938 10.171875 34.789062 10.359375 34.511719 C 10.546875 34.230469 10.757812 33.972656 10.996094 33.734375 C 11.234375 33.496094 11.492188 33.28125 11.773438 33.097656 C 12.054688 32.910156 12.347656 32.75 12.660156 32.621094 C 12.96875 32.492188 13.289062 32.394531 13.621094 32.332031 C 13.949219 32.265625 14.285156 32.230469 14.621094 32.230469 L 285.976562 32.230469 C 286.3125 32.230469 286.648438 32.265625 286.976562 32.332031 C 287.308594 32.394531 287.628906 32.492188 287.9375 32.621094 C 288.25 32.75 288.546875 32.910156 288.824219 33.097656 C 289.105469 33.28125 289.363281 33.496094 289.601562 33.734375 C 289.839844 33.972656 290.054688 34.230469 290.238281 34.511719 C 290.425781 34.789062 290.585938 35.085938 290.714844 35.398438 C 290.84375 35.707031 290.941406 36.027344 291.003906 36.359375 C 291.070312 36.6875 291.105469 37.023438 291.105469 37.359375 C 291.105469 37.695312 291.070312 38.027344 291.003906 38.359375 C 290.941406 38.6875 290.84375 39.007812 290.714844 39.320312 C 290.585938 39.632812 290.425781 39.925781 290.238281 40.207031 C 290.054688 40.488281 289.839844 40.746094 289.601562 40.984375 C 289.363281 41.222656 289.105469 41.433594 288.824219 41.621094 C 288.546875 41.808594 288.25 41.964844 287.9375 42.09375 C 287.628906 42.222656 287.308594 42.320312 286.976562 42.386719 C 286.648438 42.453125 286.3125 42.484375 285.976562 42.484375 Z M 285.976562 42.484375 " fill-opacity="1" fill-rule="nonzero"/><path fill="#ffffff" d="M 276.203125 123.449219 C 275.554688 123.449219 274.988281 123.234375 274.503906 122.804688 L 249.625 100.792969 C 249.371094 100.570312 249.167969 100.304688 249.015625 100 C 248.867188 99.691406 248.78125 99.371094 248.761719 99.03125 C 248.738281 98.691406 248.785156 98.359375 248.894531 98.039062 C 249.003906 97.714844 249.171875 97.425781 249.398438 97.171875 C 249.625 96.917969 249.890625 96.714844 250.195312 96.566406 C 250.5 96.417969 250.824219 96.332031 251.164062 96.3125 C 251.503906 96.292969 251.835938 96.335938 252.15625 96.449219 C 252.480469 96.558594 252.765625 96.730469 253.019531 96.957031 L 277.902344 118.964844 C 278.300781 119.316406 278.5625 119.753906 278.691406 120.269531 C 278.820312 120.789062 278.789062 121.292969 278.601562 121.792969 C 278.410156 122.292969 278.097656 122.691406 277.660156 122.992188 C 277.21875 123.296875 276.734375 123.449219 276.203125 123.449219 Z M 276.203125 123.449219 " fill-opacity="1" fill-rule="nonzero"/><path fill="#ffffff" d="M 276.203125 149.558594 C 275.554688 149.558594 274.988281 149.34375 274.503906 148.914062 L 220.097656 100.792969 C 219.84375 100.570312 219.640625 100.304688 219.488281 100 C 219.339844 99.691406 219.253906 99.371094 219.234375 99.03125 C 219.210938 98.691406 219.257812 98.359375 219.367188 98.039062 C 219.476562 97.714844 219.644531 97.425781 219.871094 97.171875 C 220.097656 96.917969 220.363281 96.714844 220.667969 96.566406 C 220.972656 96.417969 221.296875 96.332031 221.636719 96.3125 C 221.976562 96.292969 222.308594 96.335938 222.628906 96.449219 C 222.953125 96.558594 223.238281 96.730469 223.492188 96.957031 L 277.902344 145.074219 C 278.300781 145.425781 278.5625 145.863281 278.691406 146.378906 C 278.820312 146.898438 278.789062 147.40625 278.601562 147.902344 C 278.410156 148.402344 278.097656 148.800781 277.660156 149.105469 C 277.21875 149.40625 276.734375 149.558594 276.203125 149.558594 Z M 276.203125 149.558594 " fill-opacity="1" fill-rule="nonzero"/><path fill="#ffffff" d="M 276.203125 175.601562 C 275.554688 175.601562 274.988281 175.386719 274.503906 174.957031 L 190.570312 100.796875 C 190.316406 100.570312 190.113281 100.304688 189.964844 100 C 189.816406 99.695312 189.734375 99.371094 189.714844 99.035156 C 189.691406 98.695312 189.738281 98.367188 189.847656 98.042969 C 189.957031 97.722656 190.125 97.4375 190.351562 97.179688 C 190.574219 96.925781 190.839844 96.726562 191.144531 96.578125 C 191.449219 96.425781 191.773438 96.34375 192.109375 96.320312 C 192.449219 96.300781 192.777344 96.34375 193.101562 96.453125 C 193.421875 96.5625 193.710938 96.730469 193.964844 96.953125 L 277.898438 171.117188 C 278.300781 171.46875 278.5625 171.902344 278.691406 172.421875 C 278.820312 172.9375 278.789062 173.445312 278.601562 173.945312 C 278.410156 174.441406 278.097656 174.84375 277.660156 175.144531 C 277.21875 175.449219 276.734375 175.601562 276.203125 175.601562 Z M 276.203125 175.601562 " fill-opacity="1" fill-rule="nonzero"/><path fill="#ffffff" d="M 276.203125 201.710938 C 275.554688 201.710938 274.988281 201.496094 274.503906 201.066406 L 161.109375 100.796875 C 160.855469 100.570312 160.652344 100.304688 160.503906 100 C 160.355469 99.695312 160.269531 99.371094 160.25 99.03125 C 160.226562 98.691406 160.273438 98.363281 160.382812 98.039062 C 160.492188 97.71875 160.660156 97.429688 160.886719 97.175781 C 161.113281 96.921875 161.378906 96.71875 161.683594 96.570312 C 161.988281 96.421875 162.3125 96.335938 162.652344 96.316406 C 162.988281 96.296875 163.320312 96.339844 163.640625 96.449219 C 163.964844 96.5625 164.25 96.730469 164.503906 96.953125 L 277.902344 197.226562 C 278.300781 197.578125 278.5625 198.015625 278.691406 198.53125 C 278.820312 199.050781 278.789062 199.558594 278.601562 200.054688 C 278.410156 200.554688 278.097656 200.953125 277.660156 201.257812 C 277.21875 201.558594 276.734375 201.710938 276.203125 201.710938 Z M 276.203125 201.710938 " fill-opacity="1" fill-rule="nonzero"/><path fill="#ffffff" d="M 276.203125 227.753906 C 275.554688 227.753906 274.988281 227.539062 274.503906 227.109375 L 131.582031 100.796875 C 131.328125 100.570312 131.125 100.304688 130.972656 100 C 130.824219 99.695312 130.738281 99.371094 130.71875 99.03125 C 130.695312 98.691406 130.742188 98.363281 130.851562 98.039062 C 130.960938 97.71875 131.128906 97.429688 131.355469 97.175781 C 131.582031 96.917969 131.847656 96.714844 132.152344 96.566406 C 132.457031 96.417969 132.78125 96.332031 133.121094 96.3125 C 133.460938 96.292969 133.789062 96.335938 134.113281 96.449219 C 134.433594 96.558594 134.722656 96.726562 134.976562 96.953125 L 277.898438 223.269531 C 278.300781 223.621094 278.5625 224.054688 278.691406 224.574219 C 278.820312 225.089844 278.789062 225.597656 278.601562 226.097656 C 278.410156 226.59375 278.097656 226.996094 277.660156 227.296875 C 277.21875 227.601562 276.734375 227.753906 276.203125 227.753906 Z M 276.203125 227.753906 " fill-opacity="1" fill-rule="nonzero"/><path fill="#ffffff" d="M 276.203125 253.792969 C 275.554688 253.792969 274.988281 253.582031 274.503906 253.152344 L 102.054688 100.796875 C 101.800781 100.570312 101.597656 100.304688 101.449219 100 C 101.300781 99.695312 101.21875 99.371094 101.199219 99.035156 C 101.175781 98.695312 101.222656 98.367188 101.332031 98.042969 C 101.441406 97.722656 101.609375 97.4375 101.835938 97.179688 C 102.058594 96.925781 102.324219 96.726562 102.628906 96.578125 C 102.933594 96.425781 103.257812 96.34375 103.59375 96.320312 C 103.933594 96.300781 104.261719 96.34375 104.585938 96.453125 C 104.90625 96.5625 105.195312 96.730469 105.449219 96.953125 L 277.898438 249.308594 C 278.300781 249.664062 278.5625 250.097656 278.691406 250.617188 C 278.820312 251.132812 278.789062 251.640625 278.601562 252.140625 C 278.410156 252.636719 278.097656 253.039062 277.660156 253.339844 C 277.21875 253.644531 276.734375 253.792969 276.203125 253.792969 Z M 276.203125 253.792969 " fill-opacity="1" fill-rule="nonzero"/><path fill="#ffffff" d="M 276.203125 279.90625 C 275.554688 279.90625 274.988281 279.691406 274.503906 279.261719 L 72.59375 100.796875 C 72.339844 100.570312 72.136719 100.304688 71.988281 100 C 71.839844 99.695312 71.753906 99.371094 71.734375 99.03125 C 71.710938 98.691406 71.757812 98.363281 71.867188 98.042969 C 71.976562 97.71875 72.144531 97.429688 72.371094 97.175781 C 72.597656 96.921875 72.863281 96.71875 73.167969 96.570312 C 73.472656 96.421875 73.796875 96.335938 74.132812 96.316406 C 74.472656 96.296875 74.804688 96.339844 75.125 96.449219 C 75.449219 96.5625 75.734375 96.730469 75.988281 96.953125 L 277.898438 275.421875 C 278.300781 275.773438 278.5625 276.207031 278.691406 276.726562 C 278.820312 277.242188 278.789062 277.75 278.601562 278.25 C 278.410156 278.746094 278.097656 279.148438 277.660156 279.449219 C 277.21875 279.753906 276.734375 279.90625 276.203125 279.90625 Z M 276.203125 279.90625 " fill-opacity="1" fill-rule="nonzero"/><path fill="#ffffff" d="M 276.203125 305.945312 C 275.554688 305.945312 274.988281 305.734375 274.503906 305.304688 L 43.136719 100.796875 C 42.878906 100.570312 42.679688 100.304688 42.53125 100 C 42.378906 99.695312 42.292969 99.371094 42.273438 99.03125 C 42.253906 98.691406 42.296875 98.363281 42.40625 98.042969 C 42.519531 97.71875 42.6875 97.429688 42.910156 97.175781 C 43.136719 96.921875 43.402344 96.71875 43.707031 96.570312 C 44.011719 96.421875 44.335938 96.335938 44.675781 96.316406 C 45.015625 96.296875 45.34375 96.339844 45.667969 96.449219 C 45.988281 96.5625 46.277344 96.730469 46.53125 96.953125 L 277.898438 301.460938 C 278.300781 301.816406 278.5625 302.25 278.691406 302.765625 C 278.820312 303.285156 278.789062 303.792969 278.601562 304.289062 C 278.410156 304.789062 278.097656 305.191406 277.660156 305.492188 C 277.21875 305.796875 276.734375 305.945312 276.203125 305.945312 Z M 276.203125 305.945312 " fill-opacity="1" fill-rule="nonzero"/><path fill="#ffffff" d="M 276.203125 331.988281 C 275.554688 331.988281 274.988281 331.773438 274.503906 331.347656 L 18.390625 105.035156 C 18.136719 104.808594 17.933594 104.542969 17.785156 104.238281 C 17.636719 103.933594 17.550781 103.609375 17.53125 103.269531 C 17.507812 102.929688 17.554688 102.601562 17.664062 102.28125 C 17.773438 101.957031 17.941406 101.667969 18.167969 101.414062 C 18.390625 101.160156 18.65625 100.957031 18.964844 100.808594 C 19.269531 100.660156 19.589844 100.574219 19.929688 100.554688 C 20.269531 100.53125 20.601562 100.578125 20.921875 100.6875 C 21.242188 100.800781 21.53125 100.96875 21.785156 101.191406 L 277.898438 327.503906 C 278.300781 327.855469 278.5625 328.292969 278.691406 328.808594 C 278.820312 329.328125 278.789062 329.835938 278.601562 330.332031 C 278.410156 330.832031 278.097656 331.230469 277.660156 331.535156 C 277.21875 331.835938 276.734375 331.988281 276.203125 331.988281 Z M 276.203125 331.988281 " fill-opacity="1" fill-rule="nonzero"/><path fill="#ffffff" d="M 278.59375 360.148438 C 277.945312 360.152344 277.378906 359.9375 276.894531 359.503906 L 274.503906 357.386719 L 16.136719 129.164062 C 15.882812 128.9375 15.679688 128.671875 15.53125 128.367188 C 15.382812 128.0625 15.296875 127.738281 15.277344 127.398438 C 15.257812 127.0625 15.300781 126.730469 15.410156 126.410156 C 15.523438 126.085938 15.6875 125.800781 15.914062 125.546875 C 16.140625 125.289062 16.40625 125.089844 16.710938 124.9375 C 17.015625 124.789062 17.335938 124.703125 17.675781 124.683594 C 18.015625 124.664062 18.34375 124.707031 18.667969 124.816406 C 18.988281 124.925781 19.277344 125.09375 19.53125 125.320312 L 277.898438 353.546875 L 280.292969 355.667969 C 280.695312 356.019531 280.957031 356.457031 281.085938 356.972656 C 281.210938 357.488281 281.179688 357.996094 280.992188 358.496094 C 280.804688 358.992188 280.488281 359.394531 280.050781 359.695312 C 279.613281 360 279.128906 360.148438 278.59375 360.148438 Z M 278.59375 360.148438 " fill-opacity="1" fill-rule="nonzero"/><path fill="#ffffff" d="M 248.589844 359.808594 C 247.941406 359.808594 247.375 359.59375 246.890625 359.164062 L 16.136719 155.203125 C 15.882812 154.976562 15.679688 154.714844 15.53125 154.40625 C 15.382812 154.101562 15.296875 153.78125 15.273438 153.441406 C 15.253906 153.101562 15.296875 152.769531 15.410156 152.449219 C 15.519531 152.128906 15.6875 151.839844 15.914062 151.585938 C 16.136719 151.328125 16.402344 151.128906 16.707031 150.976562 C 17.015625 150.828125 17.335938 150.746094 17.675781 150.722656 C 18.015625 150.703125 18.347656 150.746094 18.667969 150.859375 C 18.988281 150.96875 19.277344 151.136719 19.53125 151.363281 L 250.285156 355.324219 C 250.6875 355.675781 250.949219 356.113281 251.078125 356.628906 C 251.207031 357.144531 251.175781 357.652344 250.988281 358.152344 C 250.796875 358.652344 250.484375 359.050781 250.046875 359.355469 C 249.605469 359.65625 249.121094 359.808594 248.589844 359.808594 Z M 248.589844 359.808594 " fill-opacity="1" fill-rule="nonzero"/><path fill="#ffffff" d="M 219.128906 359.808594 C 218.480469 359.808594 217.917969 359.59375 217.433594 359.164062 L 16.136719 181.246094 C 15.882812 181.019531 15.679688 180.753906 15.527344 180.449219 C 15.378906 180.144531 15.292969 179.820312 15.273438 179.480469 C 15.25 179.140625 15.296875 178.8125 15.40625 178.488281 C 15.515625 178.167969 15.683594 177.878906 15.910156 177.625 C 16.136719 177.371094 16.402344 177.167969 16.707031 177.019531 C 17.011719 176.867188 17.335938 176.785156 17.675781 176.761719 C 18.015625 176.742188 18.34375 176.789062 18.667969 176.898438 C 18.988281 177.011719 19.277344 177.179688 19.53125 177.40625 L 220.828125 355.324219 C 221.226562 355.675781 221.488281 356.113281 221.617188 356.628906 C 221.746094 357.144531 221.714844 357.652344 221.527344 358.152344 C 221.339844 358.652344 221.023438 359.050781 220.585938 359.355469 C 220.148438 359.65625 219.660156 359.808594 219.128906 359.808594 Z M 219.128906 359.808594 " fill-opacity="1" fill-rule="nonzero"/><path fill="#ffffff" d="M 189.667969 359.808594 C 189.023438 359.808594 188.457031 359.59375 187.972656 359.164062 L 16.136719 207.289062 C 15.882812 207.0625 15.679688 206.796875 15.53125 206.492188 C 15.382812 206.1875 15.296875 205.863281 15.277344 205.523438 C 15.253906 205.1875 15.300781 204.855469 15.410156 204.535156 C 15.519531 204.210938 15.6875 203.925781 15.914062 203.667969 C 16.136719 203.414062 16.402344 203.214844 16.710938 203.0625 C 17.015625 202.914062 17.335938 202.828125 17.675781 202.808594 C 18.015625 202.789062 18.34375 202.832031 18.667969 202.941406 C 18.988281 203.054688 19.277344 203.222656 19.53125 203.445312 L 191.367188 355.324219 C 191.765625 355.675781 192.03125 356.113281 192.15625 356.628906 C 192.285156 357.144531 192.253906 357.652344 192.066406 358.152344 C 191.878906 358.652344 191.566406 359.050781 191.125 359.355469 C 190.6875 359.65625 190.203125 359.808594 189.667969 359.808594 Z M 189.667969 359.808594 " fill-opacity="1" fill-rule="nonzero"/><path fill="#ffffff" d="M 160.210938 359.808594 C 159.5625 359.808594 158.996094 359.59375 158.511719 359.164062 L 16.136719 233.398438 C 15.882812 233.171875 15.683594 232.90625 15.535156 232.601562 C 15.382812 232.296875 15.300781 231.976562 15.28125 231.636719 C 15.257812 231.296875 15.304688 230.96875 15.414062 230.644531 C 15.523438 230.324219 15.691406 230.039062 15.917969 229.78125 C 16.140625 229.527344 16.40625 229.328125 16.710938 229.179688 C 17.015625 229.027344 17.339844 228.945312 17.675781 228.921875 C 18.015625 228.902344 18.347656 228.945312 18.667969 229.054688 C 18.988281 229.164062 19.277344 229.332031 19.53125 229.554688 L 161.90625 355.324219 C 162.308594 355.675781 162.570312 356.113281 162.699219 356.628906 C 162.828125 357.144531 162.796875 357.652344 162.605469 358.152344 C 162.417969 358.652344 162.105469 359.050781 161.667969 359.355469 C 161.226562 359.65625 160.742188 359.808594 160.210938 359.808594 Z M 160.210938 359.808594 " fill-opacity="1" fill-rule="nonzero"/><path fill="#ffffff" d="M 130.683594 359.808594 C 130.035156 359.808594 129.46875 359.59375 128.984375 359.164062 L 16.136719 259.441406 C 15.882812 259.214844 15.679688 258.949219 15.53125 258.644531 C 15.382812 258.339844 15.300781 258.015625 15.277344 257.679688 C 15.257812 257.339844 15.304688 257.007812 15.414062 256.6875 C 15.523438 256.367188 15.691406 256.078125 15.917969 255.824219 C 16.140625 255.570312 16.40625 255.371094 16.710938 255.21875 C 17.015625 255.070312 17.339844 254.984375 17.675781 254.964844 C 18.015625 254.945312 18.347656 254.988281 18.667969 255.097656 C 18.988281 255.207031 19.277344 255.375 19.53125 255.597656 L 132.378906 355.324219 C 132.777344 355.675781 133.042969 356.113281 133.171875 356.628906 C 133.300781 357.144531 133.269531 357.652344 133.078125 358.152344 C 132.890625 358.652344 132.578125 359.050781 132.140625 359.355469 C 131.699219 359.65625 131.214844 359.808594 130.683594 359.808594 Z M 130.683594 359.808594 " fill-opacity="1" fill-rule="nonzero"/><path fill="#ffffff" d="M 101.152344 359.808594 C 100.507812 359.808594 99.941406 359.59375 99.457031 359.164062 L 16.136719 285.550781 C 15.882812 285.324219 15.679688 285.058594 15.53125 284.753906 C 15.382812 284.449219 15.296875 284.125 15.277344 283.789062 C 15.253906 283.449219 15.300781 283.117188 15.410156 282.796875 C 15.519531 282.476562 15.6875 282.1875 15.914062 281.933594 C 16.136719 281.675781 16.402344 281.476562 16.710938 281.324219 C 17.015625 281.175781 17.335938 281.09375 17.675781 281.070312 C 18.015625 281.050781 18.34375 281.09375 18.667969 281.207031 C 18.988281 281.316406 19.277344 281.484375 19.53125 281.707031 L 102.851562 355.324219 C 103.25 355.675781 103.515625 356.113281 103.640625 356.628906 C 103.769531 357.144531 103.738281 357.652344 103.550781 358.152344 C 103.363281 358.652344 103.050781 359.050781 102.609375 359.355469 C 102.171875 359.65625 101.6875 359.808594 101.152344 359.808594 Z M 101.152344 359.808594 " fill-opacity="1" fill-rule="nonzero"/><path fill="#ffffff" d="M 71.695312 359.808594 C 71.046875 359.808594 70.480469 359.59375 70 359.164062 L 16.136719 311.59375 C 15.882812 311.367188 15.683594 311.101562 15.535156 310.796875 C 15.382812 310.492188 15.300781 310.167969 15.28125 309.832031 C 15.257812 309.492188 15.304688 309.164062 15.414062 308.839844 C 15.523438 308.519531 15.691406 308.234375 15.917969 307.976562 C 16.140625 307.722656 16.40625 307.523438 16.710938 307.371094 C 17.015625 307.222656 17.339844 307.136719 17.675781 307.117188 C 18.015625 307.097656 18.347656 307.140625 18.667969 307.25 C 18.988281 307.359375 19.277344 307.527344 19.53125 307.75 L 73.394531 355.324219 C 73.792969 355.675781 74.054688 356.113281 74.183594 356.628906 C 74.3125 357.144531 74.28125 357.652344 74.09375 358.152344 C 73.902344 358.652344 73.589844 359.050781 73.152344 359.355469 C 72.714844 359.65625 72.226562 359.808594 71.695312 359.808594 Z M 71.695312 359.808594 " fill-opacity="1" fill-rule="nonzero"/><path fill="#ffffff" d="M 42.164062 359.808594 C 41.519531 359.808594 40.957031 359.59375 40.472656 359.167969 L 16.140625 337.703125 C 15.882812 337.480469 15.679688 337.214844 15.53125 336.910156 C 15.382812 336.605469 15.296875 336.28125 15.273438 335.941406 C 15.253906 335.601562 15.296875 335.273438 15.40625 334.949219 C 15.519531 334.628906 15.683594 334.339844 15.910156 334.085938 C 16.136719 333.832031 16.398438 333.628906 16.707031 333.476562 C 17.011719 333.328125 17.332031 333.242188 17.671875 333.222656 C 18.011719 333.199219 18.34375 333.246094 18.664062 333.355469 C 18.984375 333.464844 19.273438 333.632812 19.53125 333.859375 L 43.863281 355.320312 C 44.261719 355.675781 44.527344 356.109375 44.65625 356.625 C 44.785156 357.144531 44.753906 357.652344 44.566406 358.152344 C 44.375 358.648438 44.0625 359.050781 43.625 359.351562 C 43.183594 359.65625 42.699219 359.808594 42.164062 359.808594 Z M 42.164062 359.808594 " fill-opacity="1" fill-rule="nonzero"/><path fill="#ffffff" d="M 276.203125 362.371094 L 17.835938 362.371094 C 17.496094 362.371094 17.164062 362.335938 16.835938 362.273438 C 16.503906 362.207031 16.183594 362.109375 15.871094 361.980469 C 15.5625 361.851562 15.265625 361.695312 14.984375 361.507812 C 14.707031 361.320312 14.449219 361.105469 14.210938 360.871094 C 13.972656 360.632812 13.757812 360.371094 13.570312 360.09375 C 13.386719 359.8125 13.226562 359.515625 13.097656 359.207031 C 12.96875 358.894531 12.871094 358.574219 12.804688 358.246094 C 12.742188 357.914062 12.707031 357.582031 12.707031 357.246094 L 12.707031 98.875 C 12.707031 98.539062 12.742188 98.203125 12.804688 97.875 C 12.871094 97.542969 12.96875 97.222656 13.097656 96.914062 C 13.226562 96.601562 13.386719 96.308594 13.570312 96.027344 C 13.757812 95.746094 13.972656 95.488281 14.210938 95.25 C 14.449219 95.011719 14.707031 94.800781 14.984375 94.613281 C 15.265625 94.425781 15.5625 94.265625 15.871094 94.140625 C 16.183594 94.011719 16.503906 93.914062 16.835938 93.847656 C 17.164062 93.78125 17.496094 93.75 17.835938 93.75 L 276.203125 93.75 C 276.539062 93.75 276.871094 93.78125 277.203125 93.847656 C 277.535156 93.914062 277.855469 94.011719 278.164062 94.140625 C 278.476562 94.265625 278.769531 94.425781 279.050781 94.613281 C 279.332031 94.800781 279.589844 95.011719 279.828125 95.25 C 280.066406 95.488281 280.277344 95.746094 280.464844 96.027344 C 280.652344 96.308594 280.808594 96.601562 280.9375 96.914062 C 281.066406 97.222656 281.164062 97.542969 281.230469 97.875 C 281.296875 98.203125 281.328125 98.539062 281.328125 98.875 L 281.328125 357.246094 C 281.328125 357.582031 281.296875 357.914062 281.230469 358.246094 C 281.164062 358.574219 281.066406 358.894531 280.9375 359.207031 C 280.808594 359.515625 280.652344 359.8125 280.464844 360.09375 C 280.277344 360.371094 280.066406 360.632812 279.828125 360.871094 C 279.589844 361.105469 279.332031 361.320312 279.050781 361.507812 C 278.769531 361.695312 278.476562 361.851562 278.164062 361.980469 C 277.855469 362.109375 277.535156 362.207031 277.203125 362.273438 C 276.871094 362.335938 276.539062 362.371094 276.203125 362.371094 Z M 22.960938 352.117188 L 271.078125 352.117188 L 271.078125 104 L 22.960938 104 Z M 22.960938 352.117188 " fill-opacity="1" fill-rule="nonzero"/><path fill="#ffffff" d="M 335.722656 374.988281 C 335.042969 374.992188 334.386719 374.859375 333.757812 374.601562 C 333.132812 374.339844 332.578125 373.96875 332.097656 373.488281 L 300.363281 341.753906 C 300.125 341.515625 299.914062 341.257812 299.726562 340.976562 C 299.539062 340.699219 299.378906 340.402344 299.253906 340.089844 C 299.125 339.78125 299.027344 339.460938 298.960938 339.128906 C 298.894531 338.800781 298.863281 338.464844 298.863281 338.128906 C 298.863281 337.792969 298.894531 337.460938 298.960938 337.128906 C 299.027344 336.800781 299.125 336.480469 299.253906 336.167969 C 299.378906 335.855469 299.539062 335.5625 299.726562 335.28125 C 299.914062 335 300.125 334.742188 300.363281 334.503906 C 300.601562 334.265625 300.859375 334.054688 301.140625 333.867188 C 301.421875 333.679688 301.714844 333.523438 302.027344 333.394531 C 302.335938 333.265625 302.65625 333.167969 302.988281 333.101562 C 303.316406 333.035156 303.652344 333.003906 303.988281 333.003906 C 304.324219 333.003906 304.65625 333.035156 304.988281 333.101562 C 305.316406 333.167969 305.640625 333.265625 305.949219 333.394531 C 306.261719 333.523438 306.554688 333.679688 306.835938 333.867188 C 307.117188 334.054688 307.375 334.265625 307.613281 334.503906 L 335.722656 362.613281 L 363.832031 334.503906 C 364.070312 334.269531 364.328125 334.054688 364.609375 333.871094 C 364.886719 333.683594 365.183594 333.527344 365.496094 333.398438 C 365.804688 333.269531 366.125 333.171875 366.457031 333.105469 C 366.785156 333.042969 367.117188 333.007812 367.453125 333.011719 C 367.789062 333.011719 368.125 333.042969 368.453125 333.109375 C 368.78125 333.175781 369.101562 333.273438 369.414062 333.402344 C 369.722656 333.53125 370.019531 333.6875 370.296875 333.875 C 370.578125 334.0625 370.835938 334.273438 371.074219 334.511719 C 371.3125 334.75 371.523438 335.007812 371.710938 335.289062 C 371.898438 335.566406 372.054688 335.863281 372.183594 336.171875 C 372.3125 336.484375 372.410156 336.804688 372.476562 337.132812 C 372.542969 337.460938 372.574219 337.796875 372.574219 338.132812 C 372.578125 338.46875 372.542969 338.800781 372.480469 339.128906 C 372.414062 339.460938 372.316406 339.78125 372.1875 340.089844 C 372.058594 340.402344 371.902344 340.699219 371.714844 340.976562 C 371.53125 341.257812 371.320312 341.515625 371.082031 341.753906 L 339.347656 373.488281 C 338.867188 373.96875 338.3125 374.339844 337.683594 374.601562 C 337.054688 374.859375 336.402344 374.992188 335.722656 374.988281 Z M 335.722656 374.988281 " fill-opacity="1" fill-rule="nonzero"/><path fill="#ffffff" d="M 367.457031 123.082031 C 366.777344 123.082031 366.121094 122.953125 365.492188 122.691406 C 364.867188 122.429688 364.3125 122.0625 363.832031 121.578125 L 335.722656 93.46875 L 307.613281 121.578125 C 307.375 121.816406 307.117188 122.03125 306.835938 122.214844 C 306.554688 122.402344 306.261719 122.5625 305.949219 122.691406 C 305.640625 122.820312 305.316406 122.917969 304.988281 122.980469 C 304.65625 123.046875 304.324219 123.082031 303.988281 123.082031 C 303.652344 123.082031 303.316406 123.046875 302.988281 122.980469 C 302.65625 122.917969 302.335938 122.820312 302.027344 122.691406 C 301.714844 122.5625 301.421875 122.402344 301.140625 122.214844 C 300.859375 122.03125 300.601562 121.816406 300.363281 121.578125 C 300.125 121.339844 299.914062 121.082031 299.726562 120.800781 C 299.539062 120.523438 299.382812 120.226562 299.253906 119.917969 C 299.125 119.605469 299.027344 119.285156 298.960938 118.953125 C 298.894531 118.625 298.863281 118.289062 298.863281 117.953125 C 298.863281 117.617188 298.894531 117.285156 298.960938 116.953125 C 299.027344 116.625 299.125 116.304688 299.253906 115.992188 C 299.382812 115.679688 299.539062 115.386719 299.726562 115.105469 C 299.914062 114.828125 300.125 114.566406 300.363281 114.328125 L 332.097656 82.59375 C 332.335938 82.355469 332.59375 82.144531 332.875 81.957031 C 333.152344 81.769531 333.449219 81.613281 333.761719 81.484375 C 334.070312 81.355469 334.390625 81.257812 334.722656 81.191406 C 335.050781 81.125 335.386719 81.09375 335.722656 81.09375 C 336.058594 81.09375 336.390625 81.125 336.722656 81.191406 C 337.050781 81.257812 337.371094 81.355469 337.683594 81.484375 C 337.996094 81.613281 338.289062 81.769531 338.570312 81.957031 C 338.851562 82.144531 339.109375 82.355469 339.347656 82.59375 L 371.082031 114.328125 C 371.441406 114.6875 371.738281 115.089844 371.976562 115.539062 C 372.214844 115.984375 372.386719 116.457031 372.484375 116.953125 C 372.582031 117.453125 372.609375 117.953125 372.558594 118.457031 C 372.507812 118.960938 372.386719 119.449219 372.191406 119.917969 C 372 120.382812 371.742188 120.816406 371.417969 121.207031 C 371.097656 121.597656 370.726562 121.933594 370.304688 122.21875 C 369.882812 122.5 369.429688 122.714844 368.945312 122.859375 C 368.460938 123.007812 367.964844 123.082031 367.457031 123.082031 Z M 367.457031 123.082031 " fill-opacity="1" fill-rule="nonzero"/><path fill="#ffffff" d="M 335.738281 372.144531 C 335.402344 372.144531 335.066406 372.113281 334.738281 372.046875 C 334.40625 371.980469 334.085938 371.882812 333.777344 371.753906 C 333.464844 371.625 333.167969 371.46875 332.890625 371.28125 C 332.609375 371.09375 332.351562 370.882812 332.113281 370.644531 C 331.875 370.40625 331.660156 370.148438 331.476562 369.867188 C 331.289062 369.585938 331.128906 369.292969 331 368.980469 C 330.871094 368.667969 330.777344 368.347656 330.710938 368.019531 C 330.644531 367.6875 330.613281 367.355469 330.613281 367.019531 L 330.613281 95.664062 C 330.613281 95.324219 330.644531 94.992188 330.710938 94.664062 C 330.777344 94.332031 330.871094 94.011719 331 93.699219 C 331.128906 93.390625 331.289062 93.09375 331.476562 92.816406 C 331.664062 92.535156 331.875 92.277344 332.113281 92.039062 C 332.351562 91.800781 332.609375 91.585938 332.890625 91.398438 C 333.167969 91.214844 333.464844 91.054688 333.777344 90.925781 C 334.085938 90.796875 334.40625 90.699219 334.738281 90.636719 C 335.066406 90.570312 335.402344 90.535156 335.738281 90.535156 C 336.074219 90.535156 336.40625 90.570312 336.738281 90.636719 C 337.066406 90.699219 337.386719 90.796875 337.699219 90.925781 C 338.011719 91.054688 338.304688 91.214844 338.585938 91.398438 C 338.863281 91.585938 339.125 91.800781 339.363281 92.039062 C 339.601562 92.277344 339.8125 92.535156 340 92.816406 C 340.1875 93.09375 340.34375 93.390625 340.472656 93.699219 C 340.601562 94.011719 340.699219 94.332031 340.765625 94.664062 C 340.832031 94.992188 340.863281 95.324219 340.863281 95.664062 L 340.863281 367.019531 C 340.863281 367.355469 340.832031 367.6875 340.765625 368.019531 C 340.699219 368.347656 340.601562 368.667969 340.472656 368.980469 C 340.34375 369.292969 340.1875 369.585938 340 369.867188 C 339.8125 370.148438 339.601562 370.40625 339.363281 370.644531 C 339.125 370.882812 338.867188 371.09375 338.585938 371.28125 C 338.304688 371.46875 338.011719 371.625 337.699219 371.753906 C 337.386719 371.882812 337.066406 371.980469 336.738281 372.046875 C 336.40625 372.113281 336.074219 372.144531 335.738281 372.144531 Z M 335.738281 372.144531 " fill-opacity="1" fill-rule="nonzero"/><path fill="#ffffff" d="M 257.101562 74.199219 C 256.59375 74.199219 256.097656 74.125 255.613281 73.976562 C 255.128906 73.828125 254.675781 73.613281 254.253906 73.332031 C 253.832031 73.050781 253.460938 72.714844 253.136719 72.324219 C 252.816406 71.929688 252.558594 71.5 252.363281 71.03125 C 252.171875 70.566406 252.050781 70.078125 252 69.574219 C 251.949219 69.070312 251.972656 68.566406 252.074219 68.070312 C 252.171875 67.574219 252.339844 67.101562 252.582031 66.65625 C 252.820312 66.207031 253.117188 65.804688 253.476562 65.445312 L 281.585938 37.335938 L 253.476562 9.226562 C 253.238281 8.988281 253.027344 8.730469 252.839844 8.449219 C 252.652344 8.171875 252.496094 7.875 252.367188 7.5625 C 252.238281 7.253906 252.140625 6.933594 252.078125 6.601562 C 252.011719 6.273438 251.980469 5.941406 251.980469 5.605469 C 251.980469 5.265625 252.011719 4.933594 252.078125 4.605469 C 252.144531 4.273438 252.242188 3.953125 252.371094 3.644531 C 252.5 3.332031 252.65625 3.039062 252.84375 2.757812 C 253.03125 2.480469 253.242188 2.21875 253.480469 1.980469 C 253.71875 1.746094 253.976562 1.53125 254.257812 1.34375 C 254.535156 1.15625 254.832031 1 255.140625 0.871094 C 255.453125 0.742188 255.773438 0.644531 256.101562 0.578125 C 256.433594 0.515625 256.765625 0.480469 257.101562 0.480469 C 257.4375 0.480469 257.773438 0.511719 258.101562 0.578125 C 258.433594 0.644531 258.753906 0.742188 259.0625 0.867188 C 259.375 0.996094 259.667969 1.15625 259.949219 1.339844 C 260.230469 1.527344 260.488281 1.738281 260.726562 1.976562 L 292.460938 33.710938 C 292.699219 33.949219 292.910156 34.210938 293.097656 34.488281 C 293.285156 34.769531 293.441406 35.0625 293.570312 35.375 C 293.699219 35.6875 293.796875 36.007812 293.863281 36.335938 C 293.929688 36.667969 293.960938 37 293.960938 37.335938 C 293.960938 37.671875 293.929688 38.007812 293.863281 38.335938 C 293.796875 38.667969 293.699219 38.988281 293.570312 39.296875 C 293.441406 39.609375 293.285156 39.90625 293.097656 40.183594 C 292.910156 40.464844 292.699219 40.722656 292.460938 40.960938 L 260.726562 72.695312 C 260.246094 73.175781 259.691406 73.546875 259.0625 73.808594 C 258.433594 74.070312 257.78125 74.199219 257.101562 74.199219 Z M 257.101562 74.199219 " fill-opacity="1" fill-rule="nonzero"/><path fill="#ffffff" d="M 36.925781 74.199219 C 36.246094 74.199219 35.59375 74.070312 34.964844 73.808594 C 34.335938 73.546875 33.78125 73.175781 33.300781 72.695312 L 1.566406 40.960938 C 1.328125 40.722656 1.117188 40.464844 0.929688 40.183594 C 0.742188 39.90625 0.585938 39.609375 0.457031 39.296875 C 0.328125 38.988281 0.230469 38.667969 0.164062 38.335938 C 0.0976562 38.007812 0.0664062 37.671875 0.0664062 37.335938 C 0.0664062 37 0.0976562 36.667969 0.164062 36.335938 C 0.230469 36.007812 0.328125 35.6875 0.457031 35.375 C 0.585938 35.0625 0.742188 34.769531 0.929688 34.488281 C 1.117188 34.210938 1.328125 33.949219 1.566406 33.710938 L 33.300781 1.976562 C 33.539062 1.738281 33.796875 1.527344 34.078125 1.339844 C 34.359375 1.152344 34.652344 0.992188 34.964844 0.863281 C 35.277344 0.734375 35.597656 0.636719 35.925781 0.574219 C 36.257812 0.507812 36.589844 0.472656 36.925781 0.472656 C 37.261719 0.472656 37.597656 0.507812 37.925781 0.570312 C 38.257812 0.636719 38.578125 0.734375 38.890625 0.863281 C 39.199219 0.992188 39.496094 1.152344 39.777344 1.335938 C 40.054688 1.523438 40.316406 1.738281 40.554688 1.976562 C 40.792969 2.214844 41.003906 2.472656 41.191406 2.753906 C 41.378906 3.03125 41.535156 3.328125 41.664062 3.640625 C 41.792969 3.949219 41.890625 4.269531 41.957031 4.601562 C 42.023438 4.929688 42.054688 5.265625 42.054688 5.601562 C 42.054688 5.9375 42.023438 6.273438 41.957031 6.601562 C 41.890625 6.933594 41.792969 7.253906 41.664062 7.5625 C 41.535156 7.875 41.375 8.171875 41.1875 8.449219 C 41.003906 8.730469 40.789062 8.988281 40.550781 9.226562 L 12.441406 37.335938 L 40.550781 65.445312 C 40.910156 65.804688 41.207031 66.207031 41.449219 66.65625 C 41.6875 67.101562 41.855469 67.574219 41.953125 68.070312 C 42.054688 68.566406 42.078125 69.070312 42.027344 69.574219 C 41.976562 70.078125 41.855469 70.566406 41.664062 71.03125 C 41.46875 71.5 41.210938 71.929688 40.890625 72.324219 C 40.566406 72.714844 40.195312 73.050781 39.773438 73.332031 C 39.351562 73.613281 38.898438 73.828125 38.414062 73.976562 C 37.929688 74.125 37.433594 74.199219 36.925781 74.199219 Z M 36.925781 74.199219 " fill-opacity="1" fill-rule="nonzero"/><path fill="#ffffff" d="M 285.976562 42.484375 L 14.621094 42.484375 C 14.285156 42.484375 13.949219 42.453125 13.621094 42.386719 C 13.289062 42.320312 12.96875 42.222656 12.660156 42.09375 C 12.347656 41.964844 12.054688 41.808594 11.773438 41.621094 C 11.492188 41.433594 11.234375 41.222656 10.996094 40.984375 C 10.757812 40.746094 10.546875 40.488281 10.359375 40.207031 C 10.171875 39.925781 10.011719 39.632812 9.886719 39.320312 C 9.757812 39.007812 9.660156 38.6875 9.59375 38.359375 C 9.527344 38.027344 9.496094 37.695312 9.496094 37.359375 C 9.496094 37.023438 9.527344 36.6875 9.59375 36.359375 C 9.660156 36.027344 9.757812 35.707031 9.886719 35.398438 C 10.011719 35.085938 10.171875 34.789062 10.359375 34.511719 C 10.546875 34.230469 10.757812 33.972656 10.996094 33.734375 C 11.234375 33.496094 11.492188 33.28125 11.773438 33.097656 C 12.054688 32.910156 12.347656 32.75 12.660156 32.621094 C 12.96875 32.492188 13.289062 32.394531 13.621094 32.332031 C 13.949219 32.265625 14.285156 32.230469 14.621094 32.230469 L 285.976562 32.230469 C 286.3125 32.230469 286.648438 32.265625 286.976562 32.332031 C 287.308594 32.394531 287.628906 32.492188 287.9375 32.621094 C 288.25 32.75 288.546875 32.910156 288.824219 33.097656 C 289.105469 33.28125 289.363281 33.496094 289.601562 33.734375 C 289.839844 33.972656 290.054688 34.230469 290.238281 34.511719 C 290.425781 34.789062 290.585938 35.085938 290.714844 35.398438 C 290.84375 35.707031 290.941406 36.027344 291.003906 36.359375 C 291.070312 36.6875 291.105469 37.023438 291.105469 37.359375 C 291.105469 37.695312 291.070312 38.027344 291.003906 38.359375 C 290.941406 38.6875 290.84375 39.007812 290.714844 39.320312 C 290.585938 39.632812 290.425781 39.925781 290.238281 40.207031 C 290.054688 40.488281 289.839844 40.746094 289.601562 40.984375 C 289.363281 41.222656 289.105469 41.433594 288.824219 41.621094 C 288.546875 41.808594 288.25 41.964844 287.9375 42.09375 C 287.628906 42.222656 287.308594 42.320312 286.976562 42.386719 C 286.648438 42.453125 286.3125 42.484375 285.976562 42.484375 Z M 285.976562 42.484375 " fill-opacity="1" fill-rule="nonzero"/><path fill="#ffffff" d="M 276.203125 123.449219 C 275.554688 123.449219 274.988281 123.234375 274.503906 122.804688 L 249.625 100.792969 C 249.371094 100.570312 249.167969 100.304688 249.015625 100 C 248.867188 99.691406 248.78125 99.371094 248.761719 99.03125 C 248.738281 98.691406 248.785156 98.359375 248.894531 98.039062 C 249.003906 97.714844 249.171875 97.425781 249.398438 97.171875 C 249.625 96.917969 249.890625 96.714844 250.195312 96.566406 C 250.5 96.417969 250.824219 96.332031 251.164062 96.3125 C 251.503906 96.292969 251.835938 96.335938 252.15625 96.449219 C 252.480469 96.558594 252.765625 96.730469 253.019531 96.957031 L 277.902344 118.964844 C 278.300781 119.316406 278.5625 119.753906 278.691406 120.269531 C 278.820312 120.789062 278.789062 121.292969 278.601562 121.792969 C 278.410156 122.292969 278.097656 122.691406 277.660156 122.992188 C 277.21875 123.296875 276.734375 123.449219 276.203125 123.449219 Z M 276.203125 123.449219 " fill-opacity="1" fill-rule="nonzero"/><path fill="#ffffff" d="M 276.203125 149.558594 C 275.554688 149.558594 274.988281 149.34375 274.503906 148.914062 L 220.097656 100.792969 C 219.84375 100.570312 219.640625 100.304688 219.488281 100 C 219.339844 99.691406 219.253906 99.371094 219.234375 99.03125 C 219.210938 98.691406 219.257812 98.359375 219.367188 98.039062 C 219.476562 97.714844 219.644531 97.425781 219.871094 97.171875 C 220.097656 96.917969 220.363281 96.714844 220.667969 96.566406 C 220.972656 96.417969 221.296875 96.332031 221.636719 96.3125 C 221.976562 96.292969 222.308594 96.335938 222.628906 96.449219 C 222.953125 96.558594 223.238281 96.730469 223.492188 96.957031 L 277.902344 145.074219 C 278.300781 145.425781 278.5625 145.863281 278.691406 146.378906 C 278.820312 146.898438 278.789062 147.40625 278.601562 147.902344 C 278.410156 148.402344 278.097656 148.800781 277.660156 149.105469 C 277.21875 149.40625 276.734375 149.558594 276.203125 149.558594 Z M 276.203125 149.558594 " fill-opacity="1" fill-rule="nonzero"/><path fill="#ffffff" d="M 276.203125 175.601562 C 275.554688 175.601562 274.988281 175.386719 274.503906 174.957031 L 190.570312 100.796875 C 190.316406 100.570312 190.113281 100.304688 189.964844 100 C 189.816406 99.695312 189.734375 99.371094 189.714844 99.035156 C 189.691406 98.695312 189.738281 98.367188 189.847656 98.042969 C 189.957031 97.722656 190.125 97.4375 190.351562 97.179688 C 190.574219 96.925781 190.839844 96.726562 191.144531 96.578125 C 191.449219 96.425781 191.773438 96.34375 192.109375 96.320312 C 192.449219 96.300781 192.777344 96.34375 193.101562 96.453125 C 193.421875 96.5625 193.710938 96.730469 193.964844 96.953125 L 277.898438 171.117188 C 278.300781 171.46875 278.5625 171.902344 278.691406 172.421875 C 278.820312 172.9375 278.789062 173.445312 278.601562 173.945312 C 278.410156 174.441406 278.097656 174.84375 277.660156 175.144531 C 277.21875 175.449219 276.734375 175.601562 276.203125 175.601562 Z M 276.203125 175.601562 " fill-opacity="1" fill-rule="nonzero"/><path fill="#ffffff" d="M 276.203125 201.710938 C 275.554688 201.710938 274.988281 201.496094 274.503906 201.066406 L 161.109375 100.796875 C 160.855469 100.570312 160.652344 100.304688 160.503906 100 C 160.355469 99.695312 160.269531 99.371094 160.25 99.03125 C 160.226562 98.691406 160.273438 98.363281 160.382812 98.039062 C 160.492188 97.71875 160.660156 97.429688 160.886719 97.175781 C 161.113281 96.921875 161.378906 96.71875 161.683594 96.570312 C 161.988281 96.421875 162.3125 96.335938 162.652344 96.316406 C 162.988281 96.296875 163.320312 96.339844 163.640625 96.449219 C 163.964844 96.5625 164.25 96.730469 164.503906 96.953125 L 277.902344 197.226562 C 278.300781 197.578125 278.5625 198.015625 278.691406 198.53125 C 278.820312 199.050781 278.789062 199.558594 278.601562 200.054688 C 278.410156 200.554688 278.097656 200.953125 277.660156 201.257812 C 277.21875 201.558594 276.734375 201.710938 276.203125 201.710938 Z M 276.203125 201.710938 " fill-opacity="1" fill-rule="nonzero"/><path fill="#ffffff" d="M 276.203125 227.753906 C 275.554688 227.753906 274.988281 227.539062 274.503906 227.109375 L 131.582031 100.796875 C 131.328125 100.570312 131.125 100.304688 130.972656 100 C 130.824219 99.695312 130.738281 99.371094 130.71875 99.03125 C 130.695312 98.691406 130.742188 98.363281 130.851562 98.039062 C 130.960938 97.71875 131.128906 97.429688 131.355469 97.175781 C 131.582031 96.917969 131.847656 96.714844 132.152344 96.566406 C 132.457031 96.417969 132.78125 96.332031 133.121094 96.3125 C 133.460938 96.292969 133.789062 96.335938 134.113281 96.449219 C 134.433594 96.558594 134.722656 96.726562 134.976562 96.953125 L 277.898438 223.269531 C 278.300781 223.621094 278.5625 224.054688 278.691406 224.574219 C 278.820312 225.089844 278.789062 225.597656 278.601562 226.097656 C 278.410156 226.59375 278.097656 226.996094 277.660156 227.296875 C 277.21875 227.601562 276.734375 227.753906 276.203125 227.753906 Z M 276.203125 227.753906 " fill-opacity="1" fill-rule="nonzero"/><path fill="#ffffff" d="M 276.203125 253.792969 C 275.554688 253.792969 274.988281 253.582031 274.503906 253.152344 L 102.054688 100.796875 C 101.800781 100.570312 101.597656 100.304688 101.449219 100 C 101.300781 99.695312 101.21875 99.371094 101.199219 99.035156 C 101.175781 98.695312 101.222656 98.367188 101.332031 98.042969 C 101.441406 97.722656 101.609375 97.4375 101.835938 97.179688 C 102.058594 96.925781 102.324219 96.726562 102.628906 96.578125 C 102.933594 96.425781 103.257812 96.34375 103.59375 96.320312 C 103.933594 96.300781 104.261719 96.34375 104.585938 96.453125 C 104.90625 96.5625 105.195312 96.730469 105.449219 96.953125 L 277.898438 249.308594 C 278.300781 249.664062 278.5625 250.097656 278.691406 250.617188 C 278.820312 251.132812 278.789062 251.640625 278.601562 252.140625 C 278.410156 252.636719 278.097656 253.039062 277.660156 253.339844 C 277.21875 253.644531 276.734375 253.792969 276.203125 253.792969 Z M 276.203125 253.792969 " fill-opacity="1" fill-rule="nonzero"/><path fill="#ffffff" d="M 276.203125 279.90625 C 275.554688 279.90625 274.988281 279.691406 274.503906 279.261719 L 72.59375 100.796875 C 72.339844 100.570312 72.136719 100.304688 71.988281 100 C 71.839844 99.695312 71.753906 99.371094 71.734375 99.03125 C 71.710938 98.691406 71.757812 98.363281 71.867188 98.042969 C 71.976562 97.71875 72.144531 97.429688 72.371094 97.175781 C 72.597656 96.921875 72.863281 96.71875 73.167969 96.570312 C 73.472656 96.421875 73.796875 96.335938 74.132812 96.316406 C 74.472656 96.296875 74.804688 96.339844 75.125 96.449219 C 75.449219 96.5625 75.734375 96.730469 75.988281 96.953125 L 277.898438 275.421875 C 278.300781 275.773438 278.5625 276.207031 278.691406 276.726562 C 278.820312 277.242188 278.789062 277.75 278.601562 278.25 C 278.410156 278.746094 278.097656 279.148438 277.660156 279.449219 C 277.21875 279.753906 276.734375 279.90625 276.203125 279.90625 Z M 276.203125 279.90625 " fill-opacity="1" fill-rule="nonzero"/><path fill="#ffffff" d="M 276.203125 305.945312 C 275.554688 305.945312 274.988281 305.734375 274.503906 305.304688 L 43.136719 100.796875 C 42.878906 100.570312 42.679688 100.304688 42.53125 100 C 42.378906 99.695312 42.292969 99.371094 42.273438 99.03125 C 42.253906 98.691406 42.296875 98.363281 42.40625 98.042969 C 42.519531 97.71875 42.6875 97.429688 42.910156 97.175781 C 43.136719 96.921875 43.402344 96.71875 43.707031 96.570312 C 44.011719 96.421875 44.335938 96.335938 44.675781 96.316406 C 45.015625 96.296875 45.34375 96.339844 45.667969 96.449219 C 45.988281 96.5625 46.277344 96.730469 46.53125 96.953125 L 277.898438 301.460938 C 278.300781 301.816406 278.5625 302.25 278.691406 302.765625 C 278.820312 303.285156 278.789062 303.792969 278.601562 304.289062 C 278.410156 304.789062 278.097656 305.191406 277.660156 305.492188 C 277.21875 305.796875 276.734375 305.945312 276.203125 305.945312 Z M 276.203125 305.945312 " fill-opacity="1" fill-rule="nonzero"/><path fill="#ffffff" d="M 276.203125 331.988281 C 275.554688 331.988281 274.988281 331.773438 274.503906 331.347656 L 18.390625 105.035156 C 18.136719 104.808594 17.933594 104.542969 17.785156 104.238281 C 17.636719 103.933594 17.550781 103.609375 17.53125 103.269531 C 17.507812 102.929688 17.554688 102.601562 17.664062 102.28125 C 17.773438 101.957031 17.941406 101.667969 18.167969 101.414062 C 18.390625 101.160156 18.65625 100.957031 18.964844 100.808594 C 19.269531 100.660156 19.589844 100.574219 19.929688 100.554688 C 20.269531 100.53125 20.601562 100.578125 20.921875 100.6875 C 21.242188 100.800781 21.53125 100.96875 21.785156 101.191406 L 277.898438 327.503906 C 278.300781 327.855469 278.5625 328.292969 278.691406 328.808594 C 278.820312 329.328125 278.789062 329.835938 278.601562 330.332031 C 278.410156 330.832031 278.097656 331.230469 277.660156 331.535156 C 277.21875 331.835938 276.734375 331.988281 276.203125 331.988281 Z M 276.203125 331.988281 " fill-opacity="1" fill-rule="nonzero"/><path fill="#ffffff" d="M 278.59375 360.148438 C 277.945312 360.152344 277.378906 359.9375 276.894531 359.503906 L 274.503906 357.386719 L 16.136719 129.164062 C 15.882812 128.9375 15.679688 128.671875 15.53125 128.367188 C 15.382812 128.0625 15.296875 127.738281 15.277344 127.398438 C 15.257812 127.0625 15.300781 126.730469 15.410156 126.410156 C 15.523438 126.085938 15.6875 125.800781 15.914062 125.546875 C 16.140625 125.289062 16.40625 125.089844 16.710938 124.9375 C 17.015625 124.789062 17.335938 124.703125 17.675781 124.683594 C 18.015625 124.664062 18.34375 124.707031 18.667969 124.816406 C 18.988281 124.925781 19.277344 125.09375 19.53125 125.320312 L 277.898438 353.546875 L 280.292969 355.667969 C 280.695312 356.019531 280.957031 356.457031 281.085938 356.972656 C 281.210938 357.488281 281.179688 357.996094 280.992188 358.496094 C 280.804688 358.992188 280.488281 359.394531 280.050781 359.695312 C 279.613281 360 279.128906 360.148438 278.59375 360.148438 Z M 278.59375 360.148438 " fill-opacity="1" fill-rule="nonzero"/><path fill="#ffffff" d="M 248.589844 359.808594 C 247.941406 359.808594 247.375 359.59375 246.890625 359.164062 L 16.136719 155.203125 C 15.882812 154.976562 15.679688 154.714844 15.53125 154.40625 C 15.382812 154.101562 15.296875 153.78125 15.273438 153.441406 C 15.253906 153.101562 15.296875 152.769531 15.410156 152.449219 C 15.519531 152.128906 15.6875 151.839844 15.914062 151.585938 C 16.136719 151.328125 16.402344 151.128906 16.707031 150.976562 C 17.015625 150.828125 17.335938 150.746094 17.675781 150.722656 C 18.015625 150.703125 18.347656 150.746094 18.667969 150.859375 C 18.988281 150.96875 19.277344 151.136719 19.53125 151.363281 L 250.285156 355.324219 C 250.6875 355.675781 250.949219 356.113281 251.078125 356.628906 C 251.207031 357.144531 251.175781 357.652344 250.988281 358.152344 C 250.796875 358.652344 250.484375 359.050781 250.046875 359.355469 C 249.605469 359.65625 249.121094 359.808594 248.589844 359.808594 Z M 248.589844 359.808594 " fill-opacity="1" fill-rule="nonzero"/><path fill="#ffffff" d="M 219.128906 359.808594 C 218.480469 359.808594 217.917969 359.59375 217.433594 359.164062 L 16.136719 181.246094 C 15.882812 181.019531 15.679688 180.753906 15.527344 180.449219 C 15.378906 180.144531 15.292969 179.820312 15.273438 179.480469 C 15.25 179.140625 15.296875 178.8125 15.40625 178.488281 C 15.515625 178.167969 15.683594 177.878906 15.910156 177.625 C 16.136719 177.371094 16.402344 177.167969 16.707031 177.019531 C 17.011719 176.867188 17.335938 176.785156 17.675781 176.761719 C 18.015625 176.742188 18.34375 176.789062 18.667969 176.898438 C 18.988281 177.011719 19.277344 177.179688 19.53125 177.40625 L 220.828125 355.324219 C 221.226562 355.675781 221.488281 356.113281 221.617188 356.628906 C 221.746094 357.144531 221.714844 357.652344 221.527344 358.152344 C 221.339844 358.652344 221.023438 359.050781 220.585938 359.355469 C 220.148438 359.65625 219.660156 359.808594 219.128906 359.808594 Z M 219.128906 359.808594 " fill-opacity="1" fill-rule="nonzero"/><path fill="#ffffff" d="M 189.667969 359.808594 C 189.023438 359.808594 188.457031 359.59375 187.972656 359.164062 L 16.136719 207.289062 C 15.882812 207.0625 15.679688 206.796875 15.53125 206.492188 C 15.382812 206.1875 15.296875 205.863281 15.277344 205.523438 C 15.253906 205.1875 15.300781 204.855469 15.410156 204.535156 C 15.519531 204.210938 15.6875 203.925781 15.914062 203.667969 C 16.136719 203.414062 16.402344 203.214844 16.710938 203.0625 C 17.015625 202.914062 17.335938 202.828125 17.675781 202.808594 C 18.015625 202.789062 18.34375 202.832031 18.667969 202.941406 C 18.988281 203.054688 19.277344 203.222656 19.53125 203.445312 L 191.367188 355.324219 C 191.765625 355.675781 192.03125 356.113281 192.15625 356.628906 C 192.285156 357.144531 192.253906 357.652344 192.066406 358.152344 C 191.878906 358.652344 191.566406 359.050781 191.125 359.355469 C 190.6875 359.65625 190.203125 359.808594 189.667969 359.808594 Z M 189.667969 359.808594 " fill-opacity="1" fill-rule="nonzero"/><path fill="#ffffff" d="M 160.210938 359.808594 C 159.5625 359.808594 158.996094 359.59375 158.511719 359.164062 L 16.136719 233.398438 C 15.882812 233.171875 15.683594 232.90625 15.535156 232.601562 C 15.382812 232.296875 15.300781 231.976562 15.28125 231.636719 C 15.257812 231.296875 15.304688 230.96875 15.414062 230.644531 C 15.523438 230.324219 15.691406 230.039062 15.917969 229.78125 C 16.140625 229.527344 16.40625 229.328125 16.710938 229.179688 C 17.015625 229.027344 17.339844 228.945312 17.675781 228.921875 C 18.015625 228.902344 18.347656 228.945312 18.667969 229.054688 C 18.988281 229.164062 19.277344 229.332031 19.53125 229.554688 L 161.90625 355.324219 C 162.308594 355.675781 162.570312 356.113281 162.699219 356.628906 C 162.828125 357.144531 162.796875 357.652344 162.605469 358.152344 C 162.417969 358.652344 162.105469 359.050781 161.667969 359.355469 C 161.226562 359.65625 160.742188 359.808594 160.210938 359.808594 Z M 160.210938 359.808594 " fill-opacity="1" fill-rule="nonzero"/><path fill="#ffffff" d="M 130.683594 359.808594 C 130.035156 359.808594 129.46875 359.59375 128.984375 359.164062 L 16.136719 259.441406 C 15.882812 259.214844 15.679688 258.949219 15.53125 258.644531 C 15.382812 258.339844 15.300781 258.015625 15.277344 257.679688 C 15.257812 257.339844 15.304688 257.007812 15.414062 256.6875 C 15.523438 256.367188 15.691406 256.078125 15.917969 255.824219 C 16.140625 255.570312 16.40625 255.371094 16.710938 255.21875 C 17.015625 255.070312 17.339844 254.984375 17.675781 254.964844 C 18.015625 254.945312 18.347656 254.988281 18.667969 255.097656 C 18.988281 255.207031 19.277344 255.375 19.53125 255.597656 L 132.378906 355.324219 C 132.777344 355.675781 133.042969 356.113281 133.171875 356.628906 C 133.300781 357.144531 133.269531 357.652344 133.078125 358.152344 C 132.890625 358.652344 132.578125 359.050781 132.140625 359.355469 C 131.699219 359.65625 131.214844 359.808594 130.683594 359.808594 Z M 130.683594 359.808594 " fill-opacity="1" fill-rule="nonzero"/><path fill="#ffffff" d="M 101.152344 359.808594 C 100.507812 359.808594 99.941406 359.59375 99.457031 359.164062 L 16.136719 285.550781 C 15.882812 285.324219 15.679688 285.058594 15.53125 284.753906 C 15.382812 284.449219 15.296875 284.125 15.277344 283.789062 C 15.253906 283.449219 15.300781 283.117188 15.410156 282.796875 C 15.519531 282.476562 15.6875 282.1875 15.914062 281.933594 C 16.136719 281.675781 16.402344 281.476562 16.710938 281.324219 C 17.015625 281.175781 17.335938 281.09375 17.675781 281.070312 C 18.015625 281.050781 18.34375 281.09375 18.667969 281.207031 C 18.988281 281.316406 19.277344 281.484375 19.53125 281.707031 L 102.851562 355.324219 C 103.25 355.675781 103.515625 356.113281 103.640625 356.628906 C 103.769531 357.144531 103.738281 357.652344 103.550781 358.152344 C 103.363281 358.652344 103.050781 359.050781 102.609375 359.355469 C 102.171875 359.65625 101.6875 359.808594 101.152344 359.808594 Z M 101.152344 359.808594 " fill-opacity="1" fill-rule="nonzero"/><path fill="#ffffff" d="M 71.695312 359.808594 C 71.046875 359.808594 70.480469 359.59375 70 359.164062 L 16.136719 311.59375 C 15.882812 311.367188 15.683594 311.101562 15.535156 310.796875 C 15.382812 310.492188 15.300781 310.167969 15.28125 309.832031 C 15.257812 309.492188 15.304688 309.164062 15.414062 308.839844 C 15.523438 308.519531 15.691406 308.234375 15.917969 307.976562 C 16.140625 307.722656 16.40625 307.523438 16.710938 307.371094 C 17.015625 307.222656 17.339844 307.136719 17.675781 307.117188 C 18.015625 307.097656 18.347656 307.140625 18.667969 307.25 C 18.988281 307.359375 19.277344 307.527344 19.53125 307.75 L 73.394531 355.324219 C 73.792969 355.675781 74.054688 356.113281 74.183594 356.628906 C 74.3125 357.144531 74.28125 357.652344 74.09375 358.152344 C 73.902344 358.652344 73.589844 359.050781 73.152344 359.355469 C 72.714844 359.65625 72.226562 359.808594 71.695312 359.808594 Z M 71.695312 359.808594 " fill-opacity="1" fill-rule="nonzero"/><path fill="#ffffff" d="M 42.164062 359.808594 C 41.519531 359.808594 40.957031 359.59375 40.472656 359.167969 L 16.140625 337.703125 C 15.882812 337.480469 15.679688 337.214844 15.53125 336.910156 C 15.382812 336.605469 15.296875 336.28125 15.273438 335.941406 C 15.253906 335.601562 15.296875 335.273438 15.40625 334.949219 C 15.519531 334.628906 15.683594 334.339844 15.910156 334.085938 C 16.136719 333.832031 16.398438 333.628906 16.707031 333.476562 C 17.011719 333.328125 17.332031 333.242188 17.671875 333.222656 C 18.011719 333.199219 18.34375 333.246094 18.664062 333.355469 C 18.984375 333.464844 19.273438 333.632812 19.53125 333.859375 L 43.863281 355.320312 C 44.261719 355.675781 44.527344 356.109375 44.65625 356.625 C 44.785156 357.144531 44.753906 357.652344 44.566406 358.152344 C 44.375 358.648438 44.0625 359.050781 43.625 359.351562 C 43.183594 359.65625 42.699219 359.808594 42.164062 359.808594 Z M 42.164062 359.808594 " fill-opacity="1" fill-rule="nonzero"/></svg>