<svg xmlns="http://www.w3.org/2000/svg" xmlns:xlink="http://www.w3.org/1999/xlink" width="500" zoomAndPan="magnify" viewBox="0 0 375 374.999991" height="500" preserveAspectRatio="xMidYMid meet" version="1.0"><defs><clipPath id="f4401742f8"><path d="M 1.875 0 L 44 0 L 44 75 L 1.875 75 Z M 1.875 0 " clip-rule="nonzero"/></clipPath></defs><path fill="#000000" d="M 276.480469 362.371094 L 17.851562 362.371094 C 17.515625 362.371094 17.179688 362.335938 16.851562 362.273438 C 16.519531 362.207031 16.199219 362.109375 15.886719 361.980469 C 15.578125 361.851562 15.28125 361.695312 15 361.507812 C 14.722656 361.320312 14.460938 361.105469 14.222656 360.871094 C 13.984375 360.632812 13.773438 360.371094 13.585938 360.09375 C 13.398438 359.8125 13.242188 359.515625 13.109375 359.207031 C 12.980469 358.894531 12.886719 358.574219 12.820312 358.246094 C 12.753906 357.914062 12.722656 357.582031 12.722656 357.246094 L 12.722656 98.875 C 12.722656 98.539062 12.753906 98.203125 12.820312 97.875 C 12.886719 97.542969 12.984375 97.222656 13.113281 96.914062 C 13.242188 96.601562 13.398438 96.308594 13.585938 96.027344 C 13.773438 95.746094 13.984375 95.488281 14.222656 95.25 C 14.460938 95.011719 14.722656 94.800781 15 94.613281 C 15.28125 94.425781 15.578125 94.265625 15.886719 94.140625 C 16.199219 94.011719 16.519531 93.914062 16.851562 93.847656 C 17.179688 93.78125 17.515625 93.75 17.851562 93.75 L 276.480469 93.75 C 276.816406 93.75 277.152344 93.78125 277.480469 93.847656 C 277.8125 93.914062 278.132812 94.011719 278.445312 94.140625 C 278.753906 94.265625 279.050781 94.425781 279.332031 94.613281 C 279.613281 94.800781 279.871094 95.011719 280.109375 95.25 C 280.347656 95.488281 280.558594 95.746094 280.746094 96.027344 C 280.933594 96.308594 281.09375 96.601562 281.222656 96.914062 C 281.351562 97.222656 281.449219 97.542969 281.511719 97.875 C 281.578125 98.203125 281.613281 98.539062 281.613281 98.875 L 281.613281 357.246094 C 281.613281 357.582031 281.578125 357.914062 281.511719 358.246094 C 281.449219 358.574219 281.351562 358.894531 281.222656 359.207031 C 281.09375 359.515625 280.933594 359.8125 280.746094 360.09375 C 280.558594 360.371094 280.347656 360.632812 280.109375 360.871094 C 279.871094 361.105469 279.613281 361.320312 279.332031 361.507812 C 279.050781 361.695312 278.753906 361.851562 278.445312 361.980469 C 278.132812 362.109375 277.8125 362.207031 277.480469 362.273438 C 277.152344 362.335938 276.816406 362.371094 276.480469 362.371094 Z M 22.984375 352.117188 L 271.347656 352.117188 L 271.347656 104 L 22.984375 104 Z M 22.984375 352.117188 " fill-opacity="1" fill-rule="nonzero"/><path fill="#000000" d="M 336.058594 374.988281 C 335.378906 374.992188 334.722656 374.859375 334.09375 374.601562 C 333.464844 374.339844 332.910156 373.96875 332.429688 373.488281 L 300.664062 341.753906 C 300.425781 341.515625 300.214844 341.257812 300.027344 340.976562 C 299.839844 340.699219 299.683594 340.402344 299.550781 340.089844 C 299.421875 339.78125 299.328125 339.460938 299.261719 339.128906 C 299.195312 338.800781 299.164062 338.464844 299.164062 338.128906 C 299.164062 337.792969 299.195312 337.460938 299.261719 337.128906 C 299.328125 336.800781 299.421875 336.480469 299.550781 336.167969 C 299.683594 335.855469 299.839844 335.5625 300.027344 335.28125 C 300.214844 335 300.425781 334.742188 300.664062 334.503906 C 300.902344 334.265625 301.164062 334.054688 301.441406 333.867188 C 301.722656 333.679688 302.019531 333.523438 302.328125 333.394531 C 302.640625 333.265625 302.960938 333.167969 303.292969 333.101562 C 303.621094 333.035156 303.957031 333.003906 304.292969 333.003906 C 304.628906 333.003906 304.964844 333.035156 305.292969 333.101562 C 305.625 333.167969 305.945312 333.265625 306.257812 333.394531 C 306.570312 333.523438 306.863281 333.679688 307.144531 333.867188 C 307.425781 334.054688 307.683594 334.265625 307.921875 334.503906 L 336.058594 362.613281 L 364.195312 334.503906 C 364.433594 334.269531 364.695312 334.054688 364.976562 333.871094 C 365.253906 333.683594 365.550781 333.527344 365.863281 333.398438 C 366.171875 333.269531 366.492188 333.171875 366.824219 333.105469 C 367.152344 333.042969 367.488281 333.007812 367.824219 333.011719 C 368.160156 333.011719 368.492188 333.042969 368.824219 333.109375 C 369.152344 333.175781 369.472656 333.273438 369.785156 333.402344 C 370.097656 333.53125 370.390625 333.6875 370.671875 333.875 C 370.949219 334.0625 371.210938 334.273438 371.449219 334.511719 C 371.6875 334.75 371.898438 335.007812 372.085938 335.289062 C 372.273438 335.566406 372.429688 335.863281 372.558594 336.171875 C 372.6875 336.484375 372.785156 336.804688 372.851562 337.132812 C 372.917969 337.460938 372.949219 337.796875 372.949219 338.132812 C 372.949219 338.46875 372.917969 338.800781 372.851562 339.128906 C 372.789062 339.460938 372.691406 339.78125 372.5625 340.089844 C 372.433594 340.402344 372.277344 340.699219 372.089844 340.976562 C 371.902344 341.257812 371.691406 341.515625 371.453125 341.753906 L 339.6875 373.488281 C 339.207031 373.96875 338.652344 374.339844 338.023438 374.601562 C 337.394531 374.859375 336.738281 374.992188 336.058594 374.988281 Z M 336.058594 374.988281 " fill-opacity="1" fill-rule="nonzero"/><path fill="#000000" d="M 367.824219 123.082031 C 367.144531 123.082031 366.488281 122.953125 365.859375 122.691406 C 365.234375 122.429688 364.675781 122.0625 364.195312 121.578125 L 336.058594 93.46875 L 307.921875 121.578125 C 307.683594 121.816406 307.425781 122.03125 307.144531 122.214844 C 306.863281 122.402344 306.570312 122.5625 306.257812 122.691406 C 305.945312 122.820312 305.625 122.917969 305.292969 122.980469 C 304.964844 123.046875 304.628906 123.082031 304.292969 123.082031 C 303.957031 123.082031 303.621094 123.046875 303.292969 122.980469 C 302.960938 122.917969 302.640625 122.820312 302.328125 122.691406 C 302.019531 122.5625 301.722656 122.402344 301.441406 122.214844 C 301.164062 122.03125 300.902344 121.816406 300.664062 121.578125 C 300.425781 121.339844 300.214844 121.082031 300.027344 120.800781 C 299.839844 120.523438 299.683594 120.226562 299.554688 119.917969 C 299.425781 119.605469 299.328125 119.285156 299.261719 118.953125 C 299.195312 118.625 299.164062 118.289062 299.164062 117.953125 C 299.164062 117.617188 299.195312 117.285156 299.261719 116.953125 C 299.328125 116.625 299.425781 116.304688 299.554688 115.992188 C 299.683594 115.679688 299.839844 115.386719 300.027344 115.105469 C 300.214844 114.828125 300.425781 114.566406 300.664062 114.328125 L 332.429688 82.59375 C 332.667969 82.355469 332.929688 82.144531 333.207031 81.957031 C 333.488281 81.769531 333.785156 81.613281 334.09375 81.484375 C 334.40625 81.355469 334.726562 81.257812 335.058594 81.191406 C 335.386719 81.125 335.722656 81.09375 336.058594 81.09375 C 336.394531 81.09375 336.730469 81.125 337.058594 81.191406 C 337.390625 81.257812 337.710938 81.355469 338.023438 81.484375 C 338.335938 81.613281 338.628906 81.769531 338.910156 81.957031 C 339.191406 82.144531 339.449219 82.355469 339.6875 82.59375 L 371.453125 114.328125 C 371.8125 114.6875 372.113281 115.089844 372.351562 115.539062 C 372.589844 115.984375 372.757812 116.457031 372.859375 116.953125 C 372.957031 117.453125 372.980469 117.953125 372.933594 118.457031 C 372.882812 118.960938 372.761719 119.449219 372.566406 119.917969 C 372.371094 120.382812 372.113281 120.816406 371.792969 121.207031 C 371.46875 121.597656 371.097656 121.933594 370.675781 122.21875 C 370.253906 122.5 369.800781 122.714844 369.316406 122.859375 C 368.828125 123.007812 368.332031 123.082031 367.824219 123.082031 Z M 367.824219 123.082031 " fill-opacity="1" fill-rule="nonzero"/><path fill="#000000" d="M 336.074219 372.144531 C 335.738281 372.144531 335.402344 372.113281 335.074219 372.046875 C 334.742188 371.980469 334.421875 371.882812 334.109375 371.753906 C 333.800781 371.625 333.503906 371.46875 333.222656 371.28125 C 332.945312 371.09375 332.683594 370.882812 332.445312 370.644531 C 332.207031 370.40625 331.996094 370.148438 331.808594 369.867188 C 331.621094 369.585938 331.464844 369.292969 331.335938 368.980469 C 331.207031 368.667969 331.109375 368.347656 331.042969 368.019531 C 330.976562 367.6875 330.945312 367.355469 330.945312 367.019531 L 330.945312 95.664062 C 330.945312 95.324219 330.976562 94.992188 331.042969 94.664062 C 331.109375 94.332031 331.207031 94.011719 331.335938 93.699219 C 331.464844 93.390625 331.621094 93.09375 331.808594 92.816406 C 331.996094 92.535156 332.207031 92.277344 332.445312 92.039062 C 332.683594 91.800781 332.945312 91.585938 333.222656 91.398438 C 333.503906 91.214844 333.800781 91.054688 334.109375 90.925781 C 334.421875 90.796875 334.742188 90.699219 335.074219 90.636719 C 335.402344 90.570312 335.738281 90.535156 336.074219 90.535156 C 336.410156 90.535156 336.746094 90.570312 337.074219 90.636719 C 337.40625 90.699219 337.726562 90.796875 338.039062 90.925781 C 338.351562 91.054688 338.644531 91.214844 338.925781 91.398438 C 339.207031 91.585938 339.464844 91.800781 339.703125 92.039062 C 339.941406 92.277344 340.152344 92.535156 340.339844 92.816406 C 340.527344 93.09375 340.6875 93.390625 340.816406 93.699219 C 340.945312 94.011719 341.042969 94.332031 341.105469 94.664062 C 341.171875 94.992188 341.207031 95.324219 341.207031 95.664062 L 341.207031 367.019531 C 341.207031 367.355469 341.171875 367.6875 341.109375 368.019531 C 341.042969 368.347656 340.945312 368.667969 340.816406 368.980469 C 340.6875 369.292969 340.527344 369.585938 340.339844 369.867188 C 340.152344 370.148438 339.941406 370.40625 339.703125 370.644531 C 339.464844 370.882812 339.207031 371.09375 338.925781 371.28125 C 338.644531 371.46875 338.351562 371.625 338.039062 371.753906 C 337.726562 371.882812 337.40625 371.980469 337.074219 372.046875 C 336.746094 372.113281 336.410156 372.144531 336.074219 372.144531 Z M 336.074219 372.144531 " fill-opacity="1" fill-rule="nonzero"/><path fill="#000000" d="M 257.359375 74.199219 C 256.851562 74.199219 256.355469 74.125 255.871094 73.976562 C 255.382812 73.828125 254.929688 73.613281 254.507812 73.332031 C 254.085938 73.050781 253.714844 72.714844 253.394531 72.324219 C 253.070312 71.929688 252.8125 71.5 252.617188 71.03125 C 252.425781 70.566406 252.300781 70.078125 252.253906 69.574219 C 252.203125 69.070312 252.226562 68.566406 252.328125 68.070312 C 252.425781 67.574219 252.59375 67.101562 252.835938 66.65625 C 253.074219 66.207031 253.371094 65.804688 253.730469 65.445312 L 281.867188 37.335938 L 253.730469 9.226562 C 253.492188 8.988281 253.28125 8.730469 253.09375 8.449219 C 252.90625 8.171875 252.75 7.875 252.621094 7.5625 C 252.492188 7.253906 252.394531 6.933594 252.332031 6.601562 C 252.265625 6.273438 252.230469 5.941406 252.234375 5.605469 C 252.234375 5.265625 252.265625 4.933594 252.332031 4.605469 C 252.398438 4.273438 252.496094 3.953125 252.625 3.644531 C 252.753906 3.332031 252.910156 3.039062 253.097656 2.757812 C 253.285156 2.480469 253.496094 2.21875 253.734375 1.980469 C 253.972656 1.746094 254.234375 1.53125 254.511719 1.34375 C 254.792969 1.15625 255.085938 1 255.398438 0.871094 C 255.710938 0.742188 256.03125 0.644531 256.359375 0.578125 C 256.691406 0.515625 257.023438 0.480469 257.359375 0.480469 C 257.699219 0.480469 258.03125 0.511719 258.359375 0.578125 C 258.691406 0.644531 259.011719 0.742188 259.324219 0.867188 C 259.632812 0.996094 259.929688 1.15625 260.210938 1.339844 C 260.492188 1.527344 260.75 1.738281 260.988281 1.976562 L 292.753906 33.710938 C 292.992188 33.949219 293.207031 34.210938 293.390625 34.488281 C 293.578125 34.769531 293.738281 35.0625 293.867188 35.375 C 293.996094 35.6875 294.09375 36.007812 294.160156 36.335938 C 294.222656 36.667969 294.257812 37 294.257812 37.335938 C 294.257812 37.671875 294.222656 38.007812 294.160156 38.335938 C 294.09375 38.667969 293.996094 38.988281 293.867188 39.296875 C 293.738281 39.609375 293.578125 39.90625 293.390625 40.183594 C 293.207031 40.464844 292.992188 40.722656 292.753906 40.960938 L 260.988281 72.695312 C 260.507812 73.175781 259.953125 73.546875 259.324219 73.808594 C 258.695312 74.070312 258.039062 74.199219 257.359375 74.199219 Z M 257.359375 74.199219 " fill-opacity="1" fill-rule="nonzero"/><path fill="#000000" d="M 36.964844 74.199219 C 36.28125 74.199219 35.628906 74.070312 35 73.808594 C 34.371094 73.546875 33.816406 73.175781 33.335938 72.695312 L 1.570312 40.960938 C 1.332031 40.722656 1.117188 40.464844 0.929688 40.183594 C 0.742188 39.90625 0.585938 39.609375 0.457031 39.296875 C 0.328125 38.988281 0.230469 38.667969 0.164062 38.335938 C 0.0976562 38.007812 0.0664062 37.671875 0.0664062 37.335938 C 0.0664062 37 0.0976562 36.667969 0.164062 36.335938 C 0.230469 36.007812 0.328125 35.6875 0.457031 35.375 C 0.585938 35.0625 0.742188 34.769531 0.929688 34.488281 C 1.117188 34.210938 1.332031 33.949219 1.570312 33.710938 L 33.335938 1.976562 C 33.574219 1.738281 33.832031 1.527344 34.113281 1.339844 C 34.390625 1.152344 34.6875 0.992188 35 0.863281 C 35.3125 0.734375 35.632812 0.636719 35.960938 0.574219 C 36.292969 0.507812 36.625 0.472656 36.964844 0.472656 C 37.300781 0.472656 37.636719 0.507812 37.964844 0.570312 C 38.296875 0.636719 38.617188 0.734375 38.929688 0.863281 C 39.238281 0.992188 39.535156 1.152344 39.816406 1.335938 C 40.097656 1.523438 40.355469 1.738281 40.59375 1.976562 C 40.832031 2.214844 41.046875 2.472656 41.234375 2.753906 C 41.417969 3.03125 41.578125 3.328125 41.707031 3.640625 C 41.835938 3.949219 41.933594 4.269531 42 4.601562 C 42.0625 4.929688 42.097656 5.265625 42.097656 5.601562 C 42.097656 5.9375 42.0625 6.273438 42 6.601562 C 41.933594 6.933594 41.835938 7.253906 41.707031 7.5625 C 41.578125 7.875 41.417969 8.171875 41.230469 8.449219 C 41.042969 8.730469 40.832031 8.988281 40.59375 9.226562 L 12.453125 37.335938 L 40.59375 65.445312 C 40.949219 65.804688 41.25 66.207031 41.488281 66.65625 C 41.726562 67.101562 41.898438 67.574219 41.996094 68.070312 C 42.09375 68.566406 42.121094 69.070312 42.070312 69.574219 C 42.019531 70.078125 41.898438 70.566406 41.703125 71.03125 C 41.511719 71.5 41.253906 71.929688 40.929688 72.324219 C 40.609375 72.714844 40.234375 73.050781 39.8125 73.332031 C 39.390625 73.613281 38.9375 73.828125 38.453125 73.976562 C 37.96875 74.125 37.472656 74.199219 36.964844 74.199219 Z M 36.964844 74.199219 " fill-opacity="1" fill-rule="nonzero"/><path fill="#000000" d="M 286.265625 42.484375 L 14.636719 42.484375 C 14.300781 42.484375 13.964844 42.453125 13.632812 42.386719 C 13.304688 42.320312 12.984375 42.222656 12.671875 42.09375 C 12.359375 41.964844 12.066406 41.808594 11.785156 41.621094 C 11.503906 41.433594 11.246094 41.222656 11.007812 40.984375 C 10.769531 40.746094 10.554688 40.488281 10.367188 40.207031 C 10.183594 39.925781 10.023438 39.632812 9.894531 39.320312 C 9.765625 39.007812 9.667969 38.6875 9.601562 38.359375 C 9.535156 38.027344 9.503906 37.695312 9.503906 37.359375 C 9.503906 37.023438 9.535156 36.6875 9.601562 36.359375 C 9.667969 36.027344 9.765625 35.707031 9.894531 35.398438 C 10.023438 35.085938 10.183594 34.789062 10.367188 34.511719 C 10.554688 34.230469 10.769531 33.972656 11.007812 33.734375 C 11.246094 33.496094 11.503906 33.28125 11.785156 33.097656 C 12.066406 32.910156 12.359375 32.75 12.671875 32.621094 C 12.984375 32.492188 13.304688 32.394531 13.632812 32.332031 C 13.964844 32.265625 14.300781 32.230469 14.636719 32.230469 L 286.265625 32.230469 C 286.601562 32.230469 286.9375 32.265625 287.265625 32.332031 C 287.597656 32.394531 287.917969 32.492188 288.230469 32.621094 C 288.539062 32.75 288.835938 32.910156 289.117188 33.097656 C 289.394531 33.28125 289.65625 33.496094 289.894531 33.734375 C 290.132812 33.972656 290.34375 34.230469 290.53125 34.511719 C 290.71875 34.789062 290.878906 35.085938 291.007812 35.398438 C 291.136719 35.707031 291.230469 36.027344 291.296875 36.359375 C 291.363281 36.6875 291.398438 37.023438 291.398438 37.359375 C 291.398438 37.695312 291.363281 38.027344 291.296875 38.359375 C 291.230469 38.6875 291.136719 39.007812 291.007812 39.320312 C 290.878906 39.632812 290.71875 39.925781 290.53125 40.207031 C 290.34375 40.488281 290.132812 40.746094 289.894531 40.984375 C 289.65625 41.222656 289.394531 41.433594 289.117188 41.621094 C 288.835938 41.808594 288.539062 41.964844 288.230469 42.09375 C 287.917969 42.222656 287.597656 42.320312 287.265625 42.386719 C 286.9375 42.453125 286.601562 42.484375 286.265625 42.484375 Z M 286.265625 42.484375 " fill-opacity="1" fill-rule="nonzero"/><path fill="#000000" d="M 276.480469 123.449219 C 275.832031 123.449219 275.265625 123.234375 274.78125 122.804688 L 249.875 100.792969 C 249.621094 100.570312 249.417969 100.304688 249.265625 100 C 249.117188 99.691406 249.03125 99.371094 249.011719 99.03125 C 248.988281 98.691406 249.035156 98.359375 249.144531 98.039062 C 249.253906 97.714844 249.421875 97.425781 249.648438 97.171875 C 249.875 96.917969 250.140625 96.714844 250.449219 96.566406 C 250.753906 96.417969 251.078125 96.332031 251.417969 96.3125 C 251.757812 96.292969 252.089844 96.335938 252.410156 96.449219 C 252.734375 96.558594 253.019531 96.730469 253.277344 96.957031 L 278.179688 118.964844 C 278.578125 119.316406 278.84375 119.753906 278.972656 120.269531 C 279.097656 120.789062 279.070312 121.292969 278.878906 121.792969 C 278.691406 122.292969 278.375 122.691406 277.9375 122.992188 C 277.5 123.296875 277.011719 123.449219 276.480469 123.449219 Z M 276.480469 123.449219 " fill-opacity="1" fill-rule="nonzero"/><path fill="#000000" d="M 276.480469 149.558594 C 275.832031 149.558594 275.265625 149.34375 274.78125 148.914062 L 220.320312 100.792969 C 220.0625 100.570312 219.859375 100.304688 219.710938 100 C 219.558594 99.691406 219.472656 99.371094 219.453125 99.03125 C 219.433594 98.691406 219.476562 98.359375 219.585938 98.039062 C 219.699219 97.714844 219.867188 97.425781 220.09375 97.171875 C 220.316406 96.917969 220.582031 96.714844 220.890625 96.566406 C 221.195312 96.417969 221.519531 96.332031 221.859375 96.3125 C 222.199219 96.292969 222.53125 96.335938 222.851562 96.449219 C 223.175781 96.558594 223.464844 96.730469 223.71875 96.957031 L 278.179688 145.074219 C 278.578125 145.425781 278.84375 145.863281 278.972656 146.378906 C 279.097656 146.898438 279.070312 147.40625 278.878906 147.902344 C 278.691406 148.402344 278.375 148.800781 277.9375 149.105469 C 277.5 149.40625 277.011719 149.558594 276.480469 149.558594 Z M 276.480469 149.558594 " fill-opacity="1" fill-rule="nonzero"/><path fill="#000000" d="M 276.480469 175.601562 C 275.832031 175.601562 275.265625 175.386719 274.78125 174.957031 L 190.761719 100.796875 C 190.507812 100.570312 190.304688 100.304688 190.15625 100 C 190.007812 99.695312 189.925781 99.371094 189.902344 99.035156 C 189.882812 98.695312 189.929688 98.367188 190.039062 98.042969 C 190.148438 97.722656 190.316406 97.4375 190.542969 97.179688 C 190.765625 96.925781 191.03125 96.726562 191.335938 96.578125 C 191.640625 96.425781 191.964844 96.34375 192.304688 96.320312 C 192.644531 96.300781 192.972656 96.34375 193.292969 96.453125 C 193.617188 96.5625 193.90625 96.730469 194.160156 96.953125 L 278.179688 171.117188 C 278.578125 171.46875 278.84375 171.902344 278.972656 172.421875 C 279.097656 172.9375 279.070312 173.445312 278.878906 173.945312 C 278.691406 174.441406 278.378906 174.84375 277.9375 175.144531 C 277.5 175.449219 277.011719 175.601562 276.480469 175.601562 Z M 276.480469 175.601562 " fill-opacity="1" fill-rule="nonzero"/><path fill="#000000" d="M 276.480469 201.710938 C 275.832031 201.710938 275.265625 201.496094 274.78125 201.066406 L 161.269531 100.796875 C 161.015625 100.570312 160.8125 100.304688 160.664062 100 C 160.515625 99.695312 160.429688 99.371094 160.410156 99.03125 C 160.390625 98.691406 160.433594 98.363281 160.542969 98.039062 C 160.65625 97.71875 160.824219 97.429688 161.050781 97.175781 C 161.273438 96.921875 161.539062 96.71875 161.84375 96.570312 C 162.152344 96.421875 162.472656 96.335938 162.8125 96.316406 C 163.152344 96.296875 163.484375 96.339844 163.804688 96.449219 C 164.128906 96.5625 164.417969 96.730469 164.671875 96.953125 L 278.179688 197.226562 C 278.578125 197.578125 278.84375 198.015625 278.972656 198.53125 C 279.097656 199.050781 279.070312 199.558594 278.878906 200.054688 C 278.691406 200.554688 278.375 200.953125 277.9375 201.257812 C 277.5 201.558594 277.011719 201.710938 276.480469 201.710938 Z M 276.480469 201.710938 " fill-opacity="1" fill-rule="nonzero"/><path fill="#000000" d="M 276.480469 227.753906 C 275.832031 227.753906 275.265625 227.539062 274.78125 227.109375 L 131.714844 100.796875 C 131.460938 100.570312 131.257812 100.304688 131.105469 100 C 130.957031 99.695312 130.871094 99.371094 130.847656 99.03125 C 130.828125 98.691406 130.871094 98.363281 130.984375 98.039062 C 131.09375 97.71875 131.261719 97.429688 131.488281 97.175781 C 131.710938 96.917969 131.976562 96.714844 132.285156 96.566406 C 132.589844 96.417969 132.914062 96.332031 133.253906 96.3125 C 133.59375 96.292969 133.925781 96.335938 134.246094 96.449219 C 134.570312 96.558594 134.859375 96.726562 135.113281 96.953125 L 278.179688 223.269531 C 278.578125 223.621094 278.84375 224.054688 278.972656 224.574219 C 279.097656 225.089844 279.070312 225.597656 278.878906 226.097656 C 278.691406 226.59375 278.378906 226.996094 277.9375 227.296875 C 277.5 227.601562 277.011719 227.753906 276.480469 227.753906 Z M 276.480469 227.753906 " fill-opacity="1" fill-rule="nonzero"/><path fill="#000000" d="M 276.480469 253.792969 C 275.832031 253.792969 275.265625 253.582031 274.78125 253.152344 L 102.15625 100.796875 C 101.902344 100.570312 101.703125 100.304688 101.554688 100 C 101.402344 99.695312 101.320312 99.371094 101.300781 99.035156 C 101.277344 98.695312 101.324219 98.367188 101.433594 98.042969 C 101.542969 97.722656 101.710938 97.4375 101.9375 97.179688 C 102.164062 96.925781 102.425781 96.726562 102.734375 96.578125 C 103.039062 96.425781 103.359375 96.34375 103.699219 96.320312 C 104.039062 96.300781 104.367188 96.34375 104.691406 96.453125 C 105.011719 96.5625 105.300781 96.730469 105.554688 96.953125 L 278.179688 249.308594 C 278.578125 249.664062 278.84375 250.097656 278.972656 250.617188 C 279.097656 251.132812 279.070312 251.640625 278.878906 252.140625 C 278.691406 252.636719 278.378906 253.039062 277.9375 253.339844 C 277.5 253.644531 277.011719 253.792969 276.480469 253.792969 Z M 276.480469 253.792969 " fill-opacity="1" fill-rule="nonzero"/><path fill="#000000" d="M 276.480469 279.90625 C 275.832031 279.90625 275.265625 279.691406 274.78125 279.261719 L 72.667969 100.796875 C 72.414062 100.570312 72.210938 100.304688 72.0625 100 C 71.910156 99.695312 71.828125 99.371094 71.804688 99.03125 C 71.785156 98.691406 71.828125 98.363281 71.941406 98.042969 C 72.050781 97.71875 72.21875 97.429688 72.445312 97.175781 C 72.667969 96.921875 72.933594 96.71875 73.242188 96.570312 C 73.546875 96.421875 73.871094 96.335938 74.210938 96.316406 C 74.546875 96.296875 74.878906 96.339844 75.203125 96.449219 C 75.523438 96.5625 75.8125 96.730469 76.066406 96.953125 L 278.179688 275.421875 C 278.578125 275.773438 278.84375 276.207031 278.972656 276.726562 C 279.097656 277.242188 279.070312 277.75 278.878906 278.25 C 278.691406 278.746094 278.378906 279.148438 277.9375 279.449219 C 277.5 279.753906 277.011719 279.90625 276.480469 279.90625 Z M 276.480469 279.90625 " fill-opacity="1" fill-rule="nonzero"/><path fill="#000000" d="M 276.480469 305.945312 C 275.832031 305.945312 275.265625 305.734375 274.78125 305.304688 L 43.179688 100.796875 C 42.925781 100.570312 42.722656 100.304688 42.570312 100 C 42.421875 99.695312 42.335938 99.371094 42.316406 99.03125 C 42.296875 98.691406 42.339844 98.363281 42.449219 98.042969 C 42.5625 97.71875 42.730469 97.429688 42.953125 97.175781 C 43.179688 96.921875 43.445312 96.71875 43.75 96.570312 C 44.058594 96.421875 44.378906 96.335938 44.71875 96.316406 C 45.058594 96.296875 45.390625 96.339844 45.710938 96.449219 C 46.035156 96.5625 46.320312 96.730469 46.578125 96.953125 L 278.179688 301.460938 C 278.578125 301.816406 278.84375 302.25 278.972656 302.765625 C 279.097656 303.285156 279.070312 303.792969 278.878906 304.289062 C 278.691406 304.789062 278.378906 305.191406 277.9375 305.492188 C 277.5 305.796875 277.011719 305.945312 276.480469 305.945312 Z M 276.480469 305.945312 " fill-opacity="1" fill-rule="nonzero"/><path fill="#000000" d="M 276.480469 331.988281 C 275.832031 331.988281 275.265625 331.773438 274.78125 331.347656 L 18.410156 105.035156 C 18.15625 104.808594 17.953125 104.542969 17.804688 104.238281 C 17.652344 103.933594 17.566406 103.609375 17.546875 103.269531 C 17.527344 102.929688 17.570312 102.601562 17.679688 102.28125 C 17.792969 101.957031 17.960938 101.667969 18.183594 101.414062 C 18.410156 101.160156 18.675781 100.957031 18.980469 100.808594 C 19.289062 100.660156 19.609375 100.574219 19.949219 100.554688 C 20.289062 100.53125 20.621094 100.578125 20.941406 100.6875 C 21.265625 100.800781 21.554688 100.96875 21.808594 101.191406 L 278.179688 327.503906 C 278.578125 327.855469 278.84375 328.292969 278.972656 328.808594 C 279.097656 329.328125 279.070312 329.835938 278.878906 330.332031 C 278.691406 330.832031 278.378906 331.230469 277.9375 331.535156 C 277.5 331.835938 277.011719 331.988281 276.480469 331.988281 Z M 276.480469 331.988281 " fill-opacity="1" fill-rule="nonzero"/><path fill="#000000" d="M 278.875 360.148438 C 278.226562 360.152344 277.660156 359.9375 277.175781 359.503906 L 274.78125 357.386719 L 16.152344 129.164062 C 15.898438 128.9375 15.695312 128.671875 15.546875 128.367188 C 15.398438 128.0625 15.3125 127.738281 15.292969 127.398438 C 15.269531 127.0625 15.316406 126.730469 15.425781 126.410156 C 15.539062 126.085938 15.703125 125.800781 15.929688 125.546875 C 16.15625 125.289062 16.421875 125.089844 16.726562 124.9375 C 17.03125 124.789062 17.355469 124.703125 17.695312 124.683594 C 18.035156 124.664062 18.363281 124.707031 18.6875 124.816406 C 19.007812 124.925781 19.296875 125.09375 19.550781 125.320312 L 278.179688 353.546875 L 280.578125 355.667969 C 280.976562 356.019531 281.238281 356.457031 281.367188 356.972656 C 281.492188 357.488281 281.464844 357.996094 281.273438 358.496094 C 281.085938 358.992188 280.769531 359.394531 280.332031 359.695312 C 279.894531 360 279.40625 360.148438 278.875 360.148438 Z M 278.875 360.148438 " fill-opacity="1" fill-rule="nonzero"/><path fill="#000000" d="M 248.839844 359.808594 C 248.191406 359.808594 247.625 359.59375 247.140625 359.164062 L 16.152344 155.203125 C 15.898438 154.976562 15.695312 154.714844 15.546875 154.40625 C 15.394531 154.101562 15.3125 153.78125 15.289062 153.441406 C 15.269531 153.101562 15.3125 152.769531 15.425781 152.449219 C 15.535156 152.128906 15.703125 151.839844 15.929688 151.585938 C 16.152344 151.328125 16.417969 151.128906 16.726562 150.976562 C 17.03125 150.828125 17.355469 150.746094 17.695312 150.722656 C 18.035156 150.703125 18.363281 150.746094 18.6875 150.859375 C 19.007812 150.96875 19.296875 151.136719 19.550781 151.363281 L 250.539062 355.324219 C 250.9375 355.675781 251.203125 356.113281 251.332031 356.628906 C 251.457031 357.144531 251.429688 357.652344 251.238281 358.152344 C 251.050781 358.652344 250.734375 359.050781 250.296875 359.355469 C 249.859375 359.65625 249.371094 359.808594 248.839844 359.808594 Z M 248.839844 359.808594 " fill-opacity="1" fill-rule="nonzero"/><path fill="#000000" d="M 219.347656 359.808594 C 218.703125 359.808594 218.136719 359.59375 217.652344 359.164062 L 16.152344 181.246094 C 15.898438 181.019531 15.695312 180.753906 15.542969 180.449219 C 15.394531 180.144531 15.308594 179.820312 15.289062 179.480469 C 15.265625 179.140625 15.3125 178.8125 15.421875 178.488281 C 15.53125 178.167969 15.699219 177.878906 15.925781 177.625 C 16.152344 177.371094 16.417969 177.167969 16.722656 177.019531 C 17.03125 176.867188 17.351562 176.785156 17.691406 176.761719 C 18.03125 176.742188 18.363281 176.789062 18.6875 176.898438 C 19.007812 177.011719 19.296875 177.179688 19.550781 177.40625 L 221.050781 355.324219 C 221.449219 355.675781 221.710938 356.113281 221.839844 356.628906 C 221.96875 357.144531 221.9375 357.652344 221.75 358.152344 C 221.558594 358.652344 221.246094 359.050781 220.808594 359.355469 C 220.367188 359.65625 219.882812 359.808594 219.347656 359.808594 Z M 219.347656 359.808594 " fill-opacity="1" fill-rule="nonzero"/><path fill="#000000" d="M 189.859375 359.808594 C 189.210938 359.808594 188.644531 359.59375 188.160156 359.164062 L 16.152344 207.289062 C 15.898438 207.0625 15.695312 206.796875 15.546875 206.492188 C 15.398438 206.1875 15.3125 205.863281 15.292969 205.523438 C 15.269531 205.1875 15.316406 204.855469 15.425781 204.535156 C 15.535156 204.210938 15.703125 203.925781 15.929688 203.667969 C 16.15625 203.414062 16.421875 203.214844 16.726562 203.0625 C 17.03125 202.914062 17.355469 202.828125 17.695312 202.808594 C 18.035156 202.789062 18.363281 202.832031 18.6875 202.941406 C 19.007812 203.054688 19.296875 203.222656 19.550781 203.445312 L 191.558594 355.324219 C 191.960938 355.675781 192.222656 356.113281 192.351562 356.628906 C 192.480469 357.144531 192.449219 357.652344 192.261719 358.152344 C 192.070312 358.652344 191.757812 359.050781 191.316406 359.355469 C 190.878906 359.65625 190.394531 359.808594 189.859375 359.808594 Z M 189.859375 359.808594 " fill-opacity="1" fill-rule="nonzero"/><path fill="#000000" d="M 160.371094 359.808594 C 159.722656 359.808594 159.15625 359.59375 158.671875 359.164062 L 16.152344 233.398438 C 15.898438 233.171875 15.699219 232.90625 15.550781 232.601562 C 15.398438 232.296875 15.316406 231.976562 15.296875 231.636719 C 15.273438 231.296875 15.320312 230.96875 15.429688 230.644531 C 15.539062 230.324219 15.707031 230.039062 15.933594 229.78125 C 16.160156 229.527344 16.421875 229.328125 16.730469 229.179688 C 17.035156 229.027344 17.355469 228.945312 17.695312 228.921875 C 18.035156 228.902344 18.363281 228.945312 18.6875 229.054688 C 19.007812 229.164062 19.296875 229.332031 19.550781 229.554688 L 162.070312 355.324219 C 162.46875 355.675781 162.734375 356.113281 162.863281 356.628906 C 162.988281 357.144531 162.960938 357.652344 162.769531 358.152344 C 162.582031 358.652344 162.269531 359.050781 161.828125 359.355469 C 161.390625 359.65625 160.902344 359.808594 160.371094 359.808594 Z M 160.371094 359.808594 " fill-opacity="1" fill-rule="nonzero"/><path fill="#000000" d="M 130.8125 359.808594 C 130.164062 359.808594 129.601562 359.59375 129.113281 359.164062 L 16.152344 259.441406 C 15.898438 259.214844 15.699219 258.949219 15.546875 258.644531 C 15.398438 258.339844 15.316406 258.015625 15.292969 257.679688 C 15.273438 257.339844 15.320312 257.007812 15.429688 256.6875 C 15.539062 256.367188 15.707031 256.078125 15.933594 255.824219 C 16.15625 255.570312 16.421875 255.371094 16.726562 255.21875 C 17.035156 255.070312 17.355469 254.984375 17.695312 254.964844 C 18.035156 254.945312 18.363281 254.988281 18.6875 255.097656 C 19.007812 255.207031 19.296875 255.375 19.550781 255.597656 L 132.511719 355.324219 C 132.914062 355.675781 133.175781 356.113281 133.304688 356.628906 C 133.433594 357.144531 133.402344 357.652344 133.214844 358.152344 C 133.023438 358.652344 132.710938 359.050781 132.273438 359.355469 C 131.832031 359.65625 131.347656 359.808594 130.8125 359.808594 Z M 130.8125 359.808594 " fill-opacity="1" fill-rule="nonzero"/><path fill="#000000" d="M 101.253906 359.808594 C 100.609375 359.808594 100.042969 359.59375 99.558594 359.164062 L 16.152344 285.550781 C 15.898438 285.324219 15.695312 285.058594 15.546875 284.753906 C 15.398438 284.449219 15.3125 284.125 15.292969 283.789062 C 15.269531 283.449219 15.316406 283.117188 15.425781 282.796875 C 15.535156 282.476562 15.703125 282.1875 15.929688 281.933594 C 16.15625 281.675781 16.421875 281.476562 16.726562 281.324219 C 17.03125 281.175781 17.355469 281.09375 17.695312 281.070312 C 18.035156 281.050781 18.363281 281.09375 18.6875 281.207031 C 19.007812 281.316406 19.296875 281.484375 19.550781 281.707031 L 102.953125 355.324219 C 103.355469 355.675781 103.617188 356.113281 103.746094 356.628906 C 103.875 357.144531 103.84375 357.652344 103.65625 358.152344 C 103.464844 358.652344 103.152344 359.050781 102.714844 359.355469 C 102.273438 359.65625 101.789062 359.808594 101.253906 359.808594 Z M 101.253906 359.808594 " fill-opacity="1" fill-rule="nonzero"/><path fill="#000000" d="M 71.765625 359.808594 C 71.117188 359.808594 70.554688 359.59375 70.070312 359.164062 L 16.152344 311.59375 C 15.898438 311.367188 15.699219 311.101562 15.550781 310.796875 C 15.398438 310.492188 15.316406 310.167969 15.296875 309.832031 C 15.273438 309.492188 15.320312 309.164062 15.429688 308.839844 C 15.539062 308.519531 15.707031 308.234375 15.933594 307.976562 C 16.160156 307.722656 16.421875 307.523438 16.730469 307.371094 C 17.035156 307.222656 17.355469 307.136719 17.695312 307.117188 C 18.035156 307.097656 18.363281 307.140625 18.6875 307.25 C 19.007812 307.359375 19.296875 307.527344 19.550781 307.75 L 73.464844 355.324219 C 73.867188 355.675781 74.128906 356.113281 74.257812 356.628906 C 74.386719 357.144531 74.355469 357.652344 74.167969 358.152344 C 73.976562 358.652344 73.664062 359.050781 73.226562 359.355469 C 72.785156 359.65625 72.300781 359.808594 71.765625 359.808594 Z M 71.765625 359.808594 " fill-opacity="1" fill-rule="nonzero"/><path fill="#000000" d="M 42.207031 359.808594 C 41.5625 359.808594 40.996094 359.59375 40.511719 359.167969 L 16.15625 337.703125 C 15.898438 337.480469 15.695312 337.214844 15.546875 336.910156 C 15.398438 336.605469 15.3125 336.28125 15.289062 335.941406 C 15.269531 335.601562 15.3125 335.273438 15.421875 334.949219 C 15.535156 334.628906 15.699219 334.339844 15.925781 334.085938 C 16.152344 333.832031 16.417969 333.628906 16.722656 333.476562 C 17.027344 333.328125 17.351562 333.242188 17.691406 333.222656 C 18.03125 333.199219 18.359375 333.246094 18.683594 333.355469 C 19.003906 333.464844 19.292969 333.632812 19.550781 333.859375 L 43.90625 355.320312 C 44.308594 355.675781 44.570312 356.109375 44.699219 356.625 C 44.828125 357.144531 44.796875 357.652344 44.609375 358.152344 C 44.421875 358.648438 44.105469 359.050781 43.667969 359.351562 C 43.230469 359.65625 42.742188 359.808594 42.207031 359.808594 Z M 42.207031 359.808594 " fill-opacity="1" fill-rule="nonzero"/><path fill="#000000" d="M 278.355469 362.371094 L 19.726562 362.371094 C 19.390625 362.371094 19.054688 362.335938 18.726562 362.273438 C 18.394531 362.207031 18.074219 362.109375 17.761719 361.980469 C 17.453125 361.851562 17.15625 361.695312 16.875 361.507812 C 16.597656 361.320312 16.335938 361.105469 16.097656 360.871094 C 15.859375 360.632812 15.648438 360.371094 15.460938 360.09375 C 15.273438 359.8125 15.117188 359.515625 14.984375 359.207031 C 14.855469 358.894531 14.761719 358.574219 14.695312 358.246094 C 14.628906 357.914062 14.597656 357.582031 14.597656 357.246094 L 14.597656 98.875 C 14.597656 98.539062 14.628906 98.203125 14.695312 97.875 C 14.761719 97.542969 14.859375 97.222656 14.988281 96.914062 C 15.117188 96.601562 15.273438 96.308594 15.460938 96.027344 C 15.648438 95.746094 15.859375 95.488281 16.097656 95.25 C 16.335938 95.011719 16.597656 94.800781 16.875 94.613281 C 17.15625 94.425781 17.453125 94.265625 17.761719 94.140625 C 18.074219 94.011719 18.394531 93.914062 18.726562 93.847656 C 19.054688 93.78125 19.390625 93.75 19.726562 93.75 L 278.355469 93.75 C 278.691406 93.75 279.027344 93.78125 279.355469 93.847656 C 279.6875 93.914062 280.007812 94.011719 280.320312 94.140625 C 280.628906 94.265625 280.925781 94.425781 281.207031 94.613281 C 281.488281 94.800781 281.746094 95.011719 281.984375 95.25 C 282.222656 95.488281 282.433594 95.746094 282.621094 96.027344 C 282.808594 96.308594 282.96875 96.601562 283.097656 96.914062 C 283.226562 97.222656 283.324219 97.542969 283.386719 97.875 C 283.453125 98.203125 283.488281 98.539062 283.488281 98.875 L 283.488281 357.246094 C 283.488281 357.582031 283.453125 357.914062 283.386719 358.246094 C 283.324219 358.574219 283.226562 358.894531 283.097656 359.207031 C 282.96875 359.515625 282.808594 359.8125 282.621094 360.09375 C 282.433594 360.371094 282.222656 360.632812 281.984375 360.871094 C 281.746094 361.105469 281.488281 361.320312 281.207031 361.507812 C 280.925781 361.695312 280.628906 361.851562 280.320312 361.980469 C 280.007812 362.109375 279.6875 362.207031 279.355469 362.273438 C 279.027344 362.335938 278.691406 362.371094 278.355469 362.371094 Z M 24.859375 352.117188 L 273.222656 352.117188 L 273.222656 104 L 24.859375 104 Z M 24.859375 352.117188 " fill-opacity="1" fill-rule="nonzero"/><path fill="#000000" d="M 337.933594 374.988281 C 337.253906 374.992188 336.597656 374.859375 335.96875 374.601562 C 335.339844 374.339844 334.785156 373.96875 334.304688 373.488281 L 302.539062 341.753906 C 302.300781 341.515625 302.089844 341.257812 301.902344 340.976562 C 301.714844 340.699219 301.558594 340.402344 301.425781 340.089844 C 301.296875 339.78125 301.203125 339.460938 301.136719 339.128906 C 301.070312 338.800781 301.039062 338.464844 301.039062 338.128906 C 301.039062 337.792969 301.070312 337.460938 301.136719 337.128906 C 301.203125 336.800781 301.296875 336.480469 301.425781 336.167969 C 301.558594 335.855469 301.714844 335.5625 301.902344 335.28125 C 302.089844 335 302.300781 334.742188 302.539062 334.503906 C 302.777344 334.265625 303.039062 334.054688 303.316406 333.867188 C 303.597656 333.679688 303.894531 333.523438 304.203125 333.394531 C 304.515625 333.265625 304.835938 333.167969 305.167969 333.101562 C 305.496094 333.035156 305.832031 333.003906 306.167969 333.003906 C 306.503906 333.003906 306.839844 333.035156 307.167969 333.101562 C 307.5 333.167969 307.820312 333.265625 308.132812 333.394531 C 308.445312 333.523438 308.738281 333.679688 309.019531 333.867188 C 309.300781 334.054688 309.558594 334.265625 309.796875 334.503906 L 337.933594 362.613281 L 366.070312 334.503906 C 366.308594 334.269531 366.570312 334.054688 366.851562 333.871094 C 367.128906 333.683594 367.425781 333.527344 367.738281 333.398438 C 368.046875 333.269531 368.367188 333.171875 368.699219 333.105469 C 369.027344 333.042969 369.363281 333.007812 369.699219 333.011719 C 370.035156 333.011719 370.367188 333.042969 370.699219 333.109375 C 371.027344 333.175781 371.347656 333.273438 371.660156 333.402344 C 371.972656 333.53125 372.265625 333.6875 372.546875 333.875 C 372.824219 334.0625 373.085938 334.273438 373.324219 334.511719 C 373.5625 334.75 373.773438 335.007812 373.960938 335.289062 C 374.148438 335.566406 374.304688 335.863281 374.433594 336.171875 C 374.5625 336.484375 374.660156 336.804688 374.726562 337.132812 C 374.792969 337.460938 374.824219 337.796875 374.824219 338.132812 C 374.824219 338.46875 374.792969 338.800781 374.726562 339.128906 C 374.664062 339.460938 374.566406 339.78125 374.4375 340.089844 C 374.308594 340.402344 374.152344 340.699219 373.964844 340.976562 C 373.777344 341.257812 373.566406 341.515625 373.328125 341.753906 L 341.5625 373.488281 C 341.082031 373.96875 340.527344 374.339844 339.898438 374.601562 C 339.269531 374.859375 338.613281 374.992188 337.933594 374.988281 Z M 337.933594 374.988281 " fill-opacity="1" fill-rule="nonzero"/><path fill="#000000" d="M 369.699219 123.082031 C 369.019531 123.082031 368.363281 122.953125 367.734375 122.691406 C 367.109375 122.429688 366.550781 122.0625 366.070312 121.578125 L 337.933594 93.46875 L 309.796875 121.578125 C 309.558594 121.816406 309.300781 122.03125 309.019531 122.214844 C 308.738281 122.402344 308.445312 122.5625 308.132812 122.691406 C 307.820312 122.820312 307.5 122.917969 307.167969 122.980469 C 306.839844 123.046875 306.503906 123.082031 306.167969 123.082031 C 305.832031 123.082031 305.496094 123.046875 305.167969 122.980469 C 304.835938 122.917969 304.515625 122.820312 304.203125 122.691406 C 303.894531 122.5625 303.597656 122.402344 303.316406 122.214844 C 303.039062 122.03125 302.777344 121.816406 302.539062 121.578125 C 302.300781 121.339844 302.089844 121.082031 301.902344 120.800781 C 301.714844 120.523438 301.558594 120.226562 301.429688 119.917969 C 301.300781 119.605469 301.203125 119.285156 301.136719 118.953125 C 301.070312 118.625 301.039062 118.289062 301.039062 117.953125 C 301.039062 117.617188 301.070312 117.285156 301.136719 116.953125 C 301.203125 116.625 301.300781 116.304688 301.429688 115.992188 C 301.558594 115.679688 301.714844 115.386719 301.902344 115.105469 C 302.089844 114.828125 302.300781 114.566406 302.539062 114.328125 L 334.304688 82.59375 C 334.542969 82.355469 334.804688 82.144531 335.082031 81.957031 C 335.363281 81.769531 335.660156 81.613281 335.96875 81.484375 C 336.28125 81.355469 336.601562 81.257812 336.933594 81.191406 C 337.261719 81.125 337.597656 81.09375 337.933594 81.09375 C 338.269531 81.09375 338.605469 81.125 338.933594 81.191406 C 339.265625 81.257812 339.585938 81.355469 339.898438 81.484375 C 340.210938 81.613281 340.503906 81.769531 340.785156 81.957031 C 341.066406 82.144531 341.324219 82.355469 341.5625 82.59375 L 373.328125 114.328125 C 373.6875 114.6875 373.988281 115.089844 374.226562 115.539062 C 374.464844 115.984375 374.632812 116.457031 374.734375 116.953125 C 374.832031 117.453125 374.855469 117.953125 374.808594 118.457031 C 374.757812 118.960938 374.636719 119.449219 374.441406 119.917969 C 374.246094 120.382812 373.988281 120.816406 373.667969 121.207031 C 373.34375 121.597656 372.972656 121.933594 372.550781 122.21875 C 372.128906 122.5 371.675781 122.714844 371.191406 122.859375 C 370.703125 123.007812 370.207031 123.082031 369.699219 123.082031 Z M 369.699219 123.082031 " fill-opacity="1" fill-rule="nonzero"/><path fill="#000000" d="M 337.949219 372.144531 C 337.613281 372.144531 337.277344 372.113281 336.949219 372.046875 C 336.617188 371.980469 336.296875 371.882812 335.984375 371.753906 C 335.675781 371.625 335.378906 371.46875 335.097656 371.28125 C 334.820312 371.09375 334.558594 370.882812 334.320312 370.644531 C 334.082031 370.40625 333.871094 370.148438 333.683594 369.867188 C 333.496094 369.585938 333.339844 369.292969 333.210938 368.980469 C 333.082031 368.667969 332.984375 368.347656 332.917969 368.019531 C 332.851562 367.6875 332.820312 367.355469 332.820312 367.019531 L 332.820312 95.664062 C 332.820312 95.324219 332.851562 94.992188 332.917969 94.664062 C 332.984375 94.332031 333.082031 94.011719 333.210938 93.699219 C 333.339844 93.390625 333.496094 93.09375 333.683594 92.816406 C 333.871094 92.535156 334.082031 92.277344 334.320312 92.039062 C 334.558594 91.800781 334.820312 91.585938 335.097656 91.398438 C 335.378906 91.214844 335.675781 91.054688 335.984375 90.925781 C 336.296875 90.796875 336.617188 90.699219 336.949219 90.636719 C 337.277344 90.570312 337.613281 90.535156 337.949219 90.535156 C 338.285156 90.535156 338.621094 90.570312 338.949219 90.636719 C 339.28125 90.699219 339.601562 90.796875 339.914062 90.925781 C 340.226562 91.054688 340.519531 91.214844 340.800781 91.398438 C 341.082031 91.585938 341.339844 91.800781 341.578125 92.039062 C 341.816406 92.277344 342.027344 92.535156 342.214844 92.816406 C 342.402344 93.09375 342.5625 93.390625 342.691406 93.699219 C 342.820312 94.011719 342.917969 94.332031 342.980469 94.664062 C 343.046875 94.992188 343.082031 95.324219 343.082031 95.664062 L 343.082031 367.019531 C 343.082031 367.355469 343.046875 367.6875 342.984375 368.019531 C 342.917969 368.347656 342.820312 368.667969 342.691406 368.980469 C 342.5625 369.292969 342.402344 369.585938 342.214844 369.867188 C 342.027344 370.148438 341.816406 370.40625 341.578125 370.644531 C 341.339844 370.882812 341.082031 371.09375 340.800781 371.28125 C 340.519531 371.46875 340.226562 371.625 339.914062 371.753906 C 339.601562 371.882812 339.28125 371.980469 338.949219 372.046875 C 338.621094 372.113281 338.285156 372.144531 337.949219 372.144531 Z M 337.949219 372.144531 " fill-opacity="1" fill-rule="nonzero"/><path fill="#000000" d="M 259.234375 74.199219 C 258.726562 74.199219 258.230469 74.125 257.746094 73.976562 C 257.257812 73.828125 256.804688 73.613281 256.382812 73.332031 C 255.960938 73.050781 255.589844 72.714844 255.269531 72.324219 C 254.945312 71.929688 254.6875 71.5 254.492188 71.03125 C 254.300781 70.566406 254.175781 70.078125 254.128906 69.574219 C 254.078125 69.070312 254.101562 68.566406 254.203125 68.070312 C 254.300781 67.574219 254.46875 67.101562 254.710938 66.65625 C 254.949219 66.207031 255.246094 65.804688 255.605469 65.445312 L 283.742188 37.335938 L 255.605469 9.226562 C 255.367188 8.988281 255.15625 8.730469 254.96875 8.449219 C 254.78125 8.171875 254.625 7.875 254.496094 7.5625 C 254.367188 7.253906 254.269531 6.933594 254.207031 6.601562 C 254.140625 6.273438 254.105469 5.941406 254.109375 5.605469 C 254.109375 5.265625 254.140625 4.933594 254.207031 4.605469 C 254.273438 4.273438 254.371094 3.953125 254.5 3.644531 C 254.628906 3.332031 254.785156 3.039062 254.972656 2.757812 C 255.160156 2.480469 255.371094 2.21875 255.609375 1.980469 C 255.847656 1.746094 256.109375 1.53125 256.386719 1.34375 C 256.667969 1.15625 256.960938 1 257.273438 0.871094 C 257.585938 0.742188 257.90625 0.644531 258.234375 0.578125 C 258.566406 0.515625 258.898438 0.480469 259.234375 0.480469 C 259.574219 0.480469 259.90625 0.511719 260.234375 0.578125 C 260.566406 0.644531 260.886719 0.742188 261.199219 0.867188 C 261.507812 0.996094 261.804688 1.15625 262.085938 1.339844 C 262.367188 1.527344 262.625 1.738281 262.863281 1.976562 L 294.628906 33.710938 C 294.867188 33.949219 295.082031 34.210938 295.265625 34.488281 C 295.453125 34.769531 295.613281 35.0625 295.742188 35.375 C 295.871094 35.6875 295.96875 36.007812 296.035156 36.335938 C 296.097656 36.667969 296.132812 37 296.132812 37.335938 C 296.132812 37.671875 296.097656 38.007812 296.035156 38.335938 C 295.96875 38.667969 295.871094 38.988281 295.742188 39.296875 C 295.613281 39.609375 295.453125 39.90625 295.265625 40.183594 C 295.082031 40.464844 294.867188 40.722656 294.628906 40.960938 L 262.863281 72.695312 C 262.382812 73.175781 261.828125 73.546875 261.199219 73.808594 C 260.570312 74.070312 259.914062 74.199219 259.234375 74.199219 Z M 259.234375 74.199219 " fill-opacity="1" fill-rule="nonzero"/><g clip-path="url(#f4401742f8)"><path fill="#000000" d="M 38.839844 74.199219 C 38.15625 74.199219 37.503906 74.070312 36.875 73.808594 C 36.246094 73.546875 35.691406 73.175781 35.210938 72.695312 L 3.445312 40.960938 C 3.207031 40.722656 2.992188 40.464844 2.804688 40.183594 C 2.617188 39.90625 2.460938 39.609375 2.332031 39.296875 C 2.203125 38.988281 2.105469 38.667969 2.039062 38.335938 C 1.972656 38.007812 1.941406 37.671875 1.941406 37.335938 C 1.941406 37 1.972656 36.667969 2.039062 36.335938 C 2.105469 36.007812 2.203125 35.6875 2.332031 35.375 C 2.460938 35.0625 2.617188 34.769531 2.804688 34.488281 C 2.992188 34.210938 3.207031 33.949219 3.445312 33.710938 L 35.210938 1.976562 C 35.449219 1.738281 35.707031 1.527344 35.988281 1.339844 C 36.265625 1.152344 36.5625 0.992188 36.875 0.863281 C 37.1875 0.734375 37.507812 0.636719 37.835938 0.574219 C 38.167969 0.507812 38.5 0.472656 38.839844 0.472656 C 39.175781 0.472656 39.511719 0.507812 39.839844 0.570312 C 40.171875 0.636719 40.492188 0.734375 40.804688 0.863281 C 41.113281 0.992188 41.410156 1.152344 41.691406 1.335938 C 41.972656 1.523438 42.230469 1.738281 42.46875 1.976562 C 42.707031 2.214844 42.921875 2.472656 43.109375 2.753906 C 43.292969 3.03125 43.453125 3.328125 43.582031 3.640625 C 43.710938 3.949219 43.808594 4.269531 43.875 4.601562 C 43.9375 4.929688 43.972656 5.265625 43.972656 5.601562 C 43.972656 5.9375 43.9375 6.273438 43.875 6.601562 C 43.808594 6.933594 43.710938 7.253906 43.582031 7.5625 C 43.453125 7.875 43.292969 8.171875 43.105469 8.449219 C 42.917969 8.730469 42.707031 8.988281 42.46875 9.226562 L 14.328125 37.335938 L 42.46875 65.445312 C 42.824219 65.804688 43.125 66.207031 43.363281 66.65625 C 43.601562 67.101562 43.773438 67.574219 43.871094 68.070312 C 43.96875 68.566406 43.996094 69.070312 43.945312 69.574219 C 43.894531 70.078125 43.773438 70.566406 43.578125 71.03125 C 43.386719 71.5 43.128906 71.929688 42.804688 72.324219 C 42.484375 72.714844 42.109375 73.050781 41.6875 73.332031 C 41.265625 73.613281 40.8125 73.828125 40.328125 73.976562 C 39.84375 74.125 39.347656 74.199219 38.839844 74.199219 Z M 38.839844 74.199219 " fill-opacity="1" fill-rule="nonzero"/></g><path fill="#000000" d="M 288.140625 42.484375 L 16.511719 42.484375 C 16.175781 42.484375 15.839844 42.453125 15.507812 42.386719 C 15.179688 42.320312 14.859375 42.222656 14.546875 42.09375 C 14.234375 41.964844 13.941406 41.808594 13.660156 41.621094 C 13.378906 41.433594 13.121094 41.222656 12.882812 40.984375 C 12.644531 40.746094 12.429688 40.488281 12.242188 40.207031 C 12.058594 39.925781 11.898438 39.632812 11.769531 39.320312 C 11.640625 39.007812 11.542969 38.6875 11.476562 38.359375 C 11.410156 38.027344 11.378906 37.695312 11.378906 37.359375 C 11.378906 37.023438 11.410156 36.6875 11.476562 36.359375 C 11.542969 36.027344 11.640625 35.707031 11.769531 35.398438 C 11.898438 35.085938 12.058594 34.789062 12.242188 34.511719 C 12.429688 34.230469 12.644531 33.972656 12.882812 33.734375 C 13.121094 33.496094 13.378906 33.28125 13.660156 33.097656 C 13.941406 32.910156 14.234375 32.75 14.546875 32.621094 C 14.859375 32.492188 15.179688 32.394531 15.507812 32.332031 C 15.839844 32.265625 16.175781 32.230469 16.511719 32.230469 L 288.140625 32.230469 C 288.476562 32.230469 288.8125 32.265625 289.140625 32.332031 C 289.472656 32.394531 289.792969 32.492188 290.105469 32.621094 C 290.414062 32.75 290.710938 32.910156 290.992188 33.097656 C 291.269531 33.28125 291.53125 33.496094 291.769531 33.734375 C 292.007812 33.972656 292.21875 34.230469 292.40625 34.511719 C 292.59375 34.789062 292.753906 35.085938 292.882812 35.398438 C 293.011719 35.707031 293.105469 36.027344 293.171875 36.359375 C 293.238281 36.6875 293.273438 37.023438 293.273438 37.359375 C 293.273438 37.695312 293.238281 38.027344 293.171875 38.359375 C 293.105469 38.6875 293.011719 39.007812 292.882812 39.320312 C 292.753906 39.632812 292.59375 39.925781 292.40625 40.207031 C 292.21875 40.488281 292.007812 40.746094 291.769531 40.984375 C 291.53125 41.222656 291.269531 41.433594 290.992188 41.621094 C 290.710938 41.808594 290.414062 41.964844 290.105469 42.09375 C 289.792969 42.222656 289.472656 42.320312 289.140625 42.386719 C 288.8125 42.453125 288.476562 42.484375 288.140625 42.484375 Z M 288.140625 42.484375 " fill-opacity="1" fill-rule="nonzero"/><path fill="#000000" d="M 278.355469 123.449219 C 277.707031 123.449219 277.140625 123.234375 276.65625 122.804688 L 251.75 100.792969 C 251.496094 100.570312 251.292969 100.304688 251.140625 100 C 250.992188 99.691406 250.90625 99.371094 250.886719 99.03125 C 250.863281 98.691406 250.910156 98.359375 251.019531 98.039062 C 251.128906 97.714844 251.296875 97.425781 251.523438 97.171875 C 251.75 96.917969 252.015625 96.714844 252.324219 96.566406 C 252.628906 96.417969 252.953125 96.332031 253.292969 96.3125 C 253.632812 96.292969 253.964844 96.335938 254.285156 96.449219 C 254.609375 96.558594 254.894531 96.730469 255.152344 96.957031 L 280.054688 118.964844 C 280.453125 119.316406 280.71875 119.753906 280.847656 120.269531 C 280.972656 120.789062 280.945312 121.292969 280.753906 121.792969 C 280.566406 122.292969 280.25 122.691406 279.8125 122.992188 C 279.375 123.296875 278.886719 123.449219 278.355469 123.449219 Z M 278.355469 123.449219 " fill-opacity="1" fill-rule="nonzero"/><path fill="#000000" d="M 278.355469 149.558594 C 277.707031 149.558594 277.140625 149.34375 276.65625 148.914062 L 222.195312 100.792969 C 221.9375 100.570312 221.734375 100.304688 221.585938 100 C 221.433594 99.691406 221.347656 99.371094 221.328125 99.03125 C 221.308594 98.691406 221.351562 98.359375 221.460938 98.039062 C 221.574219 97.714844 221.742188 97.425781 221.96875 97.171875 C 222.191406 96.917969 222.457031 96.714844 222.765625 96.566406 C 223.070312 96.417969 223.394531 96.332031 223.734375 96.3125 C 224.074219 96.292969 224.40625 96.335938 224.726562 96.449219 C 225.050781 96.558594 225.339844 96.730469 225.59375 96.957031 L 280.054688 145.074219 C 280.453125 145.425781 280.71875 145.863281 280.847656 146.378906 C 280.972656 146.898438 280.945312 147.40625 280.753906 147.902344 C 280.566406 148.402344 280.25 148.800781 279.8125 149.105469 C 279.375 149.40625 278.886719 149.558594 278.355469 149.558594 Z M 278.355469 149.558594 " fill-opacity="1" fill-rule="nonzero"/><path fill="#000000" d="M 278.355469 175.601562 C 277.707031 175.601562 277.140625 175.386719 276.65625 174.957031 L 192.636719 100.796875 C 192.382812 100.570312 192.179688 100.304688 192.03125 100 C 191.882812 99.695312 191.800781 99.371094 191.777344 99.035156 C 191.757812 98.695312 191.804688 98.367188 191.914062 98.042969 C 192.023438 97.722656 192.191406 97.4375 192.417969 97.179688 C 192.640625 96.925781 192.90625 96.726562 193.210938 96.578125 C 193.515625 96.425781 193.839844 96.34375 194.179688 96.320312 C 194.519531 96.300781 194.847656 96.34375 195.167969 96.453125 C 195.492188 96.5625 195.78125 96.730469 196.035156 96.953125 L 280.054688 171.117188 C 280.453125 171.46875 280.71875 171.902344 280.847656 172.421875 C 280.972656 172.9375 280.945312 173.445312 280.753906 173.945312 C 280.566406 174.441406 280.253906 174.84375 279.8125 175.144531 C 279.375 175.449219 278.886719 175.601562 278.355469 175.601562 Z M 278.355469 175.601562 " fill-opacity="1" fill-rule="nonzero"/><path fill="#000000" d="M 278.355469 201.710938 C 277.707031 201.710938 277.140625 201.496094 276.65625 201.066406 L 163.144531 100.796875 C 162.890625 100.570312 162.6875 100.304688 162.539062 100 C 162.390625 99.695312 162.304688 99.371094 162.285156 99.03125 C 162.265625 98.691406 162.308594 98.363281 162.417969 98.039062 C 162.53125 97.71875 162.699219 97.429688 162.925781 97.175781 C 163.148438 96.921875 163.414062 96.71875 163.71875 96.570312 C 164.027344 96.421875 164.347656 96.335938 164.6875 96.316406 C 165.027344 96.296875 165.359375 96.339844 165.679688 96.449219 C 166.003906 96.5625 166.292969 96.730469 166.546875 96.953125 L 280.054688 197.226562 C 280.453125 197.578125 280.71875 198.015625 280.847656 198.53125 C 280.972656 199.050781 280.945312 199.558594 280.753906 200.054688 C 280.566406 200.554688 280.25 200.953125 279.8125 201.257812 C 279.375 201.558594 278.886719 201.710938 278.355469 201.710938 Z M 278.355469 201.710938 " fill-opacity="1" fill-rule="nonzero"/><path fill="#000000" d="M 278.355469 227.753906 C 277.707031 227.753906 277.140625 227.539062 276.65625 227.109375 L 133.589844 100.796875 C 133.335938 100.570312 133.132812 100.304688 132.980469 100 C 132.832031 99.695312 132.746094 99.371094 132.722656 99.03125 C 132.703125 98.691406 132.746094 98.363281 132.859375 98.039062 C 132.96875 97.71875 133.136719 97.429688 133.363281 97.175781 C 133.585938 96.917969 133.851562 96.714844 134.160156 96.566406 C 134.464844 96.417969 134.789062 96.332031 135.128906 96.3125 C 135.46875 96.292969 135.800781 96.335938 136.121094 96.449219 C 136.445312 96.558594 136.734375 96.726562 136.988281 96.953125 L 280.054688 223.269531 C 280.453125 223.621094 280.71875 224.054688 280.847656 224.574219 C 280.972656 225.089844 280.945312 225.597656 280.753906 226.097656 C 280.566406 226.59375 280.253906 226.996094 279.8125 227.296875 C 279.375 227.601562 278.886719 227.753906 278.355469 227.753906 Z M 278.355469 227.753906 " fill-opacity="1" fill-rule="nonzero"/><path fill="#000000" d="M 278.355469 253.792969 C 277.707031 253.792969 277.140625 253.582031 276.65625 253.152344 L 104.03125 100.796875 C 103.777344 100.570312 103.578125 100.304688 103.429688 100 C 103.277344 99.695312 103.195312 99.371094 103.175781 99.035156 C 103.152344 98.695312 103.199219 98.367188 103.308594 98.042969 C 103.417969 97.722656 103.585938 97.4375 103.8125 97.179688 C 104.039062 96.925781 104.300781 96.726562 104.609375 96.578125 C 104.914062 96.425781 105.234375 96.34375 105.574219 96.320312 C 105.914062 96.300781 106.242188 96.34375 106.566406 96.453125 C 106.886719 96.5625 107.175781 96.730469 107.429688 96.953125 L 280.054688 249.308594 C 280.453125 249.664062 280.71875 250.097656 280.847656 250.617188 C 280.972656 251.132812 280.945312 251.640625 280.753906 252.140625 C 280.566406 252.636719 280.253906 253.039062 279.8125 253.339844 C 279.375 253.644531 278.886719 253.792969 278.355469 253.792969 Z M 278.355469 253.792969 " fill-opacity="1" fill-rule="nonzero"/><path fill="#000000" d="M 278.355469 279.90625 C 277.707031 279.90625 277.140625 279.691406 276.65625 279.261719 L 74.542969 100.796875 C 74.289062 100.570312 74.085938 100.304688 73.9375 100 C 73.785156 99.695312 73.703125 99.371094 73.679688 99.03125 C 73.660156 98.691406 73.703125 98.363281 73.816406 98.042969 C 73.925781 97.71875 74.09375 97.429688 74.320312 97.175781 C 74.542969 96.921875 74.808594 96.71875 75.117188 96.570312 C 75.421875 96.421875 75.746094 96.335938 76.085938 96.316406 C 76.421875 96.296875 76.753906 96.339844 77.078125 96.449219 C 77.398438 96.5625 77.6875 96.730469 77.941406 96.953125 L 280.054688 275.421875 C 280.453125 275.773438 280.71875 276.207031 280.847656 276.726562 C 280.972656 277.242188 280.945312 277.75 280.753906 278.25 C 280.566406 278.746094 280.253906 279.148438 279.8125 279.449219 C 279.375 279.753906 278.886719 279.90625 278.355469 279.90625 Z M 278.355469 279.90625 " fill-opacity="1" fill-rule="nonzero"/><path fill="#000000" d="M 278.355469 305.945312 C 277.707031 305.945312 277.140625 305.734375 276.65625 305.304688 L 45.054688 100.796875 C 44.800781 100.570312 44.597656 100.304688 44.445312 100 C 44.296875 99.695312 44.210938 99.371094 44.191406 99.03125 C 44.171875 98.691406 44.214844 98.363281 44.324219 98.042969 C 44.4375 97.71875 44.605469 97.429688 44.828125 97.175781 C 45.054688 96.921875 45.320312 96.71875 45.625 96.570312 C 45.933594 96.421875 46.253906 96.335938 46.59375 96.316406 C 46.933594 96.296875 47.265625 96.339844 47.585938 96.449219 C 47.910156 96.5625 48.195312 96.730469 48.453125 96.953125 L 280.054688 301.460938 C 280.453125 301.816406 280.71875 302.25 280.847656 302.765625 C 280.972656 303.285156 280.945312 303.792969 280.753906 304.289062 C 280.566406 304.789062 280.253906 305.191406 279.8125 305.492188 C 279.375 305.796875 278.886719 305.945312 278.355469 305.945312 Z M 278.355469 305.945312 " fill-opacity="1" fill-rule="nonzero"/><path fill="#000000" d="M 278.355469 331.988281 C 277.707031 331.988281 277.140625 331.773438 276.65625 331.347656 L 20.285156 105.035156 C 20.03125 104.808594 19.828125 104.542969 19.679688 104.238281 C 19.527344 103.933594 19.441406 103.609375 19.421875 103.269531 C 19.402344 102.929688 19.445312 102.601562 19.554688 102.28125 C 19.667969 101.957031 19.835938 101.667969 20.058594 101.414062 C 20.285156 101.160156 20.550781 100.957031 20.855469 100.808594 C 21.164062 100.660156 21.484375 100.574219 21.824219 100.554688 C 22.164062 100.53125 22.496094 100.578125 22.816406 100.6875 C 23.140625 100.800781 23.429688 100.96875 23.683594 101.191406 L 280.054688 327.503906 C 280.453125 327.855469 280.71875 328.292969 280.847656 328.808594 C 280.972656 329.328125 280.945312 329.835938 280.753906 330.332031 C 280.566406 330.832031 280.253906 331.230469 279.8125 331.535156 C 279.375 331.835938 278.886719 331.988281 278.355469 331.988281 Z M 278.355469 331.988281 " fill-opacity="1" fill-rule="nonzero"/><path fill="#000000" d="M 280.75 360.148438 C 280.101562 360.152344 279.535156 359.9375 279.050781 359.503906 L 276.65625 357.386719 L 18.027344 129.164062 C 17.773438 128.9375 17.570312 128.671875 17.421875 128.367188 C 17.273438 128.0625 17.1875 127.738281 17.167969 127.398438 C 17.144531 127.0625 17.191406 126.730469 17.300781 126.410156 C 17.414062 126.085938 17.578125 125.800781 17.804688 125.546875 C 18.03125 125.289062 18.296875 125.089844 18.601562 124.9375 C 18.90625 124.789062 19.230469 124.703125 19.570312 124.683594 C 19.910156 124.664062 20.238281 124.707031 20.5625 124.816406 C 20.882812 124.925781 21.171875 125.09375 21.425781 125.320312 L 280.054688 353.546875 L 282.453125 355.667969 C 282.851562 356.019531 283.113281 356.457031 283.242188 356.972656 C 283.367188 357.488281 283.339844 357.996094 283.148438 358.496094 C 282.960938 358.992188 282.644531 359.394531 282.207031 359.695312 C 281.769531 360 281.28125 360.148438 280.75 360.148438 Z M 280.75 360.148438 " fill-opacity="1" fill-rule="nonzero"/><path fill="#000000" d="M 250.714844 359.808594 C 250.066406 359.808594 249.5 359.59375 249.015625 359.164062 L 18.027344 155.203125 C 17.773438 154.976562 17.570312 154.714844 17.421875 154.40625 C 17.269531 154.101562 17.1875 153.78125 17.164062 153.441406 C 17.144531 153.101562 17.1875 152.769531 17.300781 152.449219 C 17.410156 152.128906 17.578125 151.839844 17.804688 151.585938 C 18.027344 151.328125 18.292969 151.128906 18.601562 150.976562 C 18.90625 150.828125 19.230469 150.746094 19.570312 150.722656 C 19.910156 150.703125 20.238281 150.746094 20.5625 150.859375 C 20.882812 150.96875 21.171875 151.136719 21.425781 151.363281 L 252.414062 355.324219 C 252.8125 355.675781 253.078125 356.113281 253.207031 356.628906 C 253.332031 357.144531 253.304688 357.652344 253.113281 358.152344 C 252.925781 358.652344 252.609375 359.050781 252.171875 359.355469 C 251.734375 359.65625 251.246094 359.808594 250.714844 359.808594 Z M 250.714844 359.808594 " fill-opacity="1" fill-rule="nonzero"/><path fill="#000000" d="M 221.222656 359.808594 C 220.578125 359.808594 220.011719 359.59375 219.527344 359.164062 L 18.027344 181.246094 C 17.773438 181.019531 17.570312 180.753906 17.417969 180.449219 C 17.269531 180.144531 17.183594 179.820312 17.164062 179.480469 C 17.140625 179.140625 17.1875 178.8125 17.296875 178.488281 C 17.40625 178.167969 17.574219 177.878906 17.800781 177.625 C 18.027344 177.371094 18.292969 177.167969 18.597656 177.019531 C 18.90625 176.867188 19.226562 176.785156 19.566406 176.761719 C 19.90625 176.742188 20.238281 176.789062 20.5625 176.898438 C 20.882812 177.011719 21.171875 177.179688 21.425781 177.40625 L 222.925781 355.324219 C 223.324219 355.675781 223.585938 356.113281 223.714844 356.628906 C 223.84375 357.144531 223.8125 357.652344 223.625 358.152344 C 223.433594 358.652344 223.121094 359.050781 222.683594 359.355469 C 222.242188 359.65625 221.757812 359.808594 221.222656 359.808594 Z M 221.222656 359.808594 " fill-opacity="1" fill-rule="nonzero"/><path fill="#000000" d="M 191.734375 359.808594 C 191.085938 359.808594 190.519531 359.59375 190.035156 359.164062 L 18.027344 207.289062 C 17.773438 207.0625 17.570312 206.796875 17.421875 206.492188 C 17.273438 206.1875 17.1875 205.863281 17.167969 205.523438 C 17.144531 205.1875 17.191406 204.855469 17.300781 204.535156 C 17.410156 204.210938 17.578125 203.925781 17.804688 203.667969 C 18.03125 203.414062 18.296875 203.214844 18.601562 203.0625 C 18.90625 202.914062 19.230469 202.828125 19.570312 202.808594 C 19.910156 202.789062 20.238281 202.832031 20.5625 202.941406 C 20.882812 203.054688 21.171875 203.222656 21.425781 203.445312 L 193.433594 355.324219 C 193.835938 355.675781 194.097656 356.113281 194.226562 356.628906 C 194.355469 357.144531 194.324219 357.652344 194.136719 358.152344 C 193.945312 358.652344 193.632812 359.050781 193.191406 359.355469 C 192.753906 359.65625 192.269531 359.808594 191.734375 359.808594 Z M 191.734375 359.808594 " fill-opacity="1" fill-rule="nonzero"/><path fill="#000000" d="M 162.246094 359.808594 C 161.597656 359.808594 161.03125 359.59375 160.546875 359.164062 L 18.027344 233.398438 C 17.773438 233.171875 17.574219 232.90625 17.425781 232.601562 C 17.273438 232.296875 17.191406 231.976562 17.171875 231.636719 C 17.148438 231.296875 17.195312 230.96875 17.304688 230.644531 C 17.414062 230.324219 17.582031 230.039062 17.808594 229.78125 C 18.035156 229.527344 18.296875 229.328125 18.605469 229.179688 C 18.910156 229.027344 19.230469 228.945312 19.570312 228.921875 C 19.910156 228.902344 20.238281 228.945312 20.5625 229.054688 C 20.882812 229.164062 21.171875 229.332031 21.425781 229.554688 L 163.945312 355.324219 C 164.34375 355.675781 164.609375 356.113281 164.738281 356.628906 C 164.863281 357.144531 164.835938 357.652344 164.644531 358.152344 C 164.457031 358.652344 164.144531 359.050781 163.703125 359.355469 C 163.265625 359.65625 162.777344 359.808594 162.246094 359.808594 Z M 162.246094 359.808594 " fill-opacity="1" fill-rule="nonzero"/><path fill="#000000" d="M 132.6875 359.808594 C 132.039062 359.808594 131.476562 359.59375 130.988281 359.164062 L 18.027344 259.441406 C 17.773438 259.214844 17.574219 258.949219 17.421875 258.644531 C 17.273438 258.339844 17.191406 258.015625 17.167969 257.679688 C 17.148438 257.339844 17.195312 257.007812 17.304688 256.6875 C 17.414062 256.367188 17.582031 256.078125 17.808594 255.824219 C 18.03125 255.570312 18.296875 255.371094 18.601562 255.21875 C 18.910156 255.070312 19.230469 254.984375 19.570312 254.964844 C 19.910156 254.945312 20.238281 254.988281 20.5625 255.097656 C 20.882812 255.207031 21.171875 255.375 21.425781 255.597656 L 134.386719 355.324219 C 134.789062 355.675781 135.050781 356.113281 135.179688 356.628906 C 135.308594 357.144531 135.277344 357.652344 135.089844 358.152344 C 134.898438 358.652344 134.585938 359.050781 134.148438 359.355469 C 133.707031 359.65625 133.222656 359.808594 132.6875 359.808594 Z M 132.6875 359.808594 " fill-opacity="1" fill-rule="nonzero"/><path fill="#000000" d="M 103.128906 359.808594 C 102.484375 359.808594 101.917969 359.59375 101.433594 359.164062 L 18.027344 285.550781 C 17.773438 285.324219 17.570312 285.058594 17.421875 284.753906 C 17.273438 284.449219 17.1875 284.125 17.167969 283.789062 C 17.144531 283.449219 17.191406 283.117188 17.300781 282.796875 C 17.410156 282.476562 17.578125 282.1875 17.804688 281.933594 C 18.03125 281.675781 18.296875 281.476562 18.601562 281.324219 C 18.90625 281.175781 19.230469 281.09375 19.570312 281.070312 C 19.910156 281.050781 20.238281 281.09375 20.5625 281.207031 C 20.882812 281.316406 21.171875 281.484375 21.425781 281.707031 L 104.828125 355.324219 C 105.230469 355.675781 105.492188 356.113281 105.621094 356.628906 C 105.75 357.144531 105.71875 357.652344 105.53125 358.152344 C 105.339844 358.652344 105.027344 359.050781 104.589844 359.355469 C 104.148438 359.65625 103.664062 359.808594 103.128906 359.808594 Z M 103.128906 359.808594 " fill-opacity="1" fill-rule="nonzero"/><path fill="#000000" d="M 73.640625 359.808594 C 72.992188 359.808594 72.429688 359.59375 71.945312 359.164062 L 18.027344 311.59375 C 17.773438 311.367188 17.574219 311.101562 17.425781 310.796875 C 17.273438 310.492188 17.191406 310.167969 17.171875 309.832031 C 17.148438 309.492188 17.195312 309.164062 17.304688 308.839844 C 17.414062 308.519531 17.582031 308.234375 17.808594 307.976562 C 18.035156 307.722656 18.296875 307.523438 18.605469 307.371094 C 18.910156 307.222656 19.230469 307.136719 19.570312 307.117188 C 19.910156 307.097656 20.238281 307.140625 20.5625 307.25 C 20.882812 307.359375 21.171875 307.527344 21.425781 307.75 L 75.339844 355.324219 C 75.742188 355.675781 76.003906 356.113281 76.132812 356.628906 C 76.261719 357.144531 76.230469 357.652344 76.042969 358.152344 C 75.851562 358.652344 75.539062 359.050781 75.101562 359.355469 C 74.660156 359.65625 74.175781 359.808594 73.640625 359.808594 Z M 73.640625 359.808594 " fill-opacity="1" fill-rule="nonzero"/><path fill="#000000" d="M 44.082031 359.808594 C 43.4375 359.808594 42.871094 359.59375 42.386719 359.167969 L 18.03125 337.703125 C 17.773438 337.480469 17.570312 337.214844 17.421875 336.910156 C 17.273438 336.605469 17.1875 336.28125 17.164062 335.941406 C 17.144531 335.601562 17.1875 335.273438 17.296875 334.949219 C 17.410156 334.628906 17.574219 334.339844 17.800781 334.085938 C 18.027344 333.832031 18.292969 333.628906 18.597656 333.476562 C 18.902344 333.328125 19.226562 333.242188 19.566406 333.222656 C 19.90625 333.199219 20.234375 333.246094 20.558594 333.355469 C 20.878906 333.464844 21.167969 333.632812 21.425781 333.859375 L 45.78125 355.320312 C 46.183594 355.675781 46.445312 356.109375 46.574219 356.625 C 46.703125 357.144531 46.671875 357.652344 46.484375 358.152344 C 46.296875 358.648438 45.980469 359.050781 45.542969 359.351562 C 45.105469 359.65625 44.617188 359.808594 44.082031 359.808594 Z M 44.082031 359.808594 " fill-opacity="1" fill-rule="nonzero"/></svg>