<svg xmlns="http://www.w3.org/2000/svg" xmlns:xlink="http://www.w3.org/1999/xlink" width="500" zoomAndPan="magnify" viewBox="0 0 375 374.999991" height="500" preserveAspectRatio="xMidYMid meet" version="1.0"><defs><clipPath id="cf3237d839"><path d="M 3.410156 187 L 371.660156 187 L 371.660156 375 L 3.410156 375 Z M 3.410156 187 " clip-rule="nonzero"/></clipPath><clipPath id="42dcd76606"><path d="M 3.410156 0 L 371.660156 0 L 371.660156 369 L 3.410156 369 Z M 3.410156 0 " clip-rule="nonzero"/></clipPath><clipPath id="2984ef9888"><path d="M 3.410156 187 L 371.660156 187 L 371.660156 375 L 3.410156 375 Z M 3.410156 187 " clip-rule="nonzero"/></clipPath><clipPath id="6688756055"><path d="M 3.410156 0 L 371.660156 0 L 371.660156 369 L 3.410156 369 Z M 3.410156 0 " clip-rule="nonzero"/></clipPath></defs><g clip-path="url(#cf3237d839)"><path fill="#dc433a" d="M 371.660156 187.5 C 371.660156 188.652344 371.660156 189.691406 371.660156 190.84375 C 371.660156 292.578125 289.171875 374.933594 187.535156 374.933594 C 85.894531 374.933594 3.410156 292.464844 3.410156 190.84375 C 3.410156 189.691406 3.410156 188.652344 3.410156 187.5 C 5.140625 287.617188 86.933594 368.246094 187.535156 368.246094 C 288.132812 368.246094 369.929688 287.617188 371.660156 187.5 Z M 371.660156 187.5 " fill-opacity="1" fill-rule="nonzero"/></g><g clip-path="url(#42dcd76606)"><path fill="#eb4f45" d="M 371.660156 184.15625 C 371.660156 185.308594 371.660156 186.347656 371.660156 187.5 C 369.929688 287.617188 288.132812 368.246094 187.535156 368.246094 C 86.933594 368.246094 5.253906 287.617188 3.410156 187.5 C 3.410156 186.347656 3.410156 185.308594 3.410156 184.15625 C 3.410156 82.535156 85.894531 0.0664062 187.535156 0.0664062 C 289.289062 0.0664062 371.660156 82.535156 371.660156 184.15625 Z M 371.660156 184.15625 " fill-opacity="1" fill-rule="nonzero"/></g><path fill="#e9e8e8" d="M 217.644531 189.230469 L 295.171875 261.667969 L 295.171875 266.742188 L 265.292969 296.617188 L 187.648438 219.21875 L 110.125 296.730469 L 80.242188 266.855469 L 80.242188 261.78125 L 157.769531 189.34375 L 80.242188 111.71875 L 80.242188 106.644531 L 110.125 81.730469 L 187.648438 159.242188 L 265.175781 81.730469 L 295.054688 106.644531 L 295.054688 111.71875 Z M 217.644531 189.230469 " fill-opacity="1" fill-rule="nonzero"/><path fill="#ffffff" d="M 217.644531 184.269531 L 295.171875 261.78125 L 265.292969 291.65625 L 187.765625 214.144531 L 110.238281 291.65625 L 80.359375 261.78125 L 157.886719 184.269531 L 80.242188 106.757812 L 110.125 76.882812 L 187.648438 154.394531 L 265.175781 76.882812 L 295.054688 106.757812 Z M 217.644531 184.269531 " fill-opacity="1" fill-rule="nonzero"/><g clip-path="url(#2984ef9888)"><path fill="#dc433a" d="M 371.660156 187.5 C 371.660156 188.652344 371.660156 189.691406 371.660156 190.84375 C 371.660156 292.578125 289.171875 374.933594 187.535156 374.933594 C 85.894531 374.933594 3.410156 292.464844 3.410156 190.84375 C 3.410156 189.691406 3.410156 188.652344 3.410156 187.5 C 5.140625 287.617188 86.933594 368.246094 187.535156 368.246094 C 288.132812 368.246094 369.929688 287.617188 371.660156 187.5 Z M 371.660156 187.5 " fill-opacity="1" fill-rule="nonzero"/></g><g clip-path="url(#6688756055)"><path fill="#eb4f45" d="M 371.660156 184.15625 C 371.660156 185.308594 371.660156 186.347656 371.660156 187.5 C 369.929688 287.617188 288.132812 368.246094 187.535156 368.246094 C 86.933594 368.246094 5.253906 287.617188 3.410156 187.5 C 3.410156 186.347656 3.410156 185.308594 3.410156 184.15625 C 3.410156 82.535156 85.894531 0.0664062 187.535156 0.0664062 C 289.289062 0.0664062 371.660156 82.535156 371.660156 184.15625 Z M 371.660156 184.15625 " fill-opacity="1" fill-rule="nonzero"/></g><path fill="#e9e8e8" d="M 217.644531 189.230469 L 295.171875 261.667969 L 295.171875 266.742188 L 265.292969 296.617188 L 187.648438 219.21875 L 110.125 296.730469 L 80.242188 266.855469 L 80.242188 261.78125 L 157.769531 189.34375 L 80.242188 111.71875 L 80.242188 106.644531 L 110.125 81.730469 L 187.648438 159.242188 L 265.175781 81.730469 L 295.054688 106.644531 L 295.054688 111.71875 Z M 217.644531 189.230469 " fill-opacity="1" fill-rule="nonzero"/><path fill="#ffffff" d="M 217.644531 184.269531 L 295.171875 261.78125 L 265.292969 291.65625 L 187.765625 214.144531 L 110.238281 291.65625 L 80.359375 261.78125 L 157.886719 184.269531 L 80.242188 106.757812 L 110.125 76.882812 L 187.648438 154.394531 L 265.175781 76.882812 L 295.054688 106.757812 Z M 217.644531 184.269531 " fill-opacity="1" fill-rule="nonzero"/></svg>